<?xml version="1.0" encoding="utf-8"?>
<!-- Generator: Adobe Illustrator 16.2.1, SVG Export Plug-In . SVG Version: 6.00 Build 0)  -->
<!DOCTYPE svg PUBLIC "-//W3C//DTD SVG 1.1//EN" "http://www.w3.org/Graphics/SVG/1.1/DTD/svg11.dtd">
<svg version="1.1" id="Layer_1" xmlns="http://www.w3.org/2000/svg" xmlns:xlink="http://www.w3.org/1999/xlink" x="0px" y="0px"
	  viewBox="0 0 200 200" enable-background="new 0 0 200 200" xml:space="preserve">
<g>
	<path fill-rule="evenodd" clip-rule="evenodd" fill="#22BCBA" d="M133.58,143.681c0.089,4.557-1.396,5.665-5.479,6.483
		c-4.472,0.896-8.804,2.521-13.195,3.84c-4.417,1.324-5.045,0.946-6.165-3.335c-1.812-6.908-3.666-13.798-5.575-20.681
		c-1.095-3.95-1.511-4.311-5.479-3.891c-7.256,0.772-14.494,1.718-21.741,2.58c-3.606,0.433-5.839,2.139-6.806,5.894
		c-0.684,2.644-2.457,4.986-3.483,7.565c-1.885,4.735-3.378,9.645-5.461,14.287c-0.968,2.16-2.775,4.031-4.511,5.711
		c-0.717,0.692-2.291,0.815-3.416,0.7c-4.302-0.441-8.579-1.226-12.886-1.608c-3.666-0.327-5.092-1.57-4.761-5.185
		c0.136-1.502,0.684-3.021,1.307-4.413c5.512-12.169,11.041-24.325,16.638-36.452c5.791-12.563,11.469-25.187,17.57-37.593
		c3.768-7.659,8.286-14.94,12.377-22.442c2.817-5.168,5.474-10.425,8.202-15.636c1.527-2.915,3.645-3.242,5.689-0.466
		c3.301,4.493,6.594,9.046,9.335,13.883c5.079,8.965,8.486,18.61,10.739,28.683c2.058,9.229,4.166,18.457,6.683,27.563
		c2.983,10.769,6.433,21.406,9.683,32.103C133.151,142.294,133.465,143.316,133.58,143.681z M55.016,155.21
		c0.648-2.601,1.209-4.816,1.769-7.035c0.421-1.65,0.654-3.377,1.286-4.939c2.101-5.181,4.209-10.366,6.619-15.402
		c0.738-1.536,2.249-3.03,3.789-3.781c2.177-1.073,4.672-1.667,7.103-2.07c10.323-1.723,20.677-3.306,31.543-5.02
		c1.01,10.035,3.539,19.921,7.247,29.671c3.955-1.184,7.281-2.189,10.969-3.292c-0.891-7.727-3.348-14.906-5.767-22.089
		c-1.88-5.588-4.018-11.1-5.825-16.713c-0.854-2.635-1.031-5.474-1.787-8.146c-1.574-5.521-3.245-11.015-5.027-16.468
		c-2.215-6.784-4.324-13.624-6.98-20.239c-1.468-3.632-2.494-7.68-5.8-10.709c-0.606,0.967-1.107,1.718-1.549,2.503
		c-3.785,6.78-7.345,13.701-11.389,20.324c-6.335,10.396-11.358,21.411-16.271,32.506c-5.775,13.035-11.698,26.01-17.584,38.994
		c-1.51,3.339-3.797,6.373-4.061,10.375C46.991,156.016,51.006,153.445,55.016,155.21z"/>
	<path fill-rule="evenodd" clip-rule="evenodd" fill="#22BCBA" d="M165.424,129.556c-0.521,6.322-0.849,12.67-1.612,18.962
		c-0.458,3.768-1.052,3.95-4.752,4.43c-4.604,0.598-9.259,0.759-13.604,2.902c-2.393,1.179-4.676-0.514-4.718-3.254
		c-0.081-4.494,0.25-9,0.182-13.493c-0.072-5.422-0.004-10.888-0.691-16.242c-0.683-5.317,0.476-10.188,2.334-14.936
		c1.078-2.775,3.798-4.031,6.674-4.438c3.382-0.475,6.785-0.793,10.196-1.048c2.521-0.187,3.183,1.099,4.019,3.98
		C165.657,114.048,164.894,121.792,165.424,129.556z M157.804,109.949c-8.155-0.853-11.546,1.939-11.639,9.509
		c-0.06,4.926,0.165,9.865,0.356,14.792c0.165,4.128,0.471,8.253,0.742,12.81c2.376-0.114,4.442,0.14,6.284-0.382
		c3.963-1.128,4.531-2.079,5.104-5.567c1.587-9.776,0.17-19.433-0.395-29.128C158.224,111.387,157.999,110.802,157.804,109.949z"/>
	<path fill-rule="evenodd" clip-rule="evenodd" fill="#22BCBA" d="M163.162,79.679c0.327,10.175-7.298,15.542-16.62,14.389
		c-3.967-0.488-7.157-6.267-6.182-11.066c0.496-2.423,1.298-4.787,2.036-7.15c0.175-0.543,0.552-1.218,1.019-1.438
		c3.637-1.714,7.196-3.747,11.02-4.845c3.479-1.001,7.73,2.609,8.401,6.398C163.048,77.184,163.061,78.44,163.162,79.679z
		 M146.237,86.239c3.916,1.994,7.128,1.617,9.394-0.942c2.439-2.754,2.703-5.817,0.738-8.571
		C149.41,77.591,147.934,78.94,146.237,86.239z"/>
	<path fill-rule="evenodd" clip-rule="evenodd" fill="#22BCBA" d="M95.159,107.53c-4.022,0-8.045-0.038-12.067,0.013
		c-4.451,0.055-7.913-4.489-6.225-8.575c1.294-3.131,3.279-5.97,4.607-9.088c1.63-3.819,2.958-7.769,4.294-11.707
		c0.76-2.241,0.09-5.669,3.349-5.936c3.475-0.285,3.067,3.208,3.81,5.41c2.24,6.619,4.464,13.238,6.688,19.857
		c0.344,1.031,0.675,2.071,0.946,3.119C101.842,105.689,100.289,107.696,95.159,107.53z M89.304,88.755
		c-1.833,3.976-5.614,6.237-4.655,11.028c3.043-0.526,6.013,1.638,8.788-0.335C94.425,95.018,91.955,92.247,89.304,88.755z"/>
</g>
</svg>
