<?xml version="1.0" encoding="utf-8"?>
<!-- Generator: Adobe Illustrator 16.2.1, SVG Export Plug-In . SVG Version: 6.00 Build 0)  -->
<!DOCTYPE svg PUBLIC "-//W3C//DTD SVG 1.1//EN" "http://www.w3.org/Graphics/SVG/1.1/DTD/svg11.dtd">
<svg version="1.1" id="Layer_1" xmlns="http://www.w3.org/2000/svg" xmlns:xlink="http://www.w3.org/1999/xlink" x="0px" y="0px"
	  viewBox="0 0 200 200" enable-background="new 0 0 200 200" xml:space="preserve">
<g>
	<path fill-rule="evenodd" clip-rule="evenodd" fill="#22BCBA" d="M59.199,129.821c-0.373,0-0.552,0.021-0.729-0.005
		c-0.06-0.021-0.179-0.114-0.179-0.174c0.009-0.17,0.018-0.373,0.119-0.492c0.306-0.395,0.771-0.386,1.213-0.395
		c0.145,0,0.323,0.148,0.434,0.268c0.144,0.166-0.043,0.619-0.264,0.679C59.539,129.762,59.275,129.805,59.199,129.821z"/>
	<path fill-rule="evenodd" clip-rule="evenodd" fill="#22BCBA" d="M55.253,112.942c0.17,0.19,0.374,0.356,0.483,0.556
		c0.052,0.123-0.051,0.326-0.102,0.471c-0.017,0.051-0.161,0.085-0.229,0.072c-0.289-0.08-0.416-0.416-0.356-0.887
		C55.05,113.096,55.16,113.044,55.253,112.942z"/>
	<path fill-rule="evenodd" clip-rule="evenodd" fill="#22BCBA" d="M123.584,158.033c-1.621,0-3.318-0.334-4.82,0.076
		c-2.783,0.764-4.744-1.111-7.094-1.723c-0.043-0.004-0.086-0.041-0.127-0.055c-2.921-0.178-5.704-1.574-8.691-0.93
		c-0.603,0.133-1.264,0.271-1.73,0.637c-3.955,2.957-8.597,3.564-13.307,3.908c-2.41,0.178-4.744-0.242-7.026-1.111
		c-2.605-1.006-5.245-1.939-7.935-2.725c-2.682-0.789-4.319-2.89-6.152-4.697c-1.876-1.863-3.59-3.941-5.16-6.08
		c-1.077-1.48-1.909-3.183-2.597-4.88c-1.307-3.199-2.461-6.471-3.632-9.716c-0.297-0.846-0.416-1.753-0.713-2.598
		c-0.229-0.679-0.619-1.303-0.891-1.977c-1.511-3.633-2.274-7.418-2.623-11.33c-0.288-3.297-0.017-6.521,0.857-9.678
		c0.84-2.962,1.842-5.885,2.843-8.796c0.942-2.711,2.198-5.245,4.048-7.472c1.086-1.315,1.961-2.851,3.174-4.022
		c3.233-3.102,5.66-7.099,10.057-8.932c1.128-0.462,1.985-1.578,2.979-2.372c2.054-1.659,4.396-2.601,6.891-3.492
		c2.656-0.951,5.253-1.697,8.02-1.43c1.587,0.157,3.31,0.386,4.642,1.163c2.732,1.574,5.474,3.313,7.782,5.448
		c1.137,1.052,2.036,2.321,3.471,3.144c2.223,1.265,4.506,0.968,6.738,0.484c2.139-0.462,4.184-1.29,6.246-2.024
		c0.789-0.28,1.535-0.7,2.273-1.107c3.48-1.981,7.197-3.314,11.109-4.052c1.094-0.212,2.359,0.038,3.436,0.391
		c2.258,0.742,4.549,1.515,6.637,2.622c2.479,1.324,3.021,4.069,4.184,6.398c1.205,2.423,0.307,4.952,0.85,7.375
		c0.229,1.086-1.035,2.054-2.359,2.24c-1.061,0.148-2.164,0.348-3.123,0.79c-1.035,0.454-1.918,1.209-2.852,1.854
		c-5.211,3.624-7.145,9.131-8.529,14.927c-0.449,1.829-0.713,3.704-0.992,5.571c-0.086,0.492-0.018,1.048,0.127,1.54
		c0.84,2.796,1.383,5.749,3.607,7.888c0.949,0.925,1.994,1.803,3.139,2.453c2.131,1.2,4.312,2.35,6.578,3.271
		c0.959,0.381,2.18,0.254,3.258,0.144c1.842-0.19,2.834,0.505,2.852,2.347c0,0.941-0.102,1.956-0.475,2.796
		c-1.562,3.61-3.031,7.294-4.99,10.685c-1.375,2.38-3.42,4.408-5.32,6.445c-1.113,1.188-2.42,2.277-3.846,3.059
		c-2.07,1.15-4.26,2.092-6.492,2.902c-1.348,0.506-2.842,0.594-4.275,0.869C123.609,158.191,123.602,158.113,123.584,158.033z
		 M60.057,123.613c-0.06,0.018-0.128,0.034-0.195,0.043c0.458,2.172,0.925,4.336,1.408,6.504c0.255,1.112,0.518,2.22,0.823,3.318
		c1.069,3.793,2.775,7.303,4.905,10.591c1.332,2.054,2.571,4.146,4.676,5.673c3.216,2.33,6.967,3.398,10.591,4.625
		c3.199,1.096,6.661,2.016,10.124,0.641c1.833-0.729,3.938-0.602,5.601-1.956c2.894-2.358,6.44-2.47,9.963-2.512
		c0.118,0,0.322,0.017,0.39,0.093c1.205,1.583,3.191,0.446,4.668,1.367c0.916,0.59,2.266,0.441,3.344,0.853
		c2.334,0.899,4.838,1.438,7.188,0.979c2.41-0.471,4.881-1.226,7.053-2.686c2.707-1.795,5.117-3.861,6.645-6.733
		c1.553-2.933,2.91-5.974,4.354-8.962c0.373-0.759,0.262-1.298-0.645-1.48c-0.748-0.161-1.502-0.259-2.225-0.463
		c-2.426-0.674-4.965-1.268-6.584-3.339c-2.148-2.745-4.158-5.597-6.119-8.485c-1.723-2.543-2.215-5.538-2.24-8.486
		c-0.035-3.807,1.459-7.303,3.25-10.617c2.35-4.327,4.617-8.74,8.775-11.74c0.152-0.11,0.246-0.289,0.406-0.395
		c1.104-0.751,2.156-1.6,3.336-2.193c0.975-0.492,1.408-1.265,0.891-2.304c-0.213-0.42-0.424-0.857-0.553-1.315
		c-0.559-2.079-1.789-3.602-3.732-4.502c-0.594-0.284-1.266-0.386-1.877-0.657c-2.527-1.121-5.27-1.333-7.85-0.866
		c-3.121,0.573-6.117,1.854-9.172,2.838c-4.846,1.541-9.633,3.318-14.895,2.088c-2.24-0.518-4.269-1.438-5.914-2.902
		c-1.121-0.993-1.816-2.257-3.378-2.979c-2.698-1.243-5.278-2.618-8.342-2.588c-1.061,0.008-2.309-0.344-3.165,0.093
		c-2.309,1.158-4.489,2.588-6.653,4.022c-2.707,1.803-4.931,4.124-6.959,6.645c-3.411,4.222-5.354,9.135-7.018,14.21
		c-0.892,2.732-1.036,5.584-1.104,8.431c-0.034,2.368-0.382,4.735-0.348,7.095C59.539,118.246,59.861,120.928,60.057,123.613z"/>
	<path fill-rule="evenodd" clip-rule="evenodd" fill="#22BCBA" d="M104.702,67.928c0.212-2.673,0.093-5.41,0.729-7.977
		c1.026-4.188,2.444-8.325,4.939-11.902c1.324-1.922,3.047-3.636,4.854-5.117c1.096-0.921,2.691-1.248,4.074-1.808
		c0.568-0.237,1.205-0.314,1.748-0.603c2.02-1.12,4.031-0.356,4.354,1.952c0.492,3.466,1.154,6.997,0.908,10.442
		c-0.23,3.289-0.943,6.611-3.148,9.509c-2.699,3.53-5.789,6.492-9.471,8.894c-1.248,0.819-2.266,1.999-3.522,2.813
		c-0.646,0.424-1.63,0.683-2.359,0.518c-0.543-0.119-1.019-0.967-1.341-1.591c-0.552-1.078-0.984-2.219-1.4-3.361
		C104.863,69.149,104.829,68.556,104.702,67.928z M108.555,64.134c0.297,1.196,0.543,2.308,0.865,3.395
		c0.34,1.18,1.053,1.065,1.799,0.395c0.629-0.59,1.146-1.273,1.766-1.854c2.869-2.673,5.592-5.44,6.484-9.458
		c0.754-3.395,1.535-6.793,2.24-10.205c0.051-0.225-0.637-0.849-0.705-0.802c-1.867,1.001-3.912,1.841-5.508,3.212
		c-2.961,2.521-4.209,6.165-5.465,9.712C109.378,60.375,109.021,62.306,108.555,64.134z"/>
</g>
</svg>
