<?xml version="1.0" encoding="utf-8"?>
<!-- Generator: Adobe Illustrator 16.2.1, SVG Export Plug-In . SVG Version: 6.00 Build 0)  -->
<!DOCTYPE svg PUBLIC "-//W3C//DTD SVG 1.1//EN" "http://www.w3.org/Graphics/SVG/1.1/DTD/svg11.dtd">
<svg version="1.1" id="Layer_1" xmlns="http://www.w3.org/2000/svg" xmlns:xlink="http://www.w3.org/1999/xlink" x="0px" y="0px"
	  viewBox="0 0 33 45" enable-background="new 0 0 33 45" xml:space="preserve">
<g>
	<path fill-rule="evenodd" clip-rule="evenodd" fill="#15757D" d="M18.038,18.582c-0.005,1.986-0.345,3.951,0.242,5.842
		c0.406,1.311,0.925,2.588,1.791,3.732c0.546,0.721,0.759,1.709,1.062,2.596c0.166,0.482,0.164,1.02,0.312,1.51
		c0.254,0.848,0.506,1.656,0.012,2.531c-0.123,0.215,0.031,0.684,0.207,0.934c0.107,0.152,0.512,0.189,0.754,0.141
		c1.035-0.217,1.619-1.057,1.723-2.121c0.072-0.756-0.02-1.529-0.055-2.297c-0.012-0.205-0.039-0.43-0.133-0.611
		c-0.674-1.295-1.354-2.588-2.055-3.869c-0.449-0.818-1.053-1.572-1.373-2.436c-0.355-0.963-0.886-1.92-0.749-3.012
		c0.045-0.361,0.166-0.717,0.277-1.066c0.051-0.162,0.192-0.295,0.239-0.455c0.232-0.77,0.582-1.422,1.43-1.67
		c0.723-0.215,1.422-0.662,2.182-0.115c0.051,0.033,0.15,0.061,0.195,0.035c0.875-0.512,1.529,0.061,2.197,0.463
		c0.787,0.475,0.957,1.178,0.594,2.186c-0.232,0.643-0.922,1.027-1.717,0.863c-0.83-0.172-1.643-0.359-2.465-0.004
		c-0.094,0.039-0.176,0.104-0.297,0.18c-0.057,0.811,0.328,1.486,0.738,2.129c0.373,0.586,0.877,1.094,1.252,1.678
		c0.713,1.115,1.387,2.26,2.059,3.4c0.344,0.582,0.66,1.178,0.963,1.781c0.674,1.348,0.51,2.732,0.098,4.102
		c-0.477,1.596-1.543,2.816-2.75,3.885c-0.438,0.389-1.125,0.559-1.73,0.691c-0.883,0.193-1.793,0.352-2.691,0.361
		c-0.921,0.01-1.696,0.068-2.541,0.639c-1.428,0.963-3.128,1.369-4.866,1.457c-0.802,0.041-1.612,0.068-2.409,0.002
		c-1.072-0.094-2.043-0.543-2.839-1.248c-1.235-1.094-2.128-2.473-2.465-4.078c-0.239-1.15-0.061-2.35,0.284-3.52
		c0.876-2.969,2.642-5.502,3.935-8.266c0.44-0.941,1.061-1.807,1.432-2.77c0.46-1.193,0.566-2.023-0.704-3.043
		c-0.946-0.758-1.779-1.701-2.502-2.68c-0.417-0.562-0.55-1.352-0.736-2.059c-0.05-0.197,0.166-0.463,0.275-0.732
		c0.76,0.635,1.214,1.779,1.166,2.814c0.603,0.049,1.1,0.316,1.567,0.73c0.457,0.406,0.935,0.762,1.185,1.346
		c0.122,0.287,0.28,0.574,0.481,0.811c0.563,0.658,0.56,1.436,0.403,2.184c-0.381,1.816-1.17,3.473-2.145,5.053
		c-0.438,0.709-0.724,1.512-1.17,2.215c-1.006,1.582-1.583,3.338-2.13,5.102c-0.724,2.33,0.247,4.148,1.882,5.734
		c1.201,1.162,2.708,1.252,4.216,1.109c1.139-0.105,2.278-0.375,3.376-0.705c0.75-0.227,1.445-0.66,2.135-1.053
		c0.387-0.221,0.725-0.242,1.174-0.215c0.967,0.055,1.945-0.064,2.914-0.148c1.838-0.162,3.051-1.41,3.791-2.834
		c1.029-1.979,1.266-4.127-0.271-6.133c-0.52-0.678-0.814-1.523-1.23-2.283c-0.148-0.271-0.303-0.574-0.537-0.764
		c-1.371-1.104-2.049-2.629-2.533-4.24c-0.297-0.988,0.148-1.637,1.172-1.84c0.502-0.1,1.037-0.059,1.557-0.041
		c0.344,0.012,0.689,0.086,1.027,0.16c0.344,0.072,0.635,0.057,0.789-0.311c0.146-0.352-0.07-0.879-0.434-1.09
		c-0.961-0.557-2.955-0.398-3.863,0.305c-0.877,0.68-1.066,1.643-0.842,2.752c0.355,1.754,1.455,3.061,2.369,4.5
		c1.381,2.178,2.434,4.49,2.154,7.176c-0.25,2.402-2.623,3.545-4.725,2.99c-0.244-0.066-0.556-0.414-0.585-0.662
		c-0.094-0.793-0.472-1.549-0.035-2.42c0.259-0.51,0.204-1.26,0.075-1.857c-0.285-1.326-0.604-2.676-1.443-3.787
		c-0.914-1.215-1.249-2.652-1.678-4.053c-0.216-0.703-0.459-1.402-0.164-2.211c0.14-0.387,0.082-0.791,0.545-1.004
		c0.124-0.059,0.173-0.275,0.313-0.523c-0.68-0.062-0.793-0.441-0.756-0.998c0.073-1.072,0.607-1.857,1.443-2.43
		c1.397-0.957,2.04-2.293,2.253-3.936c0.258-2,0.348-4.002,0.383-6.012c0.012-0.791,0.033-1.58,0.053-2.432
		c-0.705-0.035-0.961,0.689-1.459,1c-0.51,0.322-0.853,0.9-1.309,1.326c-0.452,0.422-0.955,0.791-1.424,1.174
		c-0.649-0.383-0.445-0.801-0.125-1.156c0.416-0.463,0.888-0.875,1.396-1.367c0.121,0.055,0.306,0.135,0.521,0.23
		c0.022-0.082,0.063-0.17,0.064-0.258c0.003-0.205-0.059-0.42-0.012-0.611c0.063-0.258,0.301-0.279,0.584-0.158
		c0.279-0.369,0.521-0.705,0.781-1.027c0.197-0.246,0.4-0.488,0.625-0.707c0.408-0.404,1.111-0.213,1.072,0.344
		c-0.068,0.969,0.486,1.996-0.277,2.932c-0.193,0.236-0.424,0.811,0.291,0.967c0.105,0.021,0.254,0.375,0.201,0.498
		c-0.203,0.49-0.084,0.947-0.012,1.434c0.061,0.398,0.113,0.848-0.359,1.121c-0.102,0.059-0.184,0.295-0.152,0.416
		c0.467,1.809-0.111,3.49-0.592,5.184c-0.799,0.359-0.732,1.418-1.473,1.822C19.008,18.064,18.574,18.293,18.038,18.582z"/>
	<path fill-rule="evenodd" clip-rule="evenodd" fill="#15757D" d="M7.736,3.357c0.683,0.41,1.169,0.645,1.586,0.969
		c0.701,0.545,1.416,1.066,1.904,1.859c0.47,0.76,1.13,1.25,2.147,1.148c0.852-0.082,1.721,0.008,2.764,0.025
		c-0.177,0.244-0.277,0.527-0.404,0.539c-1.024,0.092-2.024,0.25-3.004,0.594c-0.228,0.078-0.646-0.096-0.852-0.287
		c-0.78-0.729-1.533-1.49-2.002-2.479C9.779,5.52,9.595,5.232,9.422,5.209C8.84,5.135,8.565,4.744,8.314,4.143
		C7.825,5.082,7.386,5.842,7.422,6.801C7.438,7.24,7.274,7.688,7.184,8.129c-0.186,0.895,0.176,1.715,0.331,2.566
		c0.065,0.361,0.085,0.732,0.127,1.107c-0.713,0.268-0.981-0.184-1.117-0.576c-0.153-0.451-0.23-0.98-0.153-1.445
		c0.271-1.66,0.377-3.359,1.098-4.926C7.634,4.498,7.618,4.057,7.736,3.357z"/>
	<path fill-rule="evenodd" clip-rule="evenodd" fill="#15757D" d="M6.768,12.297c0.146,0.16,0.294,0.322,0.448,0.49
		c0.101-0.105,0.213-0.223,0.345-0.359c0.06,0.107,0.152,0.195,0.148,0.277c-0.013,0.314-0.159,0.561-0.508,0.51
		C6.699,13.141,6.739,12.717,6.768,12.297z"/>
</g>
</svg>
