<?xml version="1.0" encoding="utf-8"?>
<!-- Generator: Adobe Illustrator 16.2.1, SVG Export Plug-In . SVG Version: 6.00 Build 0)  -->
<!DOCTYPE svg PUBLIC "-//W3C//DTD SVG 1.1//EN" "http://www.w3.org/Graphics/SVG/1.1/DTD/svg11.dtd">
<svg version="1.1" id="Layer_1" xmlns="http://www.w3.org/2000/svg" xmlns:xlink="http://www.w3.org/1999/xlink" x="0px" y="0px"
	  viewBox="0 0 43 36" enable-background="new 0 0 43 36" xml:space="preserve">
<g>
	<path fill-rule="evenodd" clip-rule="evenodd" fill="#15757D" d="M14.012,11.182c0.178,0,0.358-0.008,0.536,0.003
		c0.153,0.01,0.312,0.022,0.46,0.065c0.321,0.099,0.649,0.165,0.985,0.188c0.202,0.017,0.389,0.075,0.572,0.169
		c0.338,0.171,0.687,0.322,1.029,0.487c0.405,0.195,0.775,0.442,1.111,0.74c0.416,0.373,0.844,0.734,1.252,1.115
		c0.441,0.412,0.938,0.48,1.488,0.286c0.178-0.062,0.311-0.181,0.383-0.355c0.076-0.185,0.154-0.37,0.219-0.559
		c0.049-0.148,0.074-0.3,0.078-0.459c0.016-0.493,0.094-0.977,0.203-1.457c0.006-0.021,0.004-0.046,0.012-0.065
		c0.153-0.396,0.22-0.816,0.345-1.221c0.1-0.318,0.199-0.638,0.285-0.962c0.137-0.52,0.359-1.008,0.561-1.504
		c0.117-0.287,0.273-0.562,0.443-0.821c0.184-0.281,0.375-0.555,0.521-0.858c0.027-0.059,0.074-0.111,0.119-0.159
		c0.359-0.404,0.77-0.748,1.25-0.996c0.258-0.132,0.533-0.23,0.803-0.336c0.355-0.142,0.723-0.233,1.111-0.207
		c0.064,0.006,0.137,0.013,0.199-0.005c0.535-0.153,1.064-0.025,1.594,0.034c0.152,0.018,0.312,0.06,0.447,0.131
		c0.512,0.271,1.047,0.509,1.459,0.936c0.127,0.131,0.277,0.22,0.443,0.29c0.717,0.312,1.414,0.667,2.137,0.969
		c0.336,0.14,0.676,0.22,1.039,0.226c0.445,0.006,0.896,0.019,1.33-0.106c0.516-0.147,0.912-0.459,1.191-0.916
		c0.047-0.073,0.078-0.162,0.092-0.248c0.051-0.353,0.146-0.703,0.049-1.062c-0.01-0.04,0.008-0.087,0.014-0.132
		c0.008-0.07,0.143-0.132,0.215-0.103c0.09,0.032,0.154,0.093,0.186,0.181c0.121,0.337,0.203,0.685,0.195,1.046
		c-0.002,0.11-0.008,0.229-0.049,0.33c-0.229,0.571-0.58,1.05-1.111,1.383c-0.055,0.034-0.121,0.06-0.182,0.077
		c-0.477,0.131-0.949,0.239-1.451,0.233c-0.68-0.004-1.328-0.159-1.975-0.337c-0.105-0.029-0.205-0.088-0.309-0.132
		c-0.551-0.241-1.064-0.56-1.613-0.812c-0.402-0.185-0.781-0.437-1.137-0.702c-0.682-0.506-1.445-0.687-2.271-0.632
		c-0.355,0.021-0.711,0.08-1.061,0.149c-0.463,0.092-0.883,0.307-1.305,0.512c-0.098,0.049-0.189,0.122-0.266,0.201
		C25.063,6.384,24.52,7.002,24.227,7.8c-0.029,0.083-0.066,0.167-0.113,0.241C23.842,8.488,23.7,8.978,23.6,9.485
		c-0.018,0.087-0.023,0.183-0.062,0.26c-0.225,0.44-0.299,0.935-0.502,1.384c-0.123,0.265-0.178,0.547-0.188,0.844
		c-0.012,0.29-0.062,0.577-0.098,0.865s-0.061,0.578-0.012,0.867c0.014,0.086,0.047,0.171,0.088,0.249
		c0.08,0.16,0.361,0.168,0.453,0.02c0.025-0.037,0.053-0.071,0.07-0.112c0.025-0.062,0.051-0.126,0.062-0.191
		c0.146-0.905,0.492-1.762,0.65-2.666c0.094-0.551,0.275-1.076,0.531-1.578c0.182-0.358,0.355-0.719,0.484-1.102
		c0.146-0.429,0.436-0.775,0.709-1.128c0.066-0.083,0.17-0.146,0.271-0.191c0.262-0.12,0.531-0.23,0.803-0.333
		c0.104-0.038,0.217-0.048,0.326-0.069c0.131-0.026,0.268-0.036,0.393-0.079c0.287-0.099,0.572-0.079,0.859-0.008
		c0.086,0.022,0.17,0.056,0.258,0.066c0.701,0.087,1.326,0.373,1.934,0.716c0.273,0.152,0.562,0.269,0.852,0.391
		c0.596,0.252,1.213,0.45,1.797,0.735c0.814,0.397,1.699,0.53,2.598,0.586c0.178,0.01,0.357-0.006,0.535-0.022
		c0.361-0.036,0.701-0.136,1-0.353c0.107-0.077,0.223-0.146,0.338-0.216c0.521-0.316,0.881-0.766,1.012-1.357
		c0.088-0.395,0.223-0.771,0.348-1.152c0.105-0.317,0.15-0.653,0.291-0.96c0.02-0.04,0.039-0.08,0.064-0.116
		c0.012-0.016,0.039-0.029,0.057-0.028c0.039,0.006,0.1,0.012,0.113,0.038c0.041,0.074,0.092,0.16,0.094,0.242
		c0.012,0.649-0.012,1.295-0.246,1.912c-0.057,0.146-0.105,0.298-0.125,0.45c-0.029,0.207-0.125,0.376-0.227,0.551
		c-0.295,0.523-0.746,0.883-1.223,1.22c-0.072,0.051-0.154,0.097-0.238,0.115c-0.521,0.113-1.021,0.335-1.57,0.316
		c-0.688,0.163-1.375,0.105-2.062,0.008c-0.246-0.034-0.48-0.086-0.707-0.195c-0.158-0.076-0.334-0.134-0.508-0.16
		c-0.338-0.05-0.641-0.186-0.943-0.328c-0.201-0.095-0.404-0.198-0.619-0.248c-0.287-0.068-0.553-0.17-0.812-0.305
		c-0.178-0.093-0.371-0.155-0.557-0.226c-0.125-0.049-0.26-0.075-0.379-0.135c-0.555-0.274-1.156-0.33-1.758-0.38
		c-0.129-0.011-0.271-0.003-0.396,0.034c-0.432,0.122-0.848,0.283-1.182,0.601c-0.262,0.246-0.512,0.503-0.721,0.793
		C25.258,9.38,25.112,9.673,25.006,10c-0.178,0.554-0.279,1.126-0.434,1.686c-0.1,0.364-0.164,0.739-0.293,1.099
		c-0.113,0.316-0.143,0.653-0.123,0.99c0.016,0.248,0.168,0.42,0.404,0.469c0.043,0.008,0.088,0.017,0.131,0.022
		c0.045,0.005,0.094-0.002,0.135,0.013c0.312,0.107,0.615,0.044,0.912-0.062c0.215-0.075,0.414-0.176,0.553-0.362
		c0.137-0.185,0.322-0.304,0.504-0.433c0.459-0.321,0.893-0.674,1.254-1.104c0.135-0.16,0.293-0.263,0.5-0.309
		c0.174-0.039,0.35-0.098,0.506-0.181c0.244-0.132,0.502-0.185,0.773-0.182c0.758,0.008,1.518,0.016,2.252,0.258
		c0.254,0.083,0.52,0.132,0.781,0.193c0.59,0.14,1.152,0.354,1.699,0.61c0.182,0.086,0.371,0.155,0.547,0.252
		c0.254,0.139,0.506,0.286,0.746,0.445c0.264,0.175,0.469,0.41,0.625,0.689c0.273,0.488,0.51,0.986,0.654,1.534
		c0.145,0.544,0.199,1.097,0.283,1.647c0.016,0.108,0.002,0.223-0.012,0.332c-0.066,0.564,0.012,1.113,0.154,1.657
		c0.066,0.239,0.131,0.475,0.193,0.712c0.068,0.258,0.131,0.515,0.146,0.786c0.02,0.358,0.152,0.698,0.311,1.019
		c0.102,0.204,0.186,0.406,0.225,0.628c0.012,0.065,0.049,0.127,0.059,0.191c0.068,0.396,0.287,0.744,0.316,1.159
		c0.027,0.374,0.141,0.743,0.219,1.113c0.051,0.241,0.096,0.484,0.168,0.717c0.221,0.692,0.213,1.411,0.268,2.121
		c0.01,0.129-0.023,0.268-0.057,0.395c-0.092,0.321-0.195,0.641-0.25,0.974c-0.023,0.149-0.1,0.293-0.166,0.434
		c-0.076,0.163-0.178,0.312-0.246,0.477c-0.115,0.271-0.246,0.521-0.506,0.688c-0.092,0.059-0.156,0.158-0.229,0.243
		c-0.357,0.423-0.82,0.677-1.348,0.829c-0.219,0.065-0.439,0.068-0.66,0.007c-0.084-0.023-0.166-0.073-0.254-0.084
		c-0.617-0.072-1.133-0.392-1.65-0.701c-0.518-0.308-1.033-0.623-1.461-1.057c-0.094-0.093-0.211-0.171-0.328-0.23
		c-0.324-0.161-0.613-0.364-0.863-0.625c-0.139-0.147-0.303-0.264-0.479-0.364c-0.451-0.254-0.838-0.582-1.199-0.957
		c-0.449-0.466-0.902-0.928-1.301-1.441c-0.08-0.104-0.193-0.184-0.289-0.274c-0.115-0.106-0.236-0.205-0.34-0.321
		c-0.365-0.412-0.814-0.691-1.326-0.881c-0.188-0.069-0.371-0.148-0.555-0.23c-0.326-0.147-0.662-0.255-1.016-0.336
		c-0.635-0.145-1.273-0.231-1.926-0.212c-0.178,0.006-0.357,0.013-0.531,0.044c-0.288,0.05-0.573,0.067-0.866,0.023
		c-0.131-0.019-0.266-0.021-0.4-0.023c-0.535-0.007-1.07-0.004-1.605-0.017c-0.268-0.004-0.537-0.021-0.801-0.057
		c-0.404-0.057-0.799-0.062-1.19,0.082c-0.188,0.069-0.384,0.115-0.581,0.161c-0.254,0.06-0.438,0.212-0.588,0.416
		c-0.053,0.07-0.1,0.146-0.15,0.222c-0.164,0.241-0.356,0.458-0.576,0.65c-0.335,0.296-0.639,0.621-0.929,0.963
		c-0.231,0.271-0.509,0.501-0.775,0.738c-0.316,0.281-0.656,0.538-0.964,0.828c-0.411,0.384-0.88,0.685-1.345,0.994
		c-0.073,0.052-0.158,0.088-0.224,0.148c-0.182,0.164-0.349,0.34-0.572,0.458c-0.591,0.313-1.167,0.657-1.792,0.901
		c-0.104,0.042-0.208,0.086-0.316,0.109c-0.741,0.161-1.484,0.318-2.227,0.475c-0.563,0.122-1.112,0.013-1.656-0.113
		c-0.125-0.028-0.248-0.108-0.346-0.196c-0.301-0.266-0.589-0.546-0.882-0.823c-0.115-0.111-0.192-0.244-0.221-0.404
		c-0.07-0.394-0.205-0.781-0.125-1.191c0.01-0.042,0.007-0.089-0.001-0.132c-0.037-0.198-0.1-0.389-0.079-0.595
		c0.063-0.644,0.037-1.296,0.175-1.933c0.085-0.391,0.169-0.783,0.319-1.159c0.083-0.207,0.133-0.426,0.218-0.633
		c0.117-0.289,0.239-0.577,0.384-0.854c0.245-0.474,0.472-0.96,0.759-1.414c0.262-0.414,0.516-0.837,0.65-1.318
		c0.036-0.126,0.122-0.237,0.194-0.35c0.418-0.664,0.762-1.363,1.025-2.103c0.021-0.062,0.029-0.136,0.065-0.188
		c0.232-0.339,0.321-0.735,0.452-1.114c0.103-0.296,0.213-0.585,0.361-0.862c0.084-0.156,0.136-0.329,0.203-0.494
		c0.371-0.92,0.842-1.774,1.592-2.447c0.268-0.24,0.538-0.469,0.866-0.623c0.12-0.058,0.229-0.137,0.344-0.208
		c0.535-0.335,1.114-0.572,1.733-0.685c0.46-0.084,0.929-0.114,1.395-0.167C14.009,11.161,14.012,11.172,14.012,11.182z
		 M4.151,27.695c-0.05,0.283,0.036,0.586,0.164,0.871c0.107,0.246,0.261,0.469,0.384,0.706c0.151,0.29,0.389,0.483,0.669,0.636
		c0.318,0.173,0.651,0.292,1.021,0.285c0.224-0.004,0.447,0.007,0.67-0.009c0.433-0.034,0.823-0.176,1.168-0.453
		c0.401-0.321,0.84-0.592,1.312-0.803c0.533-0.238,1.007-0.574,1.479-0.916c0.18-0.131,0.363-0.259,0.558-0.367
		c0.783-0.438,1.476-1.001,2.166-1.567c0.138-0.112,0.247-0.258,0.369-0.389c0.211-0.229,0.412-0.47,0.635-0.689
		c0.318-0.312,0.652-0.608,0.982-0.909c0.285-0.262,0.518-0.554,0.603-0.943c0.02-0.095,0.099-0.157,0.191-0.164
		c0.2-0.017,0.396-0.042,0.594-0.09c0.226-0.055,0.427,0.101,0.646,0.135c0.153,0.023,0.312,0.043,0.466,0.05
		c0.246,0.01,0.492,0.015,0.738,0.008c0.402-0.011,0.803-0.008,1.203,0.04c0.221,0.025,0.447,0,0.668-0.007
		c0.248-0.008,0.488-0.004,0.734,0.035c0.24,0.037,0.49,0.031,0.734,0.022c0.468-0.02,0.935-0.056,1.401-0.079
		c0.156-0.009,0.316-0.013,0.469,0.009c0.686,0.105,1.367,0.217,2.033,0.421c0.367,0.113,0.721,0.274,1.002,0.527
		c0.43,0.387,0.881,0.753,1.309,1.144c0.592,0.549,1.217,1.051,1.889,1.494c0.34,0.223,0.645,0.48,0.914,0.781
		c0.105,0.116,0.211,0.231,0.326,0.336c0.67,0.596,1.4,1.108,2.154,1.59c0.057,0.035,0.115,0.069,0.178,0.09
		c0.301,0.096,0.588,0.207,0.834,0.415c0.08,0.069,0.199,0.094,0.305,0.133c0.188,0.07,0.387,0.118,0.564,0.208
		c0.369,0.182,0.742,0.113,1.117,0.062c0.043-0.007,0.088-0.025,0.123-0.049c0.186-0.125,0.393-0.229,0.547-0.383
		c0.438-0.438,0.729-0.963,0.781-1.594c0.031-0.377,0.072-0.755,0.16-1.126c0.08-0.332,0.059-0.665,0.004-0.996
		c-0.02-0.111-0.053-0.218-0.072-0.329c-0.057-0.307-0.139-0.611-0.158-0.922c-0.037-0.539-0.199-1.053-0.262-1.584
		c-0.008-0.067-0.025-0.135-0.057-0.194c-0.211-0.421-0.387-0.853-0.459-1.322c-0.207-0.324-0.25-0.715-0.418-1.056
		c-0.066-0.14-0.125-0.288-0.158-0.439c-0.131-0.59-0.23-1.181-0.24-1.791c-0.012-0.758-0.043-1.518-0.137-2.271
		c-0.018-0.155-0.021-0.32-0.08-0.459c-0.166-0.392-0.352-0.773-0.537-1.154c-0.15-0.309-0.361-0.562-0.693-0.692
		c-0.062-0.023-0.117-0.068-0.174-0.103c-0.574-0.351-1.189-0.609-1.854-0.748c-0.109-0.023-0.215-0.056-0.32-0.089
		c-0.779-0.248-1.58-0.299-2.389-0.265c-0.703,0.03-1.361,0.233-1.953,0.626c-0.223,0.146-0.422,0.341-0.658,0.459
		c-0.445,0.222-0.811,0.549-1.184,0.862c-0.289,0.243-0.602,0.361-0.971,0.402c-0.58,0.068-1.162,0.039-1.738,0
		c-1.117-0.073-2.231-0.11-3.347-0.021c-0.457,0.036-0.818-0.073-1.129-0.435c-0.35-0.407-0.768-0.747-1.26-0.983
		c-0.324-0.156-0.621-0.354-0.912-0.562c-0.24-0.172-0.51-0.278-0.789-0.354c-0.323-0.088-0.65-0.16-0.975-0.241
		c-0.393-0.099-0.783-0.189-1.192-0.154c-0.065,0.007-0.135-0.001-0.2-0.014c-0.354-0.069-0.709-0.033-1.066-0.002
		c-0.776,0.071-1.468,0.361-2.099,0.808c-0.073,0.053-0.145,0.108-0.207,0.171c-0.381,0.377-0.737,0.776-1.063,1.202
		c-0.191,0.253-0.322,0.534-0.358,0.854c-0.026,0.223-0.047,0.444-0.086,0.663c-0.037,0.221-0.083,0.438-0.148,0.652
		c-0.064,0.214-0.182,0.412-0.231,0.627c-0.09,0.383-0.29,0.702-0.538,0.99c-0.379,0.445-0.674,0.943-0.979,1.438
		c-0.105,0.172-0.218,0.335-0.338,0.496c-0.336,0.446-0.608,0.935-0.897,1.411c-0.012,0.02-0.021,0.038-0.029,0.06
		c-0.227,0.559-0.462,1.112-0.719,1.657c-0.057,0.121-0.085,0.254-0.125,0.382c-0.049,0.148-0.092,0.3-0.146,0.445
		c-0.211,0.562-0.428,1.126-0.64,1.689c-0.017,0.041-0.029,0.084-0.038,0.129C4.283,26.549,4.162,27.094,4.151,27.695z"/>
	<path fill-rule="evenodd" clip-rule="evenodd" fill="#15757D" d="M9.948,18.483c0.013-0.268,0.023-0.535,0.039-0.802
		c0.014-0.238,0.127-0.424,0.314-0.565c0.284-0.218,0.594-0.396,0.95-0.468c0.222-0.046,0.425-0.132,0.613-0.255
		c0.139-0.091,0.225-0.218,0.243-0.382c0.014-0.132,0.011-0.267,0.015-0.399c0.003-0.201,0.007-0.402,0.01-0.603
		c0.004-0.199,0.108-0.344,0.276-0.427c0.238-0.121,0.481-0.238,0.735-0.317c0.274-0.088,0.562-0.138,0.848-0.19
		c0.309-0.06,0.576,0.123,0.643,0.433c0.021,0.11,0.033,0.223,0.034,0.333c0.005,0.365,0.14,0.696,0.282,1.022
		c0.115,0.26,0.375,0.384,0.666,0.329c0.154-0.028,0.303-0.082,0.455-0.111c0.23-0.047,0.471,0.102,0.511,0.324
		c0.043,0.24,0.082,0.486,0.092,0.73c0.01,0.292,0.044,0.576,0.147,0.852c0.023,0.061,0.029,0.13,0.037,0.196
		c0.018,0.153-0.088,0.322-0.236,0.365c-0.127,0.036-0.258,0.068-0.39,0.09c-0.132,0.022-0.267,0.021-0.396,0.049
		c-0.363,0.073-0.638,0.372-0.666,0.745c-0.021,0.288-0.014,0.58-0.017,0.868c0,0.068,0.02,0.133,0.022,0.201
		c0.009,0.359-0.077,0.495-0.411,0.591c-0.601,0.168-1.2,0.347-1.824,0.41c-0.089,0.01-0.179,0.019-0.268,0.012
		c-0.139-0.009-0.259-0.064-0.341-0.182c-0.168-0.244-0.287-0.5-0.239-0.812c0.055-0.34-0.033-0.666-0.124-0.989
		c-0.052-0.183-0.276-0.336-0.467-0.303c-0.176,0.032-0.348,0.081-0.519,0.132c-0.169,0.053-0.334,0.124-0.504,0.178
		c-0.229,0.071-0.463-0.083-0.492-0.32c-0.008-0.066-0.011-0.133-0.014-0.2c-0.001-0.045-0.001-0.09-0.001-0.133
		c0-0.135,0-0.269,0-0.402C9.965,18.483,9.957,18.483,9.948,18.483z M13.059,19.377c0,0.179-0.007,0.357,0.001,0.535
		c0.008,0.16,0.069,0.303,0.175,0.425c0.12,0.139,0.319,0.207,0.484,0.145c0.186-0.069,0.372-0.148,0.554-0.232
		c0.108-0.05,0.168-0.15,0.189-0.262c0.071-0.372,0.15-0.743,0.067-1.128c-0.019-0.085-0.017-0.178-0.007-0.265
		c0.026-0.24,0.146-0.428,0.379-0.507c0.145-0.05,0.302-0.066,0.455-0.089c0.176-0.025,0.354-0.034,0.529-0.066
		c0.137-0.023,0.244-0.112,0.319-0.226c0.034-0.052,0.062-0.131,0.048-0.188c-0.117-0.539-0.402-0.769-0.969-0.561
		c-0.082,0.031-0.156,0.087-0.234,0.127c-0.061,0.029-0.121,0.058-0.186,0.077c-0.182,0.052-0.483-0.048-0.525-0.29
		c-0.027-0.154-0.035-0.311-0.06-0.465c-0.042-0.264-0.079-0.528-0.135-0.791c-0.033-0.158-0.133-0.281-0.283-0.354
		c-0.341-0.167-0.82-0.095-0.988,0.376c-0.046,0.124-0.068,0.259-0.082,0.391c-0.017,0.155-0.009,0.313-0.025,0.468
		c-0.012,0.109-0.04,0.219-0.074,0.323c-0.039,0.11-0.121,0.187-0.24,0.206c-0.308,0.053-0.619,0.095-0.924,0.154
		c-0.313,0.062-0.588,0.204-0.809,0.441c-0.109,0.119-0.174,0.258-0.198,0.416c-0.045,0.278,0.234,0.544,0.499,0.463
		c0.148-0.044,0.288-0.118,0.435-0.17c0.083-0.032,0.17-0.065,0.256-0.067c0.267-0.004,0.534-0.001,0.801,0.013
		c0.283,0.016,0.515,0.225,0.542,0.502C13.075,18.976,13.059,19.179,13.059,19.377z"/>
	<path fill-rule="evenodd" clip-rule="evenodd" fill="#15757D" d="M32.516,18.258c-0.545,0.04-0.945-0.216-1.246-0.637
		c-0.152-0.215-0.279-0.451-0.367-0.708c-0.146-0.419-0.105-0.833,0-1.248c0.055-0.218,0.184-0.415,0.352-0.558
		c0.402-0.349,0.854-0.528,1.412-0.406c0.496,0.105,0.904,0.361,1.299,0.65c0.223,0.163,0.34,0.402,0.381,0.68
		c0.041,0.269,0.023,0.538-0.039,0.795s-0.172,0.505-0.279,0.747c-0.043,0.098-0.127,0.184-0.211,0.254
		c-0.26,0.223-0.562,0.358-0.902,0.402C32.784,18.248,32.649,18.249,32.516,18.258z M32.711,17.174c0.32,0,0.518-0.054,0.697-0.175
		c0.18-0.12,0.258-0.313,0.201-0.522c-0.037-0.128-0.08-0.257-0.139-0.376c-0.09-0.186-0.236-0.322-0.432-0.398
		c-0.104-0.04-0.211-0.072-0.318-0.101c-0.359-0.096-0.656,0.014-0.912,0.275c-0.18,0.185-0.207,0.447-0.061,0.67
		c0.049,0.075,0.104,0.147,0.156,0.218C32.122,17.055,32.413,17.188,32.711,17.174z"/>
	<path fill-rule="evenodd" clip-rule="evenodd" fill="#15757D" d="M27.444,20.347c0.031-0.215,0.068-0.525,0.123-0.834
		c0.045-0.271,0.193-0.498,0.396-0.681c0.15-0.139,0.326-0.228,0.535-0.25c0.221-0.022,0.441-0.056,0.662-0.09
		c0.324-0.053,0.598,0.037,0.881,0.215c0.541,0.337,0.775,0.853,0.91,1.425c0.09,0.388-0.049,0.753-0.312,1.053
		c-0.256,0.293-0.586,0.476-0.959,0.584c-0.084,0.023-0.178,0.051-0.262,0.041c-0.42-0.043-0.842-0.053-1.248-0.212
		C27.706,21.416,27.407,20.998,27.444,20.347z M29.182,20.977c0.123-0.016,0.277-0.031,0.432-0.053
		c0.141-0.021,0.24-0.105,0.318-0.221c0.184-0.268,0.189-0.584,0.234-0.89c0.006-0.04-0.012-0.088-0.031-0.127
		c-0.049-0.099-0.098-0.2-0.162-0.29c-0.129-0.181-0.309-0.243-0.525-0.207c-0.594,0.103-1.002,0.448-1.27,0.976
		c-0.07,0.137-0.012,0.383,0.115,0.484C28.543,20.85,28.829,20.958,29.182,20.977z"/>
</g>
</svg>
