<?xml version="1.0" encoding="utf-8"?>
<!-- Generator: Adobe Illustrator 16.2.1, SVG Export Plug-In . SVG Version: 6.00 Build 0)  -->
<!DOCTYPE svg PUBLIC "-//W3C//DTD SVG 1.1//EN" "http://www.w3.org/Graphics/SVG/1.1/DTD/svg11.dtd">
<svg version="1.1" id="Layer_1" xmlns="http://www.w3.org/2000/svg" xmlns:xlink="http://www.w3.org/1999/xlink" x="0px" y="0px"
	  viewBox="0 0 33 45" enable-background="new 0 0 33 45" xml:space="preserve">
<g>
	<path fill-rule="evenodd" clip-rule="evenodd" fill="#15757D" d="M17.265,9.672c0.008,0.156,0,0.316,0.025,0.47
		c0.148,0.927-0.065,1.812-0.296,2.694c-0.048,0.182-0.142,0.354-0.174,0.538c-0.115,0.702-0.461,1.288-0.857,1.863
		c-0.268,0.387-0.523,0.776-0.844,1.127c-0.252,0.276-0.445,0.606-0.65,0.923c-0.177,0.274-0.251,0.575-0.142,0.898
		c0.135,0.397,0.13,0.791,0.072,1.206c-0.048,0.335,0.003,0.688,0.037,1.029c0.078,0.786,0.096,1.564-0.154,2.329
		c-0.117,0.361-0.183,0.729-0.146,1.113c0.016,0.156,0.031,0.32,0,0.468c-0.141,0.686-0.068,1.379-0.116,2.068
		c-0.033,0.471-0.014,0.941,0.04,1.412c0.035,0.309,0.032,0.627,0.022,0.938c-0.028,0.783-0.066,1.566-0.066,2.35
		c0.002,0.688-0.076,1.377-0.096,2.066c-0.026,0.938,0.014,1.879-0.164,2.809c0.051,0.756-0.062,1.506-0.09,2.258
		c-0.007,0.217-0.045,0.438-0.102,0.646c-0.137,0.502-0.412,0.914-0.848,1.211c-0.181,0.121-0.364,0.242-0.55,0.359
		c-0.411,0.258-0.836,0.414-1.338,0.268c-0.237-0.068-0.498-0.062-0.748-0.092c-0.093-0.01-0.188-0.014-0.28-0.033
		c-0.634-0.143-1.077-0.492-1.243-1.143c-0.116-0.455-0.243-0.91-0.346-1.369c-0.09-0.398-0.121-0.805-0.013-1.211
		c0.042-0.15,0.092-0.312,0.078-0.461c-0.062-0.697,0.092-1.373,0.157-2.057c0.062-0.654,0.051-1.318,0.03-1.979
		c-0.021-0.695,0.053-1.377,0.216-2.053c0.067-0.277,0.12-0.551,0.079-0.838c-0.012-0.092-0.012-0.188-0.007-0.281
		c0.053-1.16,0.109-2.322,0.164-3.48c0.009-0.188,0.027-0.377,0.018-0.564c-0.015-0.283-0.022-0.559,0.055-0.84
		c0.173-0.645,0.144-1.305,0.097-1.964c-0.012-0.188-0.061-0.382-0.027-0.562c0.117-0.634-0.014-1.253-0.088-1.874
		c-0.016-0.125-0.051-0.249-0.053-0.373c-0.01-0.723-0.322-1.339-0.701-1.919c-0.326-0.498-0.568-1.05-0.974-1.498
		c-0.079-0.089-0.121-0.218-0.165-0.334c-0.19-0.498-0.381-0.998-0.561-1.5c-0.16-0.443-0.303-0.894-0.283-1.376
		c0.005-0.093-0.009-0.188-0.026-0.281c-0.146-0.741-0.178-1.494-0.235-2.246C5.927,9.766,5.827,9.144,5.718,8.528
		C5.651,8.146,5.683,7.776,5.727,7.403c0.037-0.32,0.624-1.525,0.854-1.768c0.371-0.387,0.831-0.559,1.364-0.477
		c0.147,0.023,0.296,0.104,0.418,0.192C8.626,5.539,8.812,5.8,8.916,6.1c0.219,0.623,0.396,1.257,0.512,1.907
		c0.05,0.284,0.001,0.563-0.002,0.845C9.421,9.234,9.472,9.607,9.749,9.905c0.038,0.041,0.096,0.069,0.148,0.092
		c0.021,0.009,0.077-0.014,0.084-0.031c0.038-0.118,0.11-0.246,0.091-0.357c-0.115-0.654-0.008-1.313-0.055-1.971
		c-0.065-0.943,0.267-1.788,0.82-2.543c0.233-0.317,0.691-0.377,1.008-0.126c0.27,0.215,0.515,0.454,0.726,0.734
		c0.32,0.426,0.666,0.832,1.005,1.244c0.038,0.047,0.097,0.08,0.146,0.119c0.084,0.067,0.26,0.057,0.35-0.021
		c0.2-0.175,0.32-0.386,0.3-0.659c-0.011-0.155-0.047-0.312-0.041-0.468c0.015-0.36,0.478-0.587,0.776-0.381
		c0.791,0.546,1.423,1.241,1.815,2.117c0.231,0.514,0.331,1.074,0.359,1.64c0.007,0.127,0.002,0.253,0.002,0.378
		C17.277,9.672,17.271,9.672,17.265,9.672z M8.117,9.3c0.014,0,0.025,0,0.037,0c0-0.472,0.011-0.943-0.004-1.415
		C8.143,7.669,8.099,7.45,8.039,7.241C8.007,7.126,7.909,7.03,7.832,6.932C7.755,6.836,7.584,6.827,7.491,6.889
		C7.092,7.168,6.94,7.577,6.943,8.033c0.003,0.627,0.061,1.25,0.289,1.851c0.301,0.793,0.501,1.615,0.59,2.465
		c0.026,0.248,0.067,0.498,0.124,0.74c0.129,0.553,0.221,1.108,0.281,1.67c0.024,0.217,0.04,0.455,0.141,0.64
		c0.27,0.494,0.44,1.045,0.828,1.474c0.104,0.115,0.185,0.254,0.281,0.376c0.326,0.407,0.468,0.871,0.508,1.391
		c0.064,0.845,0.175,1.686,0.267,2.529c0.062,0.562,0.134,1.129,0.022,1.689c-0.117,0.594-0.111,1.184-0.083,1.782
		c0.039,0.816,0.026,1.631-0.033,2.445c-0.04,0.531-0.093,1.062-0.142,1.594C10,28.867,9.995,29.059,9.952,29.24
		c-0.201,0.861-0.225,1.738-0.247,2.617c-0.008,0.312-0.022,0.627-0.045,0.939c-0.05,0.689-0.104,1.377-0.156,2.066
		c-0.007,0.092-0.016,0.189,0.001,0.281c0.062,0.346-0.003,0.686-0.019,1.029c-0.029,0.66-0.068,1.318-0.118,1.977
		c-0.046,0.602,0.337,1.029,0.929,1.088c0.586,0.061,1.123-0.096,1.618-0.398c0.216-0.129,0.384-0.322,0.48-0.564
		c0.093-0.236,0.166-0.471,0.166-0.73c-0.003-0.723,0.016-1.443,0.014-2.164c-0.001-0.379-0.033-0.754-0.038-1.131
		c-0.008-0.533-0.062-1.076,0.015-1.598c0.105-0.719,0.104-1.439,0.102-2.158c-0.001-0.912,0.029-1.822,0.118-2.729
		c0.125-1.283,0.252-2.564,0.086-3.855c-0.012-0.091-0.009-0.188,0.008-0.279c0.129-0.755,0.045-1.506-0.024-2.256
		c-0.037-0.409-0.034-0.815,0.009-1.222c0.073-0.688,0.161-1.372,0.227-2.059c0.085-0.891,0.347-1.718,0.812-2.481
		c0.115-0.187,0.24-0.371,0.329-0.57c0.328-0.748,0.638-1.505,0.845-2.297c0.11-0.429,0.265-0.838,0.459-1.235
		c0.11-0.223,0.218-0.455,0.281-0.694c0.222-0.835,0.243-1.675-0.034-2.506c-0.023-0.069-0.077-0.093-0.151-0.067
		c-0.028,0.01-0.062,0.017-0.081,0.036c-0.045,0.041-0.097,0.086-0.118,0.142c-0.175,0.47-0.349,0.934-0.382,1.449
		c-0.037,0.575-0.262,1.111-0.658,1.532c-0.298,0.316-0.667,0.566-1.008,0.843c-0.048,0.037-0.115,0.05-0.173,0.072
		c-0.208,0.08-0.452,0.001-0.588-0.173c-0.142-0.18-0.211-0.384-0.247-0.604c-0.063-0.372-0.105-0.747-0.188-1.114
		c-0.104-0.464-0.146-0.929-0.128-1.403c0.023-0.597,0.048-1.192,0.055-1.788c0.003-0.151-0.036-0.313-0.096-0.453
		c-0.117-0.273-0.51-0.333-0.707-0.125c-0.157,0.163-0.274,0.346-0.274,0.581c0.003,0.377-0.002,0.755,0.012,1.131
		c0.021,0.66,0.01,1.314-0.038,1.974c-0.044,0.621-0.267,1.154-0.55,1.68c-0.104,0.194-0.356,0.286-0.571,0.218
		c-0.358-0.113-0.724-0.209-1.071-0.354C8.41,11.724,8.119,11.439,8.06,10.99c-0.028-0.216-0.023-0.437-0.013-0.656
		C8.062,9.99,8.093,9.644,8.117,9.3z"/>
	<path fill-rule="evenodd" clip-rule="evenodd" fill="#15757D" d="M27.039,12.498c0,0.313,0.003,0.627,0,0.94
		c-0.005,0.626-0.018,1.253-0.014,1.88c0.003,0.501,0,1.004,0.047,1.504c0.102,1.066,0.073,2.13-0.021,3.194
		c-0.02,0.219-0.034,0.441-0.021,0.659c0.02,0.315,0.031,0.627-0.057,0.936c-0.016,0.06-0.023,0.125-0.018,0.187
		c0.089,0.904-0.107,1.816,0.103,2.72c0.063,0.27,0.031,0.562,0.044,0.846c0.03,0.596,0.037,1.193,0.18,1.779
		c0.051,0.209,0.042,0.436,0.03,0.654c-0.066,1.225-0.075,2.449-0.003,3.674c0.013,0.219,0.018,0.439,0.001,0.658
		c-0.077,1.064-0.204,2.127-0.206,3.195c-0.002,0.344-0.069,0.684-0.039,1.031c0.017,0.184-0.04,0.373-0.079,0.555
		c-0.087,0.398-0.198,0.793-0.272,1.193c-0.076,0.408-0.236,0.777-0.438,1.137c-0.172,0.309-0.396,0.566-0.679,0.773
		c-0.202,0.148-0.405,0.301-0.625,0.42c-0.161,0.088-0.349,0.17-0.526,0.178c-0.637,0.029-1.252-0.066-1.822-0.381
		c-0.26-0.145-0.445-0.346-0.551-0.619c-0.121-0.324-0.21-0.646-0.208-1.006c0.008-0.941-0.017-1.885-0.103-2.824
		c-0.015-0.154-0.029-0.316-0.005-0.469c0.059-0.377,0.047-0.752-0.002-1.129c-0.016-0.123-0.026-0.254-0.002-0.373
		c0.127-0.627,0.049-1.254,0.047-1.881c0-0.25,0.007-0.504,0.045-0.752c0.096-0.623,0.114-1.25,0.166-1.877
		c0.062-0.752,0.179-1.496,0.258-2.246c0.094-0.875,0.17-1.756,0.091-2.631c-0.1-1.155-0.467-2.213-1.379-3.002
		c-0.363-0.313-0.674-0.66-0.814-1.131c-0.054-0.181-0.112-0.362-0.136-0.549c-0.097-0.778-0.208-1.558-0.258-2.341
		c-0.038-0.562-0.031-1.13,0.076-1.69c0.046-0.245,0.06-0.499,0.076-0.751c0.029-0.44,0.096-0.872,0.256-1.288
		c0.045-0.116,0.102-0.236,0.111-0.358c0.021-0.32,0.11-0.615,0.269-0.893c0.162-0.28,0.193-0.596,0.228-0.907
		c0.041-0.375,0.021-0.765,0.121-1.121c0.101-0.356,0.328-0.676,0.479-1.02c0.227-0.518,0.423-1.047,0.653-1.563
		c0.242-0.544,0.505-1.08,0.765-1.617c0.055-0.112,0.121-0.225,0.205-0.316c0.539-0.572,1.09-1.132,1.767-1.548
		c0.236-0.146,0.506-0.128,0.715,0.016c0.31,0.212,0.586,0.473,0.862,0.728c0.087,0.081,0.141,0.207,0.185,0.322
		c0.076,0.206,0.155,0.416,0.191,0.631c0.162,0.992,0.291,1.989,0.295,2.996c0.003,0.815-0.017,1.63-0.024,2.445
		C26.998,11.81,27,12.154,27,12.497C27.014,12.498,27.026,12.498,27.039,12.498z M23.106,35.154c-0.007,0-0.015,0-0.021,0
		c-0.03,0.344-0.064,0.688-0.087,1.033c-0.05,0.736,0.118,1.438,0.403,2.107c0.176,0.414,0.698,0.6,1.117,0.445
		c0.688-0.256,1.064-0.742,1.122-1.475c0.011-0.125,0.012-0.252,0.031-0.377c0.087-0.523,0.091-1.061,0.267-1.576
		c0.067-0.199,0.089-0.445,0.042-0.648c-0.121-0.543-0.038-1.064,0.084-1.584c0.065-0.279,0.121-0.559,0.094-0.84
		c-0.077-0.779-0.008-1.566-0.131-2.344c-0.033-0.213,0.001-0.438,0.004-0.656c0.002-0.219,0.016-0.438,0.002-0.654
		c-0.045-0.721-0.218-1.43-0.151-2.158c0.012-0.123-0.036-0.248-0.045-0.373c-0.023-0.312-0.054-0.627-0.055-0.938
		c0-0.379-0.004-0.752-0.075-1.127c-0.041-0.212-0.059-0.443-0.021-0.653c0.165-0.934,0.154-1.878,0.229-2.815
		c0.056-0.688,0.087-1.382,0.065-2.071c-0.014-0.502-0.017-1.003-0.01-1.505c0.019-1.349,0.111-2.698,0.058-4.048
		c-0.005-0.125-0.001-0.252,0.019-0.376c0.115-0.785,0.013-1.564-0.061-2.344c-0.049-0.53-0.183-1.053-0.048-1.589
		c0.023-0.088,0.009-0.187,0.002-0.281c-0.043-0.531-0.099-1.062-0.132-1.597c-0.028-0.44-0.258-0.76-0.572-1.04
		c-0.05-0.046-0.203-0.04-0.262,0.017c-0.09,0.087-0.187,0.169-0.259,0.269c-0.295,0.408-0.595,0.812-0.865,1.233
		c-0.22,0.343-0.483,0.667-0.591,1.067c-0.101,0.371-0.283,0.697-0.474,1.021c-0.192,0.331-0.329,0.673-0.396,1.052
		c-0.053,0.308-0.131,0.614-0.227,0.912c-0.173,0.536-0.425,1.046-0.449,1.626c-0.006,0.152-0.062,0.312-0.135,0.449
		c-0.136,0.258-0.172,0.533-0.194,0.817c-0.014,0.188-0.043,0.376-0.091,0.558c-0.247,0.924-0.282,1.858-0.148,2.802
		c0.005,0.03,0.001,0.064,0.002,0.095c0.078,1.049,0.299,2.049,0.96,2.906c0.076,0.098,0.117,0.228,0.199,0.318
		c0.451,0.501,0.69,1.115,0.959,1.718c0.158,0.351,0.258,0.703,0.28,1.084c0.071,1.191,0.198,2.378,0.075,3.572
		c-0.022,0.219-0.007,0.439-0.008,0.66c-0.001,0.123,0.006,0.248-0.001,0.373c-0.021,0.344-0.045,0.686-0.071,1.029
		c-0.021,0.283-0.021,0.568-0.076,0.844c-0.105,0.559-0.145,1.119-0.169,1.684c-0.022,0.531-0.03,1.064-0.138,1.592
		c-0.055,0.273-0.043,0.562-0.051,0.846C23.102,34.525,23.106,34.84,23.106,35.154z"/>
</g>
</svg>
