<?xml version="1.0" encoding="utf-8"?>
<!-- Generator: Adobe Illustrator 16.2.1, SVG Export Plug-In . SVG Version: 6.00 Build 0)  -->
<!DOCTYPE svg PUBLIC "-//W3C//DTD SVG 1.1//EN" "http://www.w3.org/Graphics/SVG/1.1/DTD/svg11.dtd">
<svg version="1.1" id="Layer_1" xmlns="http://www.w3.org/2000/svg" xmlns:xlink="http://www.w3.org/1999/xlink" x="0px" y="0px"
	  viewBox="0 0 200 200" enable-background="new 0 0 200 200" xml:space="preserve">
<g>
	<g>
		<path fill-rule="evenodd" clip-rule="evenodd" fill="#22BCBA" d="M67.04,144.104c2.69,0.925,5.346,1.935,8.079,2.767
			c3.538,1.077,3.887,1.824,1.68,4.37c-0.509,0.586-1.146,1.095-1.773,1.596c-3.284,2.656-5.083,5.975-4.99,9.709
			c0.076,3.301,0.9,6.584,1.435,9.877c0.45,2.783,2.571,4.643,5.134,6.229c1.494,0.926,2.92,1.926,4.422,2.844
			c1.417,0.857,1.893,1.959,1.146,3.25c-0.841,1.408-2.351,1.078-3.556,0.525c-2.699-1.238-5.33-2.57-7.918-3.988
			c-5.304-2.92-6.152-7.73-7.392-12.373c-0.823-3.055-1.205-6.178-0.543-9.216c0.416-1.96,1.681-3.827,2.732-5.66
			c0.569-0.993,1.502-1.825,2.486-2.987c-3.869-2.376-8.91-2.613-12.186-5.991c0.722-0.831,1.307-1.892,2.257-2.546
			c3.556-2.427,7.222-4.727,10.871-7.043c2.291-1.46,2.309-1.536,1.324-3.887c-1.876-4.506-3.811-9.004-5.551-13.553
			c-1.205-3.182-0.407-6.406,0.535-9.538c0.212-0.738,0.976-1.511,1.731-1.96c3.156-1.859,6.415-3.591,10.582-2.487
			c0.636,0.179,1.672,0.458,1.731,0.789c0.109,0.603-0.374,1.29-0.637,1.936c-0.025,0.085-0.179,0.144-0.297,0.179
			c-6.17,2.342-5.262,6.992-5.041,11.27c0.094,1.832,0.899,3.682,1.663,5.422c1.527,3.454,2.003,7.068,2.376,10.658
			c0.246,2.512-1.723,4.193-4.276,5.414c-2.104,1.02-4.091,2.182-6.145,3.276C66.963,143.357,66.997,143.731,67.04,144.104z"/>
		<path fill-rule="evenodd" clip-rule="evenodd" fill="#22BCBA" d="M144.195,141.554c-3.581,1.851-7.009,3.615-10.726,5.533
			c1.799,3.488,3.241,7.18,5.558,10.438c1.74,2.427,1.969,4.923,1.961,7.435c-0.018,2.715-0.653,5.465-1.273,8.162
			c-1.061,4.559-4.294,8.08-8.163,11.211c-2.682,2.172-4.702,1.859-7.553-1.068c0.729-0.492,1.357-1.266,2.164-1.426
			c4.735-0.984,7.137-4.014,8.104-7.443c2.402-8.57,1.333-16.743-5.838-23.77c-0.968-0.959-1.663-2.079-2.58-3.063
			c-1.044-1.112-1.103-2.231-0.161-3.599c1.663-0.313,3.521-0.5,5.219-1.035c0.883-0.297,2.054-1.188,2.054-1.832
			c0.025-0.662-1.044-1.477-1.858-2.012c-1.061-0.705-2.351-1.129-3.479-1.766c-1.773-1.018-2.155-2.562-0.603-3.623
			c6.271-4.285,7.171-10.658,9.31-16.531c0.391-1.095,0.034-2.504-0.398-3.648c-0.807-2.147-2.139-2.758-4.795-2.605
			c-0.857,0.059-1.858,0.348-2.537,0.084c-0.713-0.279-1.562-1.086-1.579-1.688c-0.042-1.409,0.356-2.844,0.62-4.473
			c0.585-0.094,1.307-0.382,1.969-0.298c7.595,0.935,13.289,6.595,12.567,13.087c-0.288,2.664-0.645,5.32-1.018,7.977
			c-0.408,2.801-2.521,4.888-4.252,7.145c-1.681,2.207-1.46,2.521,1.12,3.879C140.275,137.804,143.126,138.457,144.195,141.554z"/>
	</g>
	<path fill-rule="evenodd" clip-rule="evenodd" fill="#22BCBA" d="M162.874,54.775c-2.631-1.875-4.846-3.462-7.078-5.049
		c-2.486-1.765-4.973-3.539-7.468-5.312c-0.653-0.467-1.264-1.01-1.977-1.413c-4.829-2.753-9.029-6.063-12.458-10.06
		c-0.857-1.019-1.927-1.922-2.817-2.809c0.518-0.993,0.934-1.799,1.485-2.843c1.477,0.993,2.834,1.825,4.073,2.75
		c3.182,2.372,6.551,4.519,10.039,6.581c4.633,2.728,8.995,5.783,13.383,8.796c2.351,1.612,4.506,3.42,6.704,5.185
		c0.331,0.271,0.577,0.789,0.56,1.196c-0.11,2.062,0.06,4.082-1.875,5.894c-2.852,2.652-5.296,5.597-7.875,8.439
		c-4.022,4.43-8.232,8.75-11.949,13.349c-2.273,2.809-5.389,4.731-8.248,6.937c-0.391,0.289-1.587,0.289-2.012,0.004
		c-2.045-1.366-2.452-3.797-0.814-5.635c4.057-4.506,7.731-9.284,12.967-12.992c1.502-1.057,2.674-2.41,4.107-3.539
		c2.376-1.867,4.158-4.192,7.069-5.661C160.192,57.843,161.185,56.362,162.874,54.775z"/>
	<path fill-rule="evenodd" clip-rule="evenodd" fill="#22BCBA" d="M65.766,26.796c0.433,2.13-0.433,3.335-1.553,4.502
		c-8.036,8.431-16.083,16.857-24.111,25.289c-0.127,0.123-0.127,0.335-0.339,0.967c1.392,1.282,2.809,2.907,4.582,4.197
		c7.069,5.185,14.327,10.196,21.354,15.423c2.418,1.808,4.489,3.984,6.433,6.182c0.636,0.713,0.339,1.999,0.552,3.768
		c-1.715-0.811-2.725-1.214-3.641-1.731c-2.699-1.544-5.33-3.191-8.079-4.667c-1.409-0.755-2.546-1.57-3.454-2.796
		c-1.019-1.379-2.334-2.707-3.854-3.7c-6.78-4.438-13.68-8.749-20.952-13.37c-0.229-2.003,1.247-4.035,2.961-5.902
		c6.11-6.662,12.28-13.293,18.525-19.883c2.302-2.427,4.755-4.782,7.386-6.963C62.449,27.382,64.103,27.289,65.766,26.796z"/>
	<path fill="#22BCBA" d="M96.011,99.675c-0.84,0-1.265-0.789-1.265-2.376c0-0.594,0.17-1.477,0.501-2.631
		c0.339-1.163,3.402-13.484,9.199-36.965c5.796-23.49,9.444-37.729,10.955-42.711c0.178-0.492,0.526-0.738,1.027-0.738
		c0.509,0,0.967,0.221,1.374,0.653c0.399,0.441,0.603,0.899,0.603,1.375c0,0.475-0.373,2.682-1.129,6.61
		c-0.755,3.938-3.75,16.302-8.986,37.102c-5.236,20.791-8.979,33.622-11.228,38.468C96.894,99.268,96.538,99.675,96.011,99.675z"/>
</g>
</svg>
