<?xml version="1.0" encoding="utf-8"?>
<!-- Generator: Adobe Illustrator 21.0.0, SVG Export Plug-In . SVG Version: 6.00 Build 0)  -->
<svg version="1.1" id="Layer_1" xmlns="http://www.w3.org/2000/svg" xmlns:xlink="http://www.w3.org/1999/xlink" x="0px" y="0px"
	 viewBox="0 0 787 145" style="enable-background:new 0 0 787 145;" xml:space="preserve">
<style type="text/css">
	.st0{fill:#E17226;}
	.st1{fill:#15757D;}
</style>
<g>
	<g>
		<path class="st0" d="M46.4,124.1c-0.1,0-0.3,0-0.4,0c-1.2,0.1-2.5,0.3-3.7,0.4l-0.7,0.1c-0.9,0.1-1.8,0.2-2.6,0.1
			c-1-0.1-2.1-0.2-3.4-0.2c-0.6,0-1.3,0-1.9,0c-0.8,0-1.7,0.1-2.5-0.1c-0.6-0.1-1.1-0.2-1.7-0.1s-1.1-0.1-1.7-0.3
			c-0.2-0.1-0.4-0.2-0.6-0.2c-0.4-0.2-0.8-0.4-1.3-0.5c0-0.9-0.2-2-1-2.9c0.2-1.4,0.1-2.7,0-4c0-0.6-0.1-1.3-0.1-1.9
			c0-0.1,0-0.2,0.1-0.3c0.1-0.4,0.3-1,0.1-1.8c-0.2-0.9-0.3-1.9-0.3-3.1c0-0.3,0.1-0.9-0.4-1.5c0-0.1,0.1-0.2,0.1-0.4
			c0.2-0.2,0.3-0.4,0.4-0.7c0.1-0.5,0-0.9-0.1-1.2c0.1-0.4,0.2-0.9-0.2-1.5c0.2-0.8,0.4-1.9-0.2-3.1c0.3-1,0.2-1.9,0.1-2.7
			c0-0.5-0.1-0.9-0.1-1.3c0.1-0.7-0.1-1.3-0.2-1.8c-0.1-0.6-0.2-0.9-0.1-1.2c0.3-0.7,0-1.3-0.1-1.8c-0.1-0.3,0-0.6,0-1.1
			c0-0.4,0.1-0.9,0-1.3c0-0.1,0.1-0.2,0.1-0.3c0.2-0.4,0.5-1.1,0.4-1.9c0.7-1.2,0.6-2.1,0.3-2.8c0.4-0.8,0.3-1.6,0.3-2.2
			c0-0.2,0-0.4,0-0.7c0-0.7,0.1-1.5-0.4-2.4c0.5-1.1,0.4-2.3-0.3-3.2c0.3-0.7,0.2-1.4,0.1-1.8c0-0.1,0-0.2,0-0.3
			c0.3-0.3,0.4-0.7,0.4-1.1c0-0.3-0.1-0.5-0.2-0.7c0.1-0.6,0.2-1.2,0.1-1.9c0-0.2-0.1-0.5-0.1-0.7s-0.1-0.4-0.1-0.5
			c0.1-0.8,0-1.4-0.2-2.1c0.2-0.3,0.3-0.8,0.3-1.4c0.7-1.3,0.1-2.1-0.3-2.4c0.1-0.6-0.1-1.1-0.2-1.5c1.2-0.8,1.1-1.8,1-2.3
			c-0.1-0.4-0.1-0.8-0.2-1.2c-0.1-0.8-0.2-1.7-0.6-2.6c0.5-0.6,0.5-1.3,0.5-1.7c0-0.1,0-0.1,0,0c0.1-0.4,0.1-0.7,0-1.1
			c0.1-0.2,0.2-0.5,0.2-0.9c0-0.1,0-0.3-0.1-0.4c0.2-0.4,0.2-0.8,0.2-1.1s-0.1-0.8-0.5-1.2c0-0.6-0.1-1.1-0.4-1.7
			c0.4-0.7,0.3-1.4,0.3-1.9c0-0.1,0-0.3,0-0.4c0.4-0.5,0.4-1.3,0.1-1.8c-0.2-0.3-0.1-0.6,0-1.4c0.1-0.2,0.1-0.5,0.1-0.7
			c0.1-0.7,0.3-1.8-0.4-3.1c-0.1-0.1-0.1-0.2-0.2-0.3c0.5-0.7,0.3-1.5,0.2-2l0,0c0.9-2,0.7-4,0.3-5.6c-0.1-0.4-0.2-0.8-0.4-1.1
			c0-0.1,0.1-0.2,0.1-0.3c0.4-1.2,0.9-2.6,0.4-4.2c0.4-0.6,0.4-1.2,0.4-1.6v-0.4c0-0.7,0-1.5-0.3-2.3c0.3-0.5,0.3-1,0.2-1.3
			c-0.1-0.7-0.6-1.3-1.4-1.7c-0.3-0.1-0.5-0.3-0.8-0.4s-0.5-0.3-0.7-0.4c-0.4-0.2-0.8-0.3-1.1-0.3c-0.5,0-1.4,0.2-1.8,1.5
			c-0.2,0.6-0.3,1.1-0.4,1.6v0.2c-0.3,1.6-0.2,3.1-0.2,4.6c0,0.7,0,1.5,0,2.2c0,1.1,0,2.2,0,3.2c0,0.8,0,1.6,0,2.3
			c0,0.8-0.1,1.7-0.1,2.5c-0.1,1.1-0.1,2.2-0.1,3.3c0,0.7,0,1.5,0,2.3c0,1.2-0.1,2.5,0,3.8c0.1,1,0.1,2,0,3c0,0.9-0.1,1.8,0,2.7
			c0,0.2-0.1,0.5-0.1,0.8c-0.1,0.5-0.2,1.1-0.1,1.7c0.1,0.9,0.1,1.9,0,2.9c0,0.7-0.1,1.4-0.1,2.1c0,0.1,0,0.1,0,0.2
			c-0.1,0.4-0.2,1.3,0.4,1.8c0,0.1,0,0.3,0,0.5s0,0.3-0.1,0.4c-0.1,1.1-0.1,2.2-0.2,3.3c0,0.7-0.1,1.4-0.1,2c0,0.4,0,0.9,0,1.3
			s0.1,0.8,0,1c-0.4,1.5-0.3,2.9-0.3,4.2v0.3c0.1,1.2,0.1,2.4,0.1,3.6c0,0.8,0,1.5,0,2.3c0,0.3,0,0.6,0,0.9c0,0.8,0.1,1.5,0,2.3
			c-0.1,0.9-0.1,1.8-0.1,2.7v1.6c0,1.3,0,2.4-0.3,3.5c-0.2,0.8-0.3,1.6-0.1,2.6c0,0.3,0.1,0.5,0.1,0.8c0.1,0.4,0.2,0.9,0.1,1.1
			l-0.1,0.7c-0.2,1.3-0.4,2.7,0,4.3c0,0.1,0,0.1,0,0.1c-0.2,0.9-0.2,1.6-0.2,2.3c0,0.8,0.1,1.5,0.2,2.2c0.1,1.1,0.2,2.1,0,2.9
			s0,1.5,0.1,1.9l0.1,0.4c0,0.1,0,0.2,0.1,0.1c-0.3,2.1-0.2,4.1,0.1,6c0,0.2,0,0.3,0,0.4c0,0.3,0,0.7-0.1,1.1
			c-0.1,0.7-0.2,1.6,0,2.5c0.1,0.6,0.2,1.6-0.2,2.6c-0.4,0.8-0.3,1.6,0.2,2.3c-0.1,0.4-0.1,0.7-0.1,1s0,0.5,0,0.6
			c-0.2,0.6-0.2,1.2,0,1.7c0.1,0.1,0.1,0.2,0.2,0.3c-0.5,1.1-0.3,2.2,0.6,3.1c0.8,0.9,1.9,1.8,3.4,1.8c0.3,0,0.5,0.1,0.7,0.1
			c0.4,0.1,0.9,0.2,1.4,0.2c0.1,0,0.3,0,0.5,0c0.9-0.1,2.2-0.1,3.4-0.1H29c0,0,0.1,0,0.2,0c0.6,0,1.2,0,1.7-0.1
			c0.7,0,1.4-0.1,2.1-0.1c1.3,0.1,2.6,0,4.5-0.2c0.8-0.1,1.6-0.3,2.4-0.4c0.4-0.1,0.8-0.2,1.2-0.2c0.3-0.1,0.7-0.1,1.1-0.1h0.2
			c0.7,0,1.3,0,2-0.2c1.1-0.3,2.2-0.4,3.3-0.4c0.8,0,2.4-0.1,3-2.2c0.4-1.3,0.1-2.5-0.6-3.5C49.2,124,47.8,123.6,46.4,124.1z
			 M24.2,76.9c0,0.1,0,0.1-0.1,0.1l-1.2-0.8l0,0L24.2,76.9z"/>
		<path class="st0" d="M24,133.9c-0.6,0-1.2-0.1-1.7-0.2c-0.2,0-0.4-0.1-0.6-0.1c-2.1-0.1-3.4-1.2-4.3-2.2c-1-1.1-1.4-2.5-1-3.9
			c-0.3-0.8-0.3-1.7,0-2.6c0,0.1,0,0,0-0.1c0-0.2,0-0.5,0-0.7c-0.5-0.9-0.5-2.1-0.1-3.1c0.3-0.7,0.3-1.3,0.2-1.8
			c-0.3-1.1-0.1-2.1-0.1-2.9c0-0.4,0.1-0.6,0.1-0.9c0-0.1,0-0.3,0-0.5c-0.3-1.9-0.3-3.8-0.1-5.9l-0.1-0.3c-0.1-0.5-0.4-1.5-0.1-2.7
			c0.2-0.6,0.1-1.4,0-2.4c-0.1-0.8-0.2-1.6-0.2-2.4c0-0.7,0.1-1.5,0.2-2.4c-0.4-1.7-0.1-3.3,0.1-4.5l0.1-0.6c0-0.1-0.1-0.4-0.1-0.7
			c-0.1-0.3-0.1-0.6-0.1-0.9c-0.2-1.2-0.1-2.2,0.2-3.2c0.3-0.9,0.3-2,0.2-3.2v-1.6c0-0.9,0-1.9,0.1-2.9c0.1-0.6,0-1.3,0-2l-0.1-3.3
			c0-1.2,0-2.3-0.1-3.5v-0.3c-0.1-1.3-0.2-2.9,0.3-4.6c0-0.1,0-0.3,0-0.5c0-0.5-0.1-1,0-1.5c0-0.7,0.1-1.3,0.1-2
			c0-1.1,0.1-2.2,0.2-3.3c0-0.1,0-0.2,0-0.3c-0.6-0.9-0.4-2.1-0.4-2.5c0-0.7,0-1.4,0.1-2.2c0.1-1,0.1-1.8,0-2.6
			c-0.1-0.9,0-1.6,0.2-2.2c0-0.2,0.1-0.4,0.1-0.5c0-0.9,0-1.9,0-2.8c0-1,0.1-2,0-2.9c-0.1-1.4-0.1-2.7,0-4c0-0.7,0-1.5,0-2.2
			c0-1.1,0-2.3,0.1-3.4c0-0.8,0.1-1.6,0.1-2.4c0-0.8,0-1.5,0-2.3c0-1.1-0.1-2.2,0-3.3c0-0.7,0-1.4,0-2.1c0-1.6-0.1-3.2,0.2-4.9
			c0.1-0.7,0.2-1.4,0.5-2.1c0.7-1.9,2.7-2.8,4.8-1.8c0.3,0.1,0.5,0.3,0.8,0.4c0.3,0.2,0.5,0.3,0.7,0.4c1.6,0.7,2,1.9,2.2,2.7
			c0.1,0.4,0.1,0.9-0.1,1.5c0.2,0.9,0.2,1.7,0.2,2.3v0.4c0,0.6-0.1,1.2-0.3,1.8c0.3,1.7-0.1,3.1-0.5,4.3c0.1,0.3,0.2,0.6,0.3,0.9
			c0.4,1.6,0.7,3.8-0.2,6c0.1,0.5,0.1,1.1-0.1,1.8c0.8,1.6,0.6,2.9,0.4,3.7c0,0.2-0.1,0.5-0.1,0.7S26,43.1,26,43.2
			c0.4,0.8,0.5,1.8,0.1,2.6c0,0.6,0,1.2-0.2,1.9c0.2,0.4,0.3,0.9,0.3,1.4c0.3,0.5,0.4,1,0.5,1.5c0,0.4,0,0.9-0.1,1.3
			c0,0.1,0,0.2,0,0.3c0,0.3,0,0.7-0.1,1c0.1,0.4,0,0.7,0,1.1c0,0.3,0,1-0.3,1.7c0.3,0.9,0.4,1.7,0.5,2.4c0,0.4,0.1,0.7,0.2,1
			c0.3,1.1,0,2.2-0.7,3c0,0.2,0.1,0.4,0.1,0.6c0.6,0.9,0.7,2,0.2,3.2c0,0.4-0.1,0.8-0.2,1.2c0.1,0.6,0.2,1.3,0.1,2.1
			c0,0,0,0.1,0,0.2c0.1,0.3,0.1,0.6,0.1,0.9c0,0.6,0,1.2-0.1,1.8c0.1,0.3,0.2,0.6,0.2,0.9c0,0.5-0.1,1.1-0.4,1.5
			c0.1,0.5,0.1,1,0,1.6c0.5,1.1,0.6,2.3,0.3,3.4c0.3,1,0.3,1.9,0.3,2.5c0,0.2,0,0.4,0,0.5c0,0.6,0.1,1.5-0.2,2.3
			c0.2,0.8,0.3,1.8-0.3,3.1c0,1-0.3,1.7-0.5,2.1c0,0.4,0,0.8-0.1,1.2c0,0.2-0.1,0.5,0,0.6c0.2,0.4,0.5,1.4,0.1,2.6
			c0-0.1,0.1,0.3,0.1,0.5c0.1,0.6,0.3,1.3,0.2,2.2c0,0.3,0,0.7,0.1,1c0.1,0.7,0.2,1.7,0,2.7c0.5,1.2,0.4,2.4,0.2,3.1
			c0.2,0.5,0.3,1.1,0.2,1.6c0.2,0.5,0.2,1.1,0,1.6c-0.1,0.2-0.1,0.5-0.3,0.7c0.3,0.7,0.2,1.4,0.2,1.7c0,1,0,1.9,0.3,2.7
			c0.3,1.1,0.1,2-0.1,2.4c0,0.5,0,1.1,0.1,1.6c0.1,1.2,0.2,2.5,0.1,3.8c0.5,0.8,0.8,1.6,0.9,2.3c0.2,0.1,0.4,0.2,0.6,0.3
			c0.2,0.1,0.3,0.2,0.5,0.2c0.4,0.2,0.7,0.3,1,0.3c1-0.1,1.5,0,2.2,0.1c0.3,0.1,0.7,0.1,1,0.1h1.3c2.5-0.1,4,0,5.5,0.2
			c0.7,0.1,1.3,0,2.1-0.1l0.8-0.1c1.2-0.1,2.5-0.3,3.7-0.4c0.1,0,0.2,0,0.3,0c1.8-0.6,3.8,0.1,4.8,1.6c1,1.4,1.3,3,0.8,4.6
			c-0.8,3-3.4,3.1-4.2,3.2c-1,0.1-2,0.1-3,0.4c-1,0.3-1.9,0.3-2.6,0.3c-0.4,0-0.6,0-0.8,0c-0.4,0.1-0.8,0.1-1.1,0.2
			c-0.9,0.2-1.7,0.4-2.6,0.5c-2,0.2-3.3,0.3-4.7,0.2H33c-0.5,0-0.9,0-1.4,0.1c-0.7,0-1.3,0.1-1.9,0.1h-1.2c-1.2,0-2.4,0-3.3,0.1
			C24.4,133.9,24.2,133.9,24,133.9z M18.9,108.2c0.1,0.2,0.2,0.5,0.1,0.7c-0.2,2-0.2,3.9,0.1,5.6c0,0.1,0,0.3,0,0.4
			c0,0.6,0,1-0.1,1.4c-0.1,0.7-0.1,1.4,0,2.1c0.2,0.8,0.3,2.1-0.3,3.4c-0.2,0.3-0.1,0.7,0.1,0.9c0.2,0.3,0.3,0.7,0.3,1s0,0.6,0,0.8
			c0,0.4,0,0.8-0.1,1.1c-0.1,0.2-0.1,0.5,0,0.6c0.3,0.4,0.4,1,0.2,1.4c-0.3,0.6-0.2,1.2,0.3,1.7c0.8,0.8,1.5,1.4,2.5,1.4
			c0.3,0,0.6,0.1,0.9,0.1c0.5,0.1,1,0.2,1.6,0.1c0.9-0.1,2.3-0.1,3.6-0.1h1c0.7,0,1.2,0,1.8-0.1c0.6,0,1.1-0.1,1.6-0.1h0.6
			c1.2,0.1,2.4,0,4.3-0.2c0.8-0.1,1.6-0.2,2.3-0.4c0.5-0.1,0.9-0.2,1.3-0.3c0.4-0.1,0.8-0.1,1.3-0.1c0.8,0,1.4,0,1.9-0.2
			c1.2-0.3,2.4-0.4,3.6-0.5c0.9,0,1.5-0.2,1.8-1.2c0.2-0.9,0.1-1.7-0.4-2.4c-0.4-0.6-1.3-0.8-2-0.5c-0.1,0.1-0.3,0.1-0.4,0.1
			c-1.5,0.1-2.7,0.3-3.9,0.4l-0.7,0.1c-1.2,0.2-2.1,0.2-2.9,0.1c-1.4-0.2-3.1-0.2-4.9-0.1h-1.5c-0.5,0-1,0-1.4-0.1s-0.9-0.1-1.3-0.1
			c-0.8,0.1-1.7-0.1-2.4-0.4c-0.2-0.1-0.4-0.2-0.6-0.3c-0.4-0.2-0.7-0.3-1.1-0.4c-0.6-0.1-1-0.7-1-1.2c0-0.9-0.2-1.6-0.7-2.1
			c-0.3-0.3-0.4-0.7-0.3-1.1c0.2-1.2,0.1-2.5,0-3.7c-0.1-0.8-0.1-1.4-0.1-2c0-0.2,0-0.3,0.1-0.6c0.1-0.3,0.2-0.7,0.1-1.1
			c-0.3-1-0.4-2.2-0.3-3.5c0-0.2,0-0.5-0.1-0.7c-0.2-0.3-0.3-0.7-0.2-1.1l0.1-0.3c0-0.2,0.1-0.4,0.3-0.6c0.1-0.2,0.1-0.3,0-0.5
			c-0.2-0.3-0.2-0.7-0.1-1c0,0,0-0.1-0.1-0.4c-0.2-0.3-0.3-0.7-0.2-1c0.2-0.6,0.3-1.4-0.1-2.2c-0.2-0.3-0.2-0.6-0.1-0.9
			c0.2-0.8,0.1-1.5,0.1-2.2c-0.5-0.1-0.5-0.6-0.5-1c0-0.5-0.1-1-0.2-1.4c-0.1-0.7-0.3-1.3,0-2c0.1-0.2,0-0.4-0.1-0.8
			c-0.2-0.6-0.1-1.1-0.1-1.7c0-0.3,0.1-0.7,0.1-1c0-0.2,0-0.4,0.1-0.6c0-0.1,0.1-0.3,0.2-0.4c0.2-0.4,0.4-0.8,0.3-1.2
			c0-0.3,0-0.6,0.2-0.8c0.5-0.8,0.3-1.3,0.2-1.6c-0.2-0.3-0.1-0.7,0-1.1c0.2-0.5,0.2-1,0.2-1.6c0-0.2,0-0.5,0-0.7
			c0-0.6,0.1-1.3-0.2-1.9c-0.2-0.3-0.2-0.7,0-1.1c0.1-0.2,0.2-0.5,0.2-0.7c-0.1,0-0.3-0.1-0.4-0.2l-1.2-0.8
			c-0.6-0.4-0.8-1.2-0.4-1.8c0.3-0.6,1-0.8,1.6-0.5c0-0.1,0-0.2,0-0.3l-0.1-0.4c0-0.4,0.1-0.8,0.4-1c-0.2-0.3-0.2-0.9-0.2-1.2
			c0.1-0.4,0.1-0.9,0.1-1.5c0-0.2-0.1-0.4-0.1-0.6c-0.1-0.3-0.1-0.6-0.1-0.9c0-0.6,0-1.1-0.2-1.6c-0.1-0.3-0.1-0.7,0.1-1
			c0.1-0.2,0.2-0.5,0.2-0.8c0-0.2,0-0.4,0.1-0.6c0.3-0.6,0.1-0.7,0-0.8c-0.3-0.3-0.5-0.7-0.4-1.2c0-0.3-0.1-0.6-0.2-0.8
			c-0.2-0.6,0-1.2,0.5-1.6c0.4-0.3,0.5-0.5,0.4-0.9s-0.2-0.8-0.2-1.3c-0.1-0.8-0.2-1.6-0.5-2.3c-0.2-0.5-0.1-1,0.2-1.4
			c0.1-0.2,0.2-0.4,0.2-0.6c0-0.2,0-0.5,0-0.7c-0.1-0.3-0.1-0.9,0-1.2c0-0.1,0.1-0.2,0-0.3c-0.1-0.3-0.1-0.8,0-1s0.1-0.3,0.1-0.5
			s-0.1-0.3-0.2-0.5c-0.2-0.3-0.3-0.6-0.3-0.9c0-0.3-0.1-0.6-0.2-1c-0.2-0.4-0.2-0.8,0-1.2s0.2-0.9,0.1-1.2c0-0.1,0-0.4,0-0.5
			c0-0.3,0.1-0.5,0.3-0.7c0-0.1,0.1-0.2,0-0.3c-0.5-0.8-0.3-1.6-0.1-2.4c0.1-0.2,0.1-0.4,0.1-0.6c0.1-0.6,0.2-1.3-0.3-2.2
			c-0.1,0-0.2-0.2-0.2-0.3c-0.2-0.5-0.2-1,0.1-1.4c0.1-0.2,0.1-0.5,0-0.9c-0.1-0.3,0-0.6,0.1-0.9c0.8-1.6,0.5-3.4,0.2-4.7
			c-0.1-0.3-0.1-0.5-0.2-0.6c-0.3-0.4-0.3-0.8-0.1-1.3c0.5-1.4,0.8-2.5,0.5-3.7c-0.1-0.4,0-0.8,0.2-1.1c0.1-0.2,0.2-0.5,0.2-0.8
			v-0.4c0-0.6,0-1.3-0.2-1.9c-0.1-0.4-0.1-0.8,0.1-1.1c0.1-0.2,0.1-0.3,0.1-0.4s-0.1-0.4-0.7-0.7c-0.3-0.1-0.5-0.3-0.8-0.4
			c-0.3-0.2-0.5-0.3-0.8-0.4c-0.2-0.1-0.4-0.2-0.5-0.2s-0.4,0-0.6,0.6c-0.2,0.5-0.3,1-0.4,1.4c-0.3,1.6-0.2,3.1-0.2,4.5
			c0,0.8,0,1.6,0,2.3c0,1.1,0,2.1,0,3.1c0,0.8,0,1.6,0,2.4c0,0.9-0.1,1.7-0.1,2.6c-0.1,1-0.1,2.1-0.1,3.2c0,0.8,0,1.5,0,2.3
			c0,1.2-0.1,2.4,0,3.7c0.1,1,0.1,2.1,0,3.2c0,0.9,0,1.7,0,2.6c0,0.4-0.1,0.8-0.1,1.1c-0.1,0.5-0.2,0.9-0.1,1.3c0.1,1,0.1,2,0,3.1
			c0,0.7-0.1,1.4-0.1,2.1c0,0.1,0,0.3,0,0.4c0,0.1-0.1,0.5,0,0.6c0.3,0.2,0.4,0.5,0.5,0.8c0,0.3,0,0.5,0,0.9c0,0.1,0,0.3-0.1,0.4
			c-0.1,1.1-0.1,2.1-0.2,3.2c0,0.7-0.1,1.4-0.1,2.1c0,0.4,0,0.7,0,1.1c0,0.6,0.1,1.1,0,1.5c-0.4,1.3-0.3,2.5-0.2,3.7v0.3
			c0.1,1.2,0.1,2.4,0.1,3.6l0.1,3.1c0,0.8,0.1,1.7,0,2.5s-0.1,1.7-0.1,2.5v1.6c0,1.3,0,2.6-0.3,3.9c-0.2,0.6-0.2,1.3-0.1,2.1
			c0,0.2,0.1,0.4,0.1,0.6c0.1,0.7,0.2,1.2,0.1,1.6l-0.1,0.7c-0.2,1.2-0.4,2.5-0.1,3.7c0,0.2,0.1,0.4,0,0.6c-0.2,0.9-0.2,1.6-0.2,2.3
			c0,0.7,0.1,1.4,0.1,2.1c0.1,1.2,0.3,2.3-0.1,3.5c-0.1,0.4,0,0.8,0.1,1.2L18.9,108.2z"/>
	</g>
	<g>
		<path class="st0" d="M419.8,124.1c-0.1,0-0.3,0-0.4,0c-1.2,0.1-2.5,0.3-3.7,0.4l-0.7,0.1c-0.9,0.1-1.8,0.2-2.6,0.1
			c-1-0.1-2.1-0.2-3.4-0.2c-0.6,0-1.3,0-1.9,0c-0.8,0-1.7,0.1-2.5-0.1c-0.6-0.1-1.1-0.2-1.7-0.1s-1.1-0.1-1.7-0.3
			c-0.2-0.1-0.4-0.2-0.6-0.2c-0.4-0.2-0.8-0.4-1.3-0.5c0-0.9-0.2-2-1-2.9c0.2-1.4,0.1-2.7,0-4c0-0.6-0.1-1.3-0.1-1.9
			c0-0.1,0-0.2,0.1-0.3c0.1-0.4,0.3-1,0.1-1.8c-0.2-0.9-0.3-1.9-0.3-3.1c0-0.3,0.1-0.9-0.4-1.5c0-0.1,0.1-0.2,0.1-0.4
			c0.2-0.2,0.3-0.4,0.4-0.7c0.1-0.5,0-0.9-0.1-1.2c0.1-0.4,0.2-0.9-0.2-1.5c0.2-0.8,0.4-1.9-0.2-3.1c0.3-1,0.2-1.9,0.1-2.7
			c0-0.5-0.1-0.9-0.1-1.3c0.1-0.7-0.1-1.3-0.2-1.8c-0.1-0.6-0.2-0.9-0.1-1.2c0.3-0.7,0-1.3-0.1-1.8c-0.1-0.3,0-0.6,0-1.1
			c0-0.4,0.1-0.9,0-1.3c0-0.1,0.1-0.2,0.1-0.3c0.2-0.4,0.5-1.1,0.4-1.9c0.7-1.2,0.6-2.1,0.3-2.8c0.4-0.8,0.3-1.6,0.3-2.2
			c0-0.2,0-0.4,0-0.7c0-0.7,0.1-1.5-0.4-2.4c0.5-1.1,0.4-2.3-0.3-3.2c0.3-0.7,0.2-1.4,0.1-1.8c0-0.1,0-0.2,0-0.3
			c0.3-0.3,0.4-0.7,0.4-1.1c0-0.3-0.1-0.5-0.2-0.7c0.1-0.6,0.2-1.2,0.1-1.9c0-0.2-0.1-0.5-0.1-0.7s-0.1-0.4-0.1-0.5
			c0.1-0.8,0-1.4-0.2-2.1c0.2-0.3,0.3-0.8,0.3-1.4c0.7-1.3,0.1-2.1-0.3-2.4c0.1-0.6-0.1-1.1-0.2-1.5c1.2-0.8,1.1-1.8,1-2.3
			c-0.1-0.4-0.1-0.8-0.2-1.2c-0.1-0.8-0.2-1.7-0.6-2.6c0.5-0.6,0.5-1.3,0.5-1.7c0-0.1,0-0.1,0,0c0.1-0.4,0.1-0.7,0-1.1
			c0.1-0.2,0.2-0.5,0.2-0.9c0-0.1,0-0.3-0.1-0.4c0.2-0.4,0.2-0.8,0.2-1.1s-0.1-0.8-0.5-1.2c0-0.6-0.1-1.1-0.4-1.7
			c0.4-0.7,0.3-1.4,0.3-1.9c0-0.1,0-0.3,0-0.4c0.4-0.5,0.4-1.3,0.1-1.8c-0.2-0.3-0.1-0.6,0-1.4c0.1-0.2,0.1-0.5,0.1-0.7
			c0.1-0.7,0.3-1.8-0.4-3.1c-0.1-0.1-0.1-0.2-0.2-0.3c0.5-0.7,0.3-1.5,0.2-2l0,0c0.9-2,0.7-4,0.3-5.6c-0.1-0.4-0.2-0.8-0.4-1.1
			c0-0.1,0.1-0.2,0.1-0.3c0.4-1.2,0.9-2.6,0.4-4.2c0.4-0.6,0.4-1.2,0.4-1.6v-0.4c0-0.7,0-1.5-0.3-2.3c0.3-0.5,0.3-1,0.2-1.3
			c-0.1-0.7-0.6-1.3-1.4-1.7c-0.3-0.1-0.5-0.3-0.8-0.4s-0.5-0.3-0.7-0.4c-0.4-0.2-0.8-0.3-1.1-0.3c-0.5,0-1.4,0.2-1.8,1.5
			c-0.2,0.6-0.3,1.1-0.4,1.6v0.2c-0.3,1.6-0.2,3.1-0.2,4.6c0,0.7,0,1.5,0,2.2c0,1.1,0,2.2,0,3.2c0,0.8,0,1.6,0,2.3
			c0,0.8-0.1,1.7-0.1,2.5c-0.1,1.1-0.1,2.2-0.1,3.3c0,0.7,0,1.5,0,2.3c0,1.2-0.1,2.5,0,3.8c0.1,1,0.1,2,0,3c0,0.9-0.1,1.8,0,2.7
			c0,0.2-0.1,0.5-0.1,0.8c-0.1,0.5-0.2,1.1-0.1,1.7c0.1,0.9,0.1,1.9,0,2.9c0,0.7-0.1,1.4-0.1,2.1c0,0.1,0,0.1,0,0.2
			c-0.1,0.4-0.2,1.3,0.4,1.8c0,0.1,0,0.3,0,0.5s0,0.3-0.1,0.4c-0.1,1.1-0.1,2.2-0.2,3.3c0,0.7-0.1,1.4-0.1,2c0,0.4,0,0.9,0,1.3
			s0.1,0.8,0,1c-0.4,1.5-0.3,2.9-0.3,4.2v0.3c0.1,1.2,0.1,2.4,0.1,3.6c0,0.8,0,1.5,0,2.3c0,0.3,0,0.6,0,0.9c0,0.8,0.1,1.5,0,2.3
			c-0.1,0.9-0.1,1.8-0.1,2.7v1.6c0,1.3,0,2.4-0.3,3.5c-0.2,0.8-0.3,1.6-0.1,2.6c0,0.3,0.1,0.5,0.1,0.8c0.1,0.4,0.2,0.9,0.1,1.1
			l-0.1,0.7c-0.2,1.3-0.4,2.7,0,4.3c0,0.1,0,0.1,0,0.1c-0.2,0.9-0.2,1.6-0.2,2.3c0,0.8,0.1,1.5,0.2,2.2c0.1,1.1,0.2,2.1,0,2.9
			s0,1.5,0.1,1.9l0.1,0.4c0,0.1,0,0.2,0.1,0.1c-0.3,2.1-0.2,4.1,0.1,6c0,0.2,0,0.3,0,0.4c0,0.3,0,0.7-0.1,1.1
			c-0.1,0.7-0.2,1.6,0,2.5c0.1,0.6,0.2,1.6-0.2,2.6c-0.4,0.8-0.3,1.6,0.2,2.3c-0.1,0.4-0.1,0.7-0.1,1s0,0.5,0,0.6
			c-0.2,0.6-0.2,1.2,0,1.7c0.1,0.1,0.1,0.2,0.2,0.3c-0.5,1.1-0.3,2.2,0.6,3.1c0.8,0.9,1.9,1.8,3.4,1.8c0.3,0,0.5,0.1,0.7,0.1
			c0.4,0.1,0.9,0.2,1.4,0.2c0.1,0,0.3,0,0.5,0c0.9-0.1,2.2-0.1,3.4-0.1h1.1c0,0,0.1,0,0.2,0c0.6,0,1.2,0,1.7-0.1
			c0.7,0,1.4-0.1,2.1-0.1c1.3,0.1,2.6,0,4.5-0.2c0.8-0.1,1.6-0.3,2.4-0.4c0.4-0.1,0.8-0.2,1.2-0.2c0.3-0.1,0.7-0.1,1.1-0.1h0.2
			c0.7,0,1.3,0,2-0.2c1.1-0.3,2.2-0.4,3.3-0.4c0.8,0,2.4-0.1,3-2.2c0.4-1.3,0.1-2.5-0.6-3.5C422.6,124,421.2,123.6,419.8,124.1z
			 M397.6,76.9c0,0.1,0,0.1-0.1,0.1l-1.2-0.8l0,0L397.6,76.9z"/>
		<path class="st0" d="M397.4,133.9c-0.6,0-1.2-0.1-1.7-0.2c-0.2,0-0.4-0.1-0.5-0.1c-2.1-0.1-3.4-1.2-4.3-2.2c-1-1.1-1.4-2.5-1-3.9
			c-0.3-0.8-0.3-1.7,0-2.6c0,0.1,0,0,0-0.1c0-0.2,0-0.5,0-0.7c-0.5-0.9-0.5-2.1-0.1-3.1c0.3-0.7,0.3-1.3,0.2-1.8
			c-0.3-1.1-0.1-2.1-0.1-2.9c0-0.4,0.1-0.6,0.1-0.9c0-0.1,0-0.3,0-0.5c-0.3-1.9-0.3-3.8-0.1-5.9l-0.1-0.3c-0.1-0.5-0.4-1.5-0.1-2.7
			c0.2-0.6,0.1-1.4,0-2.4c-0.1-0.8-0.2-1.6-0.2-2.4c0-0.7,0.1-1.5,0.2-2.4c-0.4-1.7-0.1-3.3,0.1-4.5l0.1-0.6c0-0.1-0.1-0.4-0.1-0.7
			c-0.1-0.4-0.1-0.6-0.1-0.9c-0.2-1.2-0.1-2.2,0.2-3.2c0.3-0.9,0.3-2,0.2-3.2v-1.6c0-0.9,0-1.9,0.1-2.9c0.1-0.6,0-1.3,0-2v-1
			c0-0.6,0-1.3,0-1.9v-0.4c0-1.2,0-2.3-0.1-3.5v-0.3c-0.1-1.3-0.2-2.9,0.3-4.6c0-0.1,0-0.3,0-0.5c0-0.5-0.1-1,0-1.5
			c0-0.7,0.1-1.3,0.1-2c0-1.2,0.1-2.2,0.2-3.3c0-0.1,0-0.2,0-0.3c-0.6-0.9-0.4-2.1-0.4-2.5c0-0.7,0-1.4,0.1-2.2
			c0.1-0.9,0.1-1.8,0-2.6c-0.1-0.9,0-1.6,0.2-2.2c0-0.2,0.1-0.4,0.1-0.5c0-0.9,0-1.9,0-2.8c0-1,0.1-2,0-2.9c-0.1-1.4-0.1-2.7,0-4
			c0-0.8,0-1.5,0-2.2c0-1.1,0-2.3,0.1-3.4c0-0.8,0.1-1.6,0.1-2.4c0-0.8,0-1.5,0-2.3c0-1.1-0.1-2.2,0-3.3c0-0.7,0-1.4,0-2.1
			c0-1.6-0.1-3.1,0.2-4.8c0.1-0.7,0.2-1.4,0.5-2.1c0.7-1.9,2.7-2.8,4.8-1.8c0.3,0.1,0.5,0.3,0.8,0.5c0.3,0.2,0.5,0.3,0.7,0.4
			c1.6,0.7,2,1.9,2.2,2.7c0.1,0.4,0.1,0.9-0.1,1.5c0.2,0.9,0.2,1.7,0.2,2.3v0.4c0,0.6-0.1,1.2-0.3,1.8c0.3,1.7-0.1,3.1-0.5,4.3
			c0.1,0.3,0.2,0.6,0.3,0.9c0.4,1.6,0.7,3.8-0.2,6c0.1,0.5,0.1,1.1-0.1,1.8c0.8,1.6,0.6,2.9,0.4,3.7c0,0.2-0.1,0.4-0.1,0.7
			c0,0.2-0.1,0.5-0.1,0.7c0.4,0.8,0.5,1.8,0.1,2.6c0,0.6,0,1.2-0.2,1.9c0.2,0.4,0.3,0.9,0.3,1.4c0.3,0.5,0.4,1,0.5,1.5
			c0,0.4,0,0.9-0.1,1.3c0,0.1,0,0.2,0,0.3c0,0.3,0,0.7-0.1,1c0.1,0.4,0,0.7,0,1.1c0,0.3,0,1-0.3,1.7c0.3,0.9,0.4,1.7,0.5,2.4
			c0,0.4,0.1,0.7,0.2,1c0.3,1.1,0,2.2-0.7,3c0,0.2,0.1,0.4,0.1,0.6c0.6,0.9,0.7,2,0.2,3.2c0,0.4-0.1,0.8-0.2,1.2
			c0.1,0.6,0.2,1.3,0.1,2.1l0,0c0,0,0,0.1,0,0.2c0.1,0.3,0.1,0.6,0.1,0.9c0,0.6,0,1.2-0.1,1.8c0.1,0.3,0.2,0.6,0.2,0.9
			c0,0.5-0.1,1.1-0.4,1.5c0.1,0.5,0.1,1,0,1.6c0.5,1.1,0.6,2.3,0.3,3.4c0.3,1,0.3,1.9,0.3,2.5c0,0.2,0,0.4,0,0.5
			c0,0.6,0.1,1.5-0.2,2.3c0.2,0.8,0.3,1.8-0.3,3.1c0,1-0.3,1.7-0.5,2.1c0,0.4,0,0.8-0.1,1.2c0,0.2-0.1,0.5,0,0.6
			c0.2,0.4,0.5,1.4,0.1,2.6c0-0.1,0.1,0.3,0.1,0.5c0.1,0.6,0.3,1.4,0.2,2.2c0,0.3,0,0.6,0,1c0.1,0.8,0.2,1.7,0,2.8
			c0.5,1.2,0.4,2.4,0.2,3.1c0.2,0.5,0.3,1.1,0.2,1.6c0.2,0.5,0.2,1.1,0,1.6c-0.1,0.2-0.1,0.5-0.3,0.7c0.3,0.7,0.2,1.4,0.2,1.7
			c0,1,0.1,1.9,0.3,2.7c0.3,1.1,0.1,2-0.1,2.4c0,0.5,0,1.1,0.1,1.7c0.1,1.2,0.2,2.5,0.1,3.8c0.5,0.8,0.8,1.6,0.9,2.3
			c0.2,0.1,0.4,0.2,0.6,0.3c0.2,0.1,0.3,0.2,0.5,0.2c0.4,0.2,0.8,0.3,1,0.3c1-0.1,1.5,0,2.2,0.1c0.3,0.1,0.7,0.1,1,0.1h1.3
			c2.5-0.1,4,0,5.5,0.2c0.7,0.1,1.3,0,2.1-0.1l0.8-0.1c1.2-0.1,2.5-0.3,3.7-0.4c0.1,0,0.2,0,0.3,0c1.8-0.6,3.8,0.1,4.8,1.6
			c1,1.4,1.3,3,0.8,4.6c-0.8,3-3.4,3.1-4.2,3.2c-1,0.1-2,0.1-3,0.4c-1,0.3-1.9,0.3-2.6,0.3c-0.4,0-0.6,0-0.8,0
			c-0.4,0.1-0.8,0.1-1.1,0.2c-0.9,0.2-1.7,0.4-2.6,0.5c-2,0.2-3.3,0.3-4.7,0.2h-0.4c-0.5,0-0.9,0-1.4,0.1c-0.7,0-1.3,0.1-1.9,0.1
			H402c-1.2,0-2.4,0-3.3,0.1C397.8,133.9,397.6,133.9,397.4,133.9z M392.3,108.2c0.1,0.2,0.2,0.5,0.1,0.7c-0.2,2-0.2,3.9,0.1,5.6
			c0,0.1,0,0.3,0,0.4c0,0.6,0,1-0.1,1.5c-0.1,0.7-0.1,1.4,0,2.1c0.2,0.8,0.3,2.1-0.3,3.4c-0.2,0.3-0.1,0.7,0.1,0.9
			c0.2,0.3,0.3,0.7,0.3,1s0,0.6,0,0.8c0,0.4,0,0.8-0.1,1.1c-0.1,0.2-0.1,0.5,0,0.6c0.3,0.4,0.4,1,0.2,1.4c-0.3,0.6-0.2,1.2,0.3,1.7
			c0.8,0.8,1.5,1.4,2.5,1.4c0.3,0,0.6,0.1,0.9,0.1c0.5,0.1,1,0.2,1.6,0.1c1-0.1,2.3-0.1,3.6-0.1h1c0.6,0,1.2,0,1.8-0.1
			c0.6,0,1.1-0.1,1.7-0.1h0.6c1.2,0.1,2.4,0,4.3-0.2c0.8-0.1,1.6-0.2,2.3-0.4c0.5-0.1,0.9-0.2,1.3-0.3s0.8-0.1,1.3-0.1
			c0.8,0,1.4,0,1.9-0.2c1.2-0.3,2.4-0.4,3.6-0.5c0.9,0,1.5-0.2,1.8-1.2c0.2-0.9,0.1-1.7-0.4-2.4c-0.4-0.6-1.3-0.8-2-0.5
			c-0.1,0.1-0.3,0.1-0.4,0.1c-1.5,0.1-2.7,0.3-3.9,0.4l-0.7,0.1c-1.2,0.2-2.1,0.2-2.9,0.1c-1.4-0.2-3.1-0.2-4.9-0.1h-1.5
			c-0.5,0-1,0-1.4-0.1s-0.8-0.1-1.3-0.1c-0.8,0.1-1.7-0.1-2.4-0.4c-0.2-0.1-0.4-0.2-0.6-0.3c-0.4-0.2-0.7-0.3-1.1-0.4
			c-0.6-0.1-1-0.7-1-1.2c0-0.9-0.2-1.6-0.7-2.1c-0.3-0.3-0.4-0.7-0.3-1.1c0.2-1.2,0.1-2.5,0-3.7c-0.1-0.7-0.1-1.4-0.1-2
			c0-0.2,0-0.4,0.1-0.6c0.1-0.3,0.2-0.7,0.1-1.1c-0.3-1.1-0.4-2.2-0.3-3.5c0-0.2,0-0.5-0.1-0.7c-0.2-0.3-0.3-0.7-0.2-1.1l0.1-0.3
			c0-0.2,0.1-0.4,0.3-0.6c0.1-0.2,0.1-0.3,0-0.5c-0.2-0.3-0.2-0.7-0.1-1c0,0,0-0.1-0.1-0.4c-0.2-0.3-0.3-0.7-0.2-1
			c0.2-0.6,0.3-1.4-0.1-2.2c-0.2-0.3-0.2-0.6-0.1-0.9c0.2-0.8,0.1-1.5,0.1-2.3c-0.1-0.6-0.1-1.1-0.1-1.5c0-0.5,0-0.9-0.1-1.4
			c-0.1-0.7-0.3-1.3,0-2c0.1-0.2,0-0.5-0.1-0.8c-0.2-0.6-0.1-1.1-0.1-1.7c0-0.3,0.1-0.8,0.1-1s0-0.4,0-0.6c0-0.1,0.1-0.4,0.2-0.4
			c0.2-0.3,0.4-0.7,0.3-1.2c0-0.3,0-0.6,0.2-0.8c0.5-0.8,0.3-1.3,0.2-1.6c-0.2-0.3-0.1-0.7,0-1.1c0.2-0.5,0.2-1,0.2-1.6
			c0-0.2,0-0.5,0-0.7c0-0.6,0.1-1.3-0.2-1.9c-0.2-0.3-0.2-0.7,0-1.1c0.1-0.2,0.2-0.5,0.2-0.7c-0.1,0-0.3-0.1-0.4-0.2l-1.2-0.8
			c-0.6-0.4-0.8-1.2-0.4-1.8c0.3-0.6,1-0.8,1.6-0.5c0-0.1,0-0.2,0-0.3c0-0.2,0-0.3-0.1-0.4c0-0.4,0.1-0.7,0.4-1
			c-0.2-0.3-0.2-0.9-0.2-1.2c0.1-0.4,0.1-0.9,0.1-1.5c0-0.2-0.1-0.4-0.1-0.6c-0.1-0.3-0.1-0.6-0.1-0.9c0-0.6,0-1.1-0.2-1.6
			c-0.1-0.3-0.1-0.7,0.1-1c0.1-0.2,0.1-0.5,0.1-0.8c0-0.2,0-0.4,0.1-0.6c0.3-0.6,0.1-0.7,0-0.8c-0.3-0.3-0.5-0.7-0.4-1.2
			c0-0.3-0.1-0.7-0.2-0.8c-0.2-0.6,0-1.2,0.5-1.6c0.4-0.3,0.5-0.5,0.4-0.9s-0.2-0.8-0.2-1.3c-0.1-0.8-0.2-1.6-0.5-2.3
			c-0.2-0.5-0.2-1,0.2-1.4c0.1-0.2,0.2-0.4,0.2-0.6c0-0.2,0-0.5,0-0.7c-0.1-0.3-0.1-0.9,0-1.2c0-0.1,0.1-0.2,0-0.3
			c-0.1-0.3-0.1-0.8,0-1s0.1-0.3,0.1-0.5s-0.1-0.3-0.2-0.5c-0.2-0.3-0.3-0.6-0.3-0.9c0-0.3-0.1-0.6-0.2-1c-0.2-0.4-0.2-0.8,0-1.2
			s0.2-0.9,0.1-1.2c0-0.1,0-0.4,0-0.5c0-0.3,0.1-0.5,0.3-0.7c0-0.1,0.1-0.2,0-0.3c-0.5-0.8-0.3-1.6-0.1-2.4c0.1-0.3,0.1-0.5,0.1-0.6
			c0.1-0.6,0.2-1.3-0.3-2.2c-0.1-0.1-0.2-0.2-0.2-0.4c-0.2-0.5-0.2-1,0.1-1.4c0.1-0.2,0.1-0.5,0-0.9c-0.1-0.3,0-0.6,0.1-0.9
			c0.8-1.6,0.5-3.4,0.2-4.7c-0.1-0.3-0.1-0.5-0.2-0.6c-0.3-0.4-0.3-0.9-0.1-1.3c0.5-1.4,0.8-2.5,0.5-3.7c-0.1-0.4,0-0.8,0.2-1.1
			c0.1-0.2,0.2-0.5,0.2-0.8v-0.4c0-0.6,0-1.3-0.2-1.9c-0.1-0.4-0.1-0.8,0.1-1.1c0.1-0.2,0.1-0.3,0.1-0.4s-0.1-0.4-0.7-0.7
			c-0.3-0.1-0.5-0.3-0.8-0.4c-0.3-0.2-0.6-0.3-0.8-0.4c-0.2-0.1-0.4-0.2-0.5-0.2s-0.4,0-0.6,0.6c-0.2,0.5-0.3,1-0.4,1.4
			c-0.3,1.6-0.2,3.1-0.2,4.5c0,0.8,0,1.6,0,2.3c0,1,0,2.1,0,3.1c0,0.9,0,1.6,0,2.4c0,0.9-0.1,1.7-0.1,2.6c-0.1,1-0.1,2.1-0.1,3.2
			c0,0.7,0,1.5,0,2.2c0,1.3-0.1,2.5,0,3.8c0.1,1,0.1,2.1,0,3.2c0,0.9-0.1,1.7,0,2.6c0,0.4-0.1,0.8-0.1,1.1c-0.1,0.5-0.2,0.9-0.1,1.3
			c0.1,1,0.1,2.1,0,3.1c0,0.7-0.1,1.4-0.1,2c0,0.1,0,0.3,0,0.4c0,0.1-0.1,0.5,0,0.6c0.3,0.2,0.4,0.5,0.5,0.8c0,0.3,0,0.5,0,0.8
			c0,0.2,0,0.3-0.1,0.4c-0.1,1-0.1,2.1-0.2,3.1c0,0.8-0.1,1.4-0.1,2.1c0,0.4,0,0.7,0,1.1c0,0.6,0.1,1.1,0,1.5
			c-0.4,1.3-0.3,2.5-0.2,3.7v0.3c0.1,1.2,0.1,2.4,0.1,3.6v0.4c0,0.6,0,1.3,0,1.9v0.9c0,0.8,0.1,1.7,0,2.5s-0.1,1.7-0.1,2.5v1.6
			c0,1.3,0,2.6-0.3,3.9c-0.2,0.6-0.2,1.3-0.1,2.1l0.1,0.6c0.1,0.8,0.2,1.3,0.2,1.7l-0.1,0.7c-0.2,1.2-0.4,2.5-0.1,3.7
			c0,0.2,0.1,0.4,0,0.6c-0.2,0.9-0.2,1.6-0.2,2.3c0,0.7,0.1,1.4,0.1,2c0.1,1.2,0.3,2.3-0.1,3.5c-0.1,0.4,0,0.8,0.1,1.2L392.3,108.2z
			"/>
	</g>
	<g>
		<path class="st0" d="M325.5,74.3l0.4,3.3c0.1,7.3-1.9,15.9-5.8,25.9c-4.4,11.4-9.7,19.4-15.7,24.1c-3.4,2.7-7,4.1-10.6,4.2
			c-1.9,0-3.7-0.4-5.2-1.3c-1.6-0.9-2.3-2.2-2.3-4c2.3-2.4,3.4-8.5,3.4-18.2c0-5.8-0.5-14.3-1.4-25.7c-1-11.4-1.4-19.9-1.4-25.5
			l0.5-17c0-2.7-0.6-6.4-1.7-11s-1.7-7.9-1.7-9.8c0-3.6,4-5.4,11.9-5.4h2.3c10.5,0,18.2,5.9,22.9,17.7c3.3,8.2,5,19.6,5,34.1v7.2
			C325.7,73.3,325.5,73.8,325.5,74.3z M297,107.9v14.8c3.9-2.5,7.3-6,10.1-10.6c2.9-4.5,5.1-9.4,6.6-14.8
			c2.8-10.2,4.2-20.5,4.2-30.7c0-11.7-1.5-20.9-4.4-27.7c-3-7-6.7-11.6-11.1-13.8c-2.7-1.4-5.8-2.1-9.2-2v0.2
			c0,9.3,0.6,23.4,1.9,42.2S297,98.4,297,107.9z"/>
	</g>
	<g>
		<path class="st0" d="M272.4,126.6c-0.3-0.3-0.3-0.5-0.3-0.6c0.3-1,0.2-1.9-0.2-2.9c-0.4-0.9-0.5-2-0.7-3.1c-0.1-0.7-0.2-1.3-0.3-2
			c-0.1-0.5-0.2-1-0.2-1.6c-0.1-1-0.2-2.1-0.6-3.1c0.2-0.7,0.1-1.3,0-1.7c0-0.1-0.1-0.2-0.1-0.4c-0.1-0.8-0.4-1.6-0.6-2.2
			c0.5-1,0.3-1.7,0-2.2c0-1.1-0.2-2.1-0.4-3.1c-0.1-0.5-0.2-0.9-0.2-1.4c-0.1-0.9-0.2-1.8-0.3-2.7l-0.1-0.8c0-0.4-0.1-0.7-0.2-1.1
			c-0.1-0.3-0.2-0.6-0.1-0.7c0.2-0.5,0.2-1-0.1-1.5c-0.3-0.5-0.3-1.1-0.4-1.9c0-0.7-0.1-1.4-0.3-2.2c0-0.1-0.1-0.4-0.1-0.7
			c0-0.4,0-1.2-0.4-1.9c0.1-0.3,0.1-0.7-0.1-1.2c0.2-1.4-0.2-2.7-0.9-3.5c0.2-0.4,0.5-1,0.3-1.7c-0.1-0.3-0.2-0.6-0.5-1
			c0-0.1,0-0.2-0.1-0.2c0.3-0.4,0.3-0.9,0.2-1.3l-0.1-0.4c-0.2-0.4-0.3-0.8-0.3-1.2c0-1.1,0-2.2-0.4-3.4c0-0.1-0.1-0.2-0.1-0.4
			c-0.1-0.2-0.2-0.4-0.2-0.4c0.1-0.8-0.1-1.5-0.2-2c-0.1-0.2-0.1-0.4-0.1-0.6c-0.1-0.8-0.6-1.5-1.3-1.7c0-0.2-0.1-0.4-0.1-0.6
			c0-0.3-0.1-0.6,0-0.7c0.5-0.7,0.2-1.7-0.3-2.2c-0.2-0.2-0.2-0.5-0.2-1.3c0-0.4,0-0.9-0.1-1.4c0-0.2,0-0.5,0-0.8
			c0.1-0.8,0.2-1.9-0.6-3c-0.5-0.7-0.7-1.3-0.8-1.9c-0.1-0.8-0.4-1.3-0.6-1.7c-0.1-0.1-0.2-0.4-0.2-0.4c0.1-0.8-0.1-1.6-0.3-2.2
			c-0.2-0.6-0.2-0.9-0.1-1.2c0.2-0.5,0.1-1-0.1-1.4v-0.1c0.2-1-0.6-1.6-0.9-1.9c0,0,0,0,0-0.1c1.2-1.1,0.7-2.5,0.5-3.1l-0.1-0.2
			v-0.1c0.1-1,0-1.8-0.5-2.4c0-0.1,0.1-0.2,0.1-0.4c0-0.3,0-0.5-0.1-0.7c0-0.1,0.1-0.2,0.1-0.3c0.2-0.6,0-1.1-0.4-1.8
			c0-0.1,0.1-0.2,0.1-0.3c0.1-0.4,0.1-0.9-0.4-1.5c0-0.1,0.1-0.2,0.1-0.3c0.1-0.6-0.1-1.2-0.7-1.8c-0.2-0.2-0.3-0.4-0.5-0.6
			c0.3-1.4,0.2-3.1-0.6-4.1c-0.3-0.4-0.4-0.9-0.4-1.6c0-0.1,0-0.2,0-0.3c0.1-0.5,0.2-1.5-0.5-2.3c0.1-0.9-0.1-1.8-0.3-2.5
			c-0.1-0.3-0.1-0.5-0.2-0.8c-0.1-0.5-0.2-0.8-0.4-1.1c0.4-0.5,0.3-1.1,0.3-1.4c-0.1-0.9-0.5-1.7-0.8-2.2c-0.1-0.2-0.3-0.5-0.4-0.7
			c-0.2-0.6-0.7-1.1-1.2-1.3c-0.1-0.2-0.3-0.3-0.5-0.5c-0.6-0.4-1.4-0.3-2,0.2l0,0c-0.1,0-0.2,0-0.4,0c-1.4,0-1.8,1.4-2,1.9
			c-0.1,0.4-0.2,0.7-0.3,1.1c-0.1,0.5-0.2,0.9-0.3,1.1c-0.4,0.5-0.6,1.1-0.7,1.6c0,0.2-0.1,0.4-0.1,0.4c-0.3,0.2-0.7,0.6-0.7,1.4
			c0,0.1,0,0.2,0,0.4c-0.3,0.1-0.6,0.4-0.8,0.8c-0.3,0.5-0.3,1.1-0.1,1.5c0,0.1,0,0.1-0.1,0.4c-0.5,0.2-1.1,0.7-1.1,1.6l-0.2,0.8
			c-0.2,0.8-0.5,1.5-0.7,2.2c-0.2,0.4-0.4,0.9-0.5,1.3c-0.6,1.4-1.3,2.9-1.4,4.8c-0.9,0.8-1.3,1.9-1.1,3.1c-0.5,0.4-0.7,0.9-0.8,1.1
			c0,0.1,0,0.1-0.1,0.2c-0.3,0.4-0.3,0.8-0.2,1.3c-0.1,0.2-0.1,0.5-0.1,0.8c0,0.1-0.1,0.2-0.2,0.3c-0.4,0.6-0.6,1.2-0.6,1.8
			c-0.3,0.3-0.5,0.7-0.6,1.3c-0.3,1.5-0.6,2.7-1.1,3.8c-0.4,1-0.8,2.2-0.7,3.5c-0.8,0.8-1,1.8-1.1,2.5c0,0.2-0.1,0.4-0.1,0.6
			c-0.1,0.3-0.1,0.8,0,1.2c0,0.1-0.1,0.2-0.1,0.3c-0.7,0.4-1.2,1.1-1.5,2c-0.2,0.2-0.4,0.5-0.5,0.9c0,0.2,0,0.5,0.1,0.7v0.1
			c-0.2,0.6-0.3,1.2-0.4,1.7c-0.1,0.5-0.2,0.9-0.3,1.3c-0.1,0.3-0.2,0.7-0.1,1c-0.7,0.6-0.9,1.3-1.2,2c-0.1,0.2-0.1,0.4-0.1,0.5
			c-0.2,0.1-0.4,0.3-0.6,0.5c-0.2,0.3-0.3,0.7-0.2,1.3V72c-0.1,0.2-0.2,0.3-0.3,0.5c-0.4,0.7-0.9,1.5-0.9,2.8
			c-0.3,0.3-0.5,0.7-0.6,1.4c-0.1,1.2-0.5,2.4-1,3.6c-0.5,1.3-1,2.7-1.1,4.2c-0.1,0.8-0.5,1.9-1,2.8c-0.7,1.6-1,3.2-1.4,4.7
			c-0.2,1.1-0.5,2.1-0.8,3c-0.5,1.6-1.1,3.5-1.5,5.5c0,0.1-0.1,0.3-0.2,0.5c-0.2,0.5-0.7,1.5-0.3,2.6c-0.4,0.5-0.5,1.1-0.6,1.5
			c-0.1,0.2-0.1,0.4-0.2,0.5c-0.8,1.4-1.1,3-1.4,4.5c-0.2,1-0.5,2-0.8,3c-0.1,0.4-0.2,0.8-0.3,1.2c-0.2,0.8-0.5,1.5-0.8,2.3
			c-0.3,0.7-0.6,1.4-0.8,2.3c-0.3,0.6-0.3,1.1-0.3,1.5c-0.4,0.5-0.6,1.1-0.7,1.5c0,0.1-0.1,0.3-0.1,0.4c-0.3,0.7-0.5,1.4-0.6,2.1
			c-0.2,0.9-0.4,1.6-0.8,2.2c-0.7,0.8-0.4,2-0.2,2.5c0.4,1,0.9,1.6,1.6,1.7c0.3,0.1,0.6,0.3,0.9,0.5c0.3,0.2,0.6,0.4,0.9,0.5
			c0.3,0.1,0.7,0.4,1.3,0.4s1.1-0.3,1.6-0.7c0-0.1,0.2-0.2,0.3-0.2c0.5-0.4,1.7-1.1,1.6-2.7c0.3-0.5,0.4-1.1,0.4-1.4
			c0-0.1,0-0.3,0-0.2c0.2-0.3,0.3-0.5,0.4-0.8c0.4-0.4,0.6-0.9,0.6-1.2c0.2-0.6,0.3-1.3,0.3-1.8c0-0.4,0.1-0.9,0.2-1.1l0.3-0.5
			c0.4-0.9,0.9-1.7,1.1-2.8c0.1-0.3,0.3-0.7,0.5-1.1c0.3-0.5,0.6-1.2,0.7-1.9c0.1-0.8,0.4-1.6,0.6-2.5c0.3-1.1,0.6-2.2,0.8-3.5
			c0-0.4,0.2-0.7,0.3-1.2c0.2-0.4,0.3-0.8,0.4-1.3c0.1-0.3,0.2-0.8,0.1-1.3c1.1-1.3,1.7-2.9,1.5-4.7c0.1-0.1,0.1-0.3,0.2-0.5
			c0.1-0.2,0.2-0.4,0.3-0.6c0.3-0.6,0.7-1.4,0.5-2.3c0-0.1,0.1-0.3,0.2-0.4c0.2-0.5,0.6-1.3,0.4-2.3c0-0.1,0-0.2,0-0.4
			c0.7-0.9,1-2,1.3-2.9v-0.1c0.5-0.2,1-0.4,1.5-0.7c0.7-0.3,1.4-0.7,2.1-0.8c0.8-0.1,1.6-0.4,2.3-0.6c0.9-0.3,1.7-0.6,2.5-0.6
			c0.5,0,0.9-0.2,1.2-0.3c0.1,0,0.2-0.1,0.3-0.1l0.4-0.1c1-0.3,2-0.6,2.9-0.6h0.5c1.5,0,2-0.1,3.3-1c0.8,0.2,1.6,0,2.3-0.3
			c0.6-0.3,1.4-0.4,2.1-0.5l0.7-0.1c1.5-0.3,3.2-0.4,5-0.3c0,0.4,0.2,0.6,0.2,0.6c0,0.1,0,0.4,0,0.7c0,0.6,0,1.3,0.3,2.1v0.1
			c0,0.2,0,0.3,0,0.5c0,0.7,0,1.5,0.5,2.2c0,0,0,0,0,0.1c-0.2,0.6-0.1,1.1-0.1,1.6c0.1,0.7,0.2,1.3,0.4,1.9c0.2,0.7,0.3,1.3,0.3,1.9
			c0,0.7,0.2,1.2,0.3,1.6c0,0.1,0.1,0.2,0.1,0.3c-0.2,1.2,0,2.3,0.1,3.3c0.1,0.7,0.2,1.3,0.2,2c0,0.8,0.3,1.3,0.6,1.7
			c-0.2,0.5-0.2,1,0.1,1.4c0,0.1,0,0.4,0,0.7c0,0.3-0.1,0.6-0.1,0.9c0,0.6,0.2,1.1,0.3,1.6c0.1,0.3,0.2,0.6,0.2,0.7
			c-0.1,1.5,0.2,2.9,0.4,4.3c0.1,0.7,0.2,1.3,0.3,2c0.3,2.5,0.8,5.2,1.4,8.1c0.2,0.9,0.4,1.7,0.5,2.5l0.1,0.4c0.1,1,0.4,3,2.5,3.6
			c0.6,0.2,1.2,0.3,1.7,0.3c1,0,1.8-0.3,2.6-0.9c0.6-0.4,2.2-1.6,1.5-3.9C272.9,127.6,272.8,127.1,272.4,126.6z M245.5,79.8
			c-0.8,0-1.4,0.4-1.7,0.7l0,0c-0.9-0.3-2,0-2.8,0.2c-0.3,0.1-0.6,0.2-0.7,0.2c-0.9,0.1-1.7,0.3-2.5,0.5c-0.6,0.2-1.2,0.3-1.8,0.4
			h-0.1c-0.4,0-0.8,0.2-1,0.4c-0.3,0.3-0.4,0.4-0.5,0.4s-0.4,0.1-0.6,0.1h-0.2c0.1-0.3,0.1-0.6,0.1-0.8c0.1-0.2,0.2-0.4,0.3-0.7
			c0.1-0.5,0-1-0.3-1.4c-0.1-0.2-0.2-0.3-0.2-0.6c1-0.4,1.4-1.4,1.4-2.3c0-0.1,0.1-0.2,0.1-0.3c0.1-0.3,0.3-0.7,0.4-1.3
			c0.1-0.1,0.2-0.2,0.3-0.3c0.2-0.3,0.4-0.9,0.1-1.6c0.2-0.2,0.4-0.3,0.6-0.5c0.2-0.3,0.4-0.6,0.3-1.1c0.4-0.4,0.6-0.9,0.7-1.1
			c0.3-0.5,0.2-1.2-0.1-1.7c-0.2-0.3-0.4-0.5-0.7-0.7c0-0.1,0.1-0.2,0.3-0.5c0.1-0.2,0.3-0.4,0.4-0.6l0.1-0.2c0.6-1,1.2-2.1,1.3-3.6
			c0.6-0.1,1.1-0.6,1.3-1.2c0.2-0.5,0-1.1-0.3-1.4c0.1-0.2,0.2-0.4,0.2-0.5c0.1-0.1,0.1-0.3,0.2-0.4c0.3-0.6,0.6-1.4,0.6-2.4
			c0-1.1,0.4-1.9,1.3-2.5c0.7-0.4,0.9-1,0.9-1.4s0-0.7-0.2-1c0.4-0.6,0.5-1.3,0.3-1.9l0,0c0.1-0.1,0.1-0.2,0.2-0.4
			c0.5-0.2,0.7-0.5,0.8-0.7c0.2-0.3,0.2-0.5,0.3-0.8c0.2-0.3,0.4-0.7,0.3-1c0-0.1,0.1-0.3,0.2-0.5c0.2-0.5,0.6-1.3,0.4-2.3
			c0.4-0.4,0.5-0.8,0.6-1.1v-0.1c0.3-0.3,0.4-0.6,0.4-1c0.3-0.3,0.5-0.7,0.6-1.2c0.1-0.6-0.1-1-0.4-1.4c0-0.1-0.1-0.1-0.2-0.1
			c0.1-0.2,0.2-0.4,0.3-0.7c0.4-0.1,0.8-0.3,1.1-0.7c0.6-0.7,0.6-1.8,0.6-2.1c0-0.1,0-0.2,0.1-0.3c0.1-0.3,0.2-0.8,0.1-1.4
			c0.2-0.1,0.4-0.2,0.6-0.4c0.3-0.3,0.4-0.7,0.4-1c0,0.1,0.1,0.1,0.1,0.2c0,0.2-0.1,0.4-0.1,0.6v0.2c0,0.3,0,0.8,0.1,1.3
			c0.1,0.6,0.3,0.9,0.6,1.2c-0.2,0.4-0.2,0.9-0.1,1.4c0.1,0.4,0.4,0.8,0.7,1.1c0,0.1-0.1,0.2-0.1,0.3c-0.1,0.5,0,1.2,0.5,1.6v0.1
			c0.1,0.3,0.3,0.8,0.8,1.2c0.3,0.2,0.6,0.4,1,0.4c0,0.3,0.1,0.6,0.2,0.8c-0.1,0.1-0.1,0.2-0.1,0.2c-0.1,0.3-0.2,0.6-0.1,0.8
			c-0.2,0.3-0.3,0.6-0.3,0.9c0,0.3,0,0.7,0.3,1.1c-0.1,0.3-0.2,0.6-0.2,1c0,0.5,0.2,1,0.6,1.4c-0.2,0.7-0.3,1.9,0.5,3
			c-0.1,0.1-0.3,0.3-0.4,0.4c-0.2,0.3-0.3,0.8-0.1,1.5c0.1,0.2,0.2,0.3,0.3,0.5c-0.3,0.5-0.3,1-0.2,1.3c0.2,0.7,0.7,1,1,1.2
			c0,0.1,0.1,0.2,0.2,0.3c0.1,0.2,0.3,0.4,0.4,0.7c0.1,0.1,0.2,0.2,0.3,0.3c-0.7,0.2-1.1,0.9-1,1.7c0,0.3,0.1,0.6,0.3,1
			c0.1,0.2,0.2,0.5,0.4,0.7c0,0,0,0.1-0.1,0.1c-0.5,0.9-0.5,1.7,0.2,2.4l0,0c0,0.3,0,0.6,0.1,0.9s0.3,0.5,0.5,0.7
			c-0.4,1.1-0.3,2.8,0.4,4c-0.2,0.7,0,1.3,0.1,1.7c0,0.1,0.1,0.3,0.1,0.2c-0.4,1.2,0.1,2.3,0.4,3.1l0.1,0.1c0.2,0.5,0.2,1.1,0.2,1.8
			c0,0.4,0,0.8,0.1,1.2c-1,0.1-1.9,0.4-2.7,0.6c-0.4,0.1-0.8,0.1-1.3,0.2c-0.4,0-0.8,0-1.3,0.1c-0.2,0-0.4,0.1-0.7,0.1
			c-0.8,0.1-1.6,0.2-2.4,0.5c-0.1,0-0.3,0-0.5,0.1c-0.5,0-1.4,0.1-2.2,0.7C245.8,79.8,245.7,79.8,245.5,79.8z"/>
	</g>
	<g>
		<path class="st0" d="M152.1,123.1c0-0.5,0-1.2-0.3-1.8c-0.4-1-0.6-2-0.8-2.9c-0.3-1.4-0.6-2.9-0.8-4.3l-0.4-2.3
			c0-0.2-0.1-0.5-0.2-0.7c-0.1-0.2-0.1-0.4-0.1-0.6c-0.1-1-0.3-2-0.5-2.9c-0.2-0.8-0.3-1.6-0.4-2.3c-0.1-0.5-0.2-0.9-0.3-1.3
			c-0.1-0.3-0.2-0.7-0.2-0.8c0.1-1.1-0.1-2-0.3-2.8c-0.1-0.5-0.3-1-0.3-1.4c0-1.5-0.4-3-0.6-4.1c-0.3-1.2-0.6-2.5-0.6-3.7
			c0.1-0.9-0.1-1.7-0.3-2.4c-0.1-0.4-0.2-0.7-0.2-1.1c-0.1-1.2-0.3-2.3-0.6-3.4c-0.1-0.7-0.3-1.4-0.4-2.1v-0.3
			c-0.1-0.7-0.2-1.5-0.6-2.4c-0.1-0.2-0.2-0.3-0.3-0.5s-0.2-0.4-0.2-0.5c0.4-0.5,0.4-1.2,0.2-1.7c-0.1-0.1-0.1-0.3-0.2-0.4
			c0-0.4-0.2-0.7-0.2-1c0-0.1,0-0.1-0.1-0.2c0.3-0.6,0.1-1.2-0.3-1.7c0.2-1,0-1.8-0.2-2.5c-0.1-0.4-0.2-0.8-0.2-1.1
			c0.1-0.6-0.2-1.1-0.4-1.5c0.1-0.8-0.1-1.4-0.2-1.8c0-0.1-0.1-0.2-0.1-0.3c0.2-0.4,0.1-0.9-0.1-1.3c0-0.1-0.1-0.2-0.2-0.4
			c0.1-0.9,0.3-2.1-0.4-3.2c0.1-0.8-0.2-1.5-0.4-2c-0.1-0.3-0.2-0.5-0.2-0.7c-0.1-0.8-0.3-1.6-0.5-2.4c-0.2-0.7-0.4-1.4-0.4-2.1
			c0-0.8-0.3-1.5-0.5-2.1s-0.4-1.2-0.3-1.7c0.1-0.6-0.1-1.2-0.3-1.6c0-0.1-0.1-0.3-0.1-0.4c0-1.7-0.6-3.2-1.2-4.5
			c0.2-0.4,0.1-0.8,0.1-1.1l0,0c0.1-0.1,0.1-0.3,0.1-0.5c0.1-0.5-0.1-1.1-0.6-1.5v-0.1c0.2-0.9-0.1-1.5-0.4-1.9
			c0.1-0.8-0.1-1.5-0.2-2c-0.1-0.4-0.2-0.7-0.2-1c0-0.5-0.1-0.9-0.4-1.3c0-0.3-0.1-0.6-0.2-1c-0.1-0.9-0.3-1.7-0.5-2.5
			c-0.2-0.6-0.3-1.3-0.4-1.8c-0.1-0.6-0.3-1.2-0.4-1.7c-0.1-0.4-0.2-0.7-0.3-1c0-0.3-0.1-0.7-0.1-1c-0.1-0.9-0.3-1.7-0.2-2.5
			c0-0.7-0.1-2-1-2.7c-0.2-0.1-0.3-0.2-0.3-1c0-0.5-0.2-1-0.6-1.5c-0.5-0.5-1.8-1.3-2.8-0.9c-0.4-0.2-0.8-0.3-1.2-0.3
			c-1.5,0-2.8,1.1-3.1,2.6c-0.1,0.8-0.4,1.6-0.7,2.5c-0.4,1.1-0.8,2.3-1.2,3.5c-0.3,0.9-0.6,1.9-1,2.8c-0.2,0.5-0.3,1-0.3,1.4
			c-0.1,0.4-0.1,0.8-0.3,1c-0.7,1.1-1.2,2.2-1.6,3.3l-0.2,0.5c-0.3,0.8-0.4,1.5-0.6,2.2c-0.2,0.8-0.3,1.5-0.6,2.2l-0.3,0.6
			c-0.5,1.1-1.1,2.4-1.2,3.9c0,0.5-0.2,0.8-0.5,1.4c-0.5,1-0.8,2-1.1,2.9c-0.1,0.4-0.1,0.8-0.1,1.1v0.1c-0.7,0.9-0.9,1.9-1.2,2.8
			c-0.2,0.8-0.4,1.5-0.8,1.9c-0.5,0.4-0.8,1.3-0.5,2c-0.1,0.1-0.2,0.1-0.3,0.2c-0.8,0.6-1.2,1.6-1.5,2.4c-0.1,0.2-0.1,0.3-0.2,0.5
			c-0.3,0.7-0.2,1.4-0.1,1.8c0,0.1,0,0.1,0,0.2l-0.1,0.1c-0.3,0.4-0.8,1-0.8,1.9s-0.4,1.7-0.8,2.6c-0.3,0.8-0.6,1.5-0.8,2.4
			c-0.1,0.4-0.3,0.8-0.5,1.2c-0.3,0.5-0.6,1.2-0.7,1.9c-0.1,0.2-0.1,0.4-0.1,0.7c-0.1,0.4-0.1,0.8-0.3,1c-0.5,1.1-0.8,2.2-0.9,3.2
			c-0.1,0.4-0.1,0.7-0.2,1.1c-0.2,0.6-0.4,1.2-0.6,1.9c-0.3,1-0.7,2-0.9,3.1c-0.1,0.4-0.2,0.8-0.3,1.2c-0.2,0.6-0.4,1.2-0.4,1.9
			c-0.1,0.5-0.1,0.9-0.3,1.1c-0.1,0.1-0.2,0.3-0.3,0.5c-0.4,0.6-0.8,1.4-0.9,2.3c0,0.3-0.1,0.4-0.3,0.7c-0.3,0.4-0.5,0.8-0.6,1.2
			c-0.1,0.8-0.5,1.5-0.8,2.4c-0.4,0.8-0.8,1.7-1,2.7c-0.1,0.5-0.4,1.1-0.6,1.7c-0.4,0.9-0.9,2-0.9,3.2c0,0.7-0.2,1.1-0.4,1.4
			c-1,1.4-1.4,3-1.7,4.5c-0.1,0.6-0.3,1.1-0.4,1.6l-0.2,0.6c-0.2,0.7-0.4,1.4-0.7,2.1c-0.4,0.6-0.4,1.1-0.4,1.5
			c-0.4,0.3-0.7,0.8-0.8,1.4c-0.3,1.2-0.7,2.5-1.2,3.7c-1,0.6-1.4,2.4-1.5,3c-0.2,0.4-0.3,0.7-0.5,0.8c-1,0.9-1.1,2-1.1,2.7
			c0,0.3,0,0.5-0.2,0.7c-0.7,1-0.9,2.1-0.5,3.1c0.5,1.3,1.7,2.1,3.2,2.1c0.5,0,1.1-0.1,1.6-0.4c1-0.5,1.6-1.3,2.2-1.9
			c0.3-0.3,0.5-0.6,0.8-0.9c0.1-0.1,0.2-0.2,0.4-0.3c0.4-0.2,0.8-0.5,1.3-1.1l0.3-0.4c0.9-1.1,1-1.3,1.2-2.1
			c0.1-0.2,0.2-0.6,0.5-1.4c0.5-1.4,0.8-2.9,1.1-4.3l0.1-0.7c0.1-0.8,0.4-1.4,0.6-1.7c0.7-0.9,1-1.9,0.9-3.1c0.8-1,1.1-2.2,1.5-3.2
			l0.2-0.6c0.1-0.2,0.1-0.4,0.2-0.7c0.1-0.4,0.3-0.9,0.4-1.3c0.1-0.3,0.3-0.6,0.5-1c0.3-0.7,0.7-1.4,0.9-2.2c0.5-1.9,1-3.6,1.6-5
			c0.3-0.7,0.4-1.3,0.6-1.9c0.3-1,0.5-1.8,1-2.5c0.2-0.3,0.4-0.7,0.4-1c0.1-0.1,0.2-0.1,0.4-0.2c0.2-0.1,0.4-0.2,0.7-0.3
			c0.5-0.2,1-0.4,1.6-0.8c0.6-0.5,1.3-0.7,2.1-1c0.7-0.2,1.4-0.5,2.2-0.9c0.1-0.1,0.5-0.1,0.8-0.1c0.7,0,1.7-0.1,2.6-0.8l1.2-0.2
			c1.1-0.2,2.3-0.4,3.4-0.6c0.9-0.2,1.7-0.4,2.6-0.6c0.7-0.2,1.5-0.4,2.2-0.5c0.4-0.1,0.9-0.2,1.3-0.3c0.7-0.2,1.4-0.4,2.2-0.5
			c1.2-0.2,2.6-0.4,4-0.4c0.2,0,0.5,0,0.7,0c0,0,0,0,0,0.1c0,0.5,0.1,1.3,0.5,2c-0.1,0.2-0.1,0.4-0.1,0.6l0.1,0.8
			c0.2,1.5,0.4,3,0.8,4.6l0.1,0.2c-0.2,0.8,0,1.4,0.1,1.8c0,0.1,0.1,0.2,0.1,0.3c0.3,1.3,0.6,3.1,0.7,4.7c0.1,1.2,0.3,2.2,0.6,3.3
			c0.3,1.2,0.5,2.3,0.5,3.5c0,0.7,0.2,1.4,0.4,1.9c0.1,0.3,0.2,0.6,0.2,0.9c0.2,1,0.3,2.1,0.5,3.1c0.2,1.3,0.5,2.6,0.7,3.9
			c0.2,1.4,0.6,2.8,0.9,4.1c0.1,0.2,0.1,0.4,0.2,0.6c0.1,0.2,0.1,0.2,0.1,0.4c0,1.8,0.4,3.8,1.3,6.1c0.3,0.8,1.1,1.4,2,1.5
			c2.3,0.2,4.2-0.9,5.8-3.2c0.4-0.6,0.5-1.3,0.2-1.8C152.1,123.9,152.1,123.5,152.1,123.1z M114.5,75.9c0.7-1,1-2.1,1.3-3.1
			c0.1-0.3,0.2-0.7,0.3-1c0.1-0.3,0.2-0.6,0.3-0.9c0.1-0.5,0.3-1,0.5-1.5c0.8-1.6,1.3-3,1.3-4.4c0.5-0.9,0.7-1.8,0.9-2.6
			c0.1-0.5,0.2-0.9,0.3-1.3l0.1-0.3c0.5-1.3,0.9-2.5,1.5-3.7c0.1-0.3,0.2-0.6,0.3-1c0-0.2,0.1-0.3,0.1-0.5c0.1-0.2,0.2-0.7,0.1-1.2
			c0.1-0.2,0.2-0.4,0.2-0.7c0.1-0.5,0.3-1,0.6-1.6c0.3-0.7,0.7-1.4,0.8-2.3c0.1-0.6,0.3-1.2,0.5-1.9c0.3-1,0.6-2,0.7-3.1
			c0-0.1,0.1-0.3,0.2-0.6c0.2-0.5,0.4-1.1,0.3-1.9c0.6-0.6,0.8-1.5,0.9-1.9s0.2-0.7,0.2-1.1c0.1-0.6,0.3-1.3,0.4-1.9
			c0.1-0.8,0.4-1.6,0.8-2.5c0.2-0.4,0.3-0.8,0.5-1.3c0,0.2,0.1,0.4,0.1,0.5c-0.1,1,0.2,1.9,0.4,2.6c0.2,0.7,0.4,1.2,0.2,1.6
			c-0.2,0.9,0.3,1.7,0.6,2.1c0.1,0.2,0.2,0.3,0.2,0.3l0,0c0,0,0,0.1-0.1,0.2c-0.3,0.8-0.1,1.5,0.1,2.1c0.1,0.2,0.1,0.4,0.1,0.5
			c0.1,0.7,0.3,1.3,0.5,1.9c0.2,0.6,0.4,1.1,0.3,1.6c-0.1,1,0.1,1.8,0.3,2.5c0.1,0.2,0.1,0.5,0.2,0.7c0.1,0.4,0.2,0.7,0.3,1.1
			c0.1,0.5,0.3,1,0.3,1.5c0,0.2,0,0.5,0,0.7c0,0.7,0,1.5,0.4,2.3c0.2,0.5,0.3,1,0.4,1.6c0.1,0.7,0.2,1.5,0.6,2.3
			c0.5,1.2,0.7,2.4,0.5,3.6c-0.1,0.7,0.2,1.2,0.4,1.6c-0.1,0.4-0.1,0.8,0.1,1.3c0.3,0.6,0.3,1.3,0.3,2.1c0,0.8,0.1,1.6,0.3,2.5
			c0,0.1,0,0.1,0,0.2c0,0.3,0.1,0.6,0.2,1c0.3,0.7,0.3,1.6,0.4,2.5c0,0.4,0,0.8,0.1,1.3h-0.1c-1.6-0.1-3,0.1-4.2,0.5
			c-0.5,0.2-1,0.2-1.6,0.2c-0.5,0-1.1,0.1-1.7,0.2s-1.1,0.3-1.7,0.5c-0.7,0.2-1.4,0.4-2,0.5c-2.1,0.3-4,0.8-5.6,1.3
			c-0.6,0.2-1.2,0.3-1.9,0.4c-0.8,0.1-1.7,0.2-2.6,0.5c0-0.1,0.1-0.1,0.1-0.2c0.2-0.4,0.3-0.7,0.5-1.1l0.1-0.4
			C114.3,77.7,114.6,76.9,114.5,75.9z"/>
	</g>
	<g>
		<path class="st0" d="M75.4,61.9v-0.5c0-0.3,0-0.7,0-1c0-0.7,0.1-1.4,0-2.1c-0.1-0.8-0.1-1.7-0.1-2.6c0-0.7,0-1.5,0-2.2
			c0-0.2,0.1-0.5,0.1-0.8c0.2-0.7,0.4-1.5,0-2.6l-0.1-0.2c-0.1-0.5-0.3-0.9-0.2-1.2c0.2-1,0.2-2,0.2-2.9c0-0.3,0-0.7,0-1
			c0-0.5,0-1,0-1.5s0-1,0-1.5l0.1-1.5c0-0.6,0.1-1.2,0.1-1.8c0-0.4,0-0.8,0-1.3c0-0.3-0.1-0.7,0-0.9c0.2-1.5,0.3-3.2-0.4-4.9
			c0.6-0.8,0.6-1.7,0.5-2.3c0-0.4-0.1-0.8-0.2-1.2c-0.1-0.7-0.2-1.2,0-1.5c0.3-0.6,0.2-1.2-0.3-1.9c0,0,0,0,0-0.1
			c0.5-0.6,0.6-1.3,0.4-2c-0.1-0.3-0.1-0.6-0.1-1.1c0-0.4,0-0.8,0-1.2c0-0.1,0-0.1,0-0.2c0.1-1.3-0.3-2.1-1.3-2.5
			c-0.1,0-0.2-0.1-0.3-0.1c-0.4-0.2-0.9-0.4-1.5-0.4c-0.1,0-0.1,0-0.2-0.1c-0.2-0.1-0.6-0.2-1-0.2c-0.7,0-1.3,0.3-1.7,0.9
			c-0.1,0.1-0.1,0.2-0.2,0.3l0,0c-0.5,0-0.9,0.3-1.2,0.6c-0.2,0.3-0.5,0.8-0.3,1.6c0,0.1,0,0.3,0,0.4c0,0.3-0.1,0.6,0,1
			c0,0.1,0,0.2,0,0.3c0,0.4-0.1,1.2,0.3,1.9c-0.2,0.3-0.4,0.6-0.5,1.1c-0.1,0.6,0,1.1,0.4,1.6c0.1,0.1,0.1,0.2,0.2,0.4
			c-0.3,0.4-0.5,0.9-0.4,1.4c0,0,0,0,0,0.1c-0.1,0.2-0.2,0.6-0.2,1c0,0.8,0.1,1.6,0.1,2.4c0.1,1.7,0.2,3.3,0.1,4.9
			c0,0.6,0,1.1,0,1.7c0,0.8,0.1,1.6-0.1,2.3c-0.2,1.1-0.1,2.1-0.1,3.1c0.1,0.9,0.1,1.7,0,2.4c-0.3,1.6-0.2,3.2,0,4.7
			c0.1,1.2,0.2,2.2,0.1,3.3c-0.1,1-0.1,2-0.1,3s0,1.8-0.1,2.7l-0.1,0.5c-0.1,0.5-0.1,1.1-0.1,1.7c0.1,1.2,0.2,2.4,0,3.6
			c-0.1,1-0.1,1.9-0.1,2.9c0,0.7,0,1.5-0.1,2.2c-0.1,1.1-0.1,2.2,0,3.2c0,0.7,0,1.4,0,2.1l-0.1,2.5c-0.1,3.2-0.2,6.5-0.6,9.7
			c-0.2,1.9-0.3,3.8-0.4,5.7c-0.1,1.5-0.2,2.9-0.3,4.4c-0.1,0.8,0,1.5,0.1,2.3c0.1,0.7,0.1,1.3,0,1.9c0,0.3-0.1,0.5-0.1,0.8
			c-0.2,1-0.3,2.2-0.2,3.5c0.1,0.7,0.1,1.4,0,2.2c0,0.5-0.1,1.1-0.1,1.6s-0.1,1.1-0.2,1.8c-0.1,0.4-0.1,0.8-0.2,1.2
			c-0.2,2-0.5,4.6-0.4,7.3c0,1,0,2-0.1,3.1c0,0.6-0.1,1.3-0.1,1.9c0,0.7-0.2,1.4-0.3,2.1c-0.2,1.1,0.4,3.4,1.6,4
			c1.1,0.6,2.2,0.9,3.2,0.9c0.5,0,0.9-0.1,1.4-0.2c0.7-0.2,1.1-0.7,1.2-1.1c0.1-0.1,0.1-0.3,0.2-0.4c0.2-0.5,0.5-1.2,0.6-2.1
			c0-0.3,0-0.5,0-0.8c0-0.2,0-0.4,0-0.5c0.7-1.4,0.6-2.9,0.6-4.2c0-0.7,0-1.3,0-1.8c0.1-0.8,0.2-1.8,0-2.8c0-0.2-0.1-0.4-0.2-0.6
			c0.2-0.3,0.4-0.6,0.4-1l0.2-2.1c0.2-2,0.4-4,0.6-6c0-0.5,0.1-1.3-0.3-2c0.1-0.3,0.1-0.7,0.1-1.1c0-0.6-0.1-1.1-0.1-1.6
			c-0.1-0.7-0.2-1.3,0-1.8c0.5-2.1,0.5-4.2,0.5-6.2v-1.2c0-0.1,0.1-0.1,0.1-0.2c0.2-0.4,0.6-1.3-0.1-2.3c0-0.1,0.1-0.4,0.1-0.6
			l0.1-0.2c0.1-0.4,0.2-0.9-0.1-1.4c0.5-1.4,0.4-2.8,0.3-3.9c-0.1-1,0.1-2,0.2-3c0.1-0.6,0.2-1.3,0.2-1.9c0.1-1.2,0.1-2.4,0.1-3.5
			c0-0.7,0-1.3,0-2v-0.5c0-1.8,0.1-3.5,0.3-5.1v-0.3c0.1-0.6,0.2-1.3,0.1-2C75.4,65.9,75.4,64,75.4,61.9z"/>
	</g>
	<g>
		<path class="st0" d="M376.3,16.6c-0.5-0.1-1.1-0.1-1.8-0.1c-0.1,0-0.3,0-0.5,0l0,0c-0.5,0-1.1-0.1-1.6-0.1c-1.1-0.1-2.1-0.2-3.2,0
			c-0.7,0.1-1.3,0-2,0s-1.4-0.1-2,0l-0.8,0.1c-0.7,0.1-1.4,0.1-2,0.1c-1.4-0.2-2.7,0-4,0.2c-0.4,0.1-0.9,0.1-1.3,0.2
			c-1.5,0.2-2.9,0.5-4.3,0.9c-0.4,0.1-0.8,0.2-1.1,0.3c-0.8-0.5-1.6-1-2.6-1c-0.5,0-1.1,0.1-1.5,0.4c-0.1,0.1-0.2,0.1-0.4,0.1
			c-0.5,0.2-1.6,0.5-2.1,1.6c-0.4,0.2-1.4,0.7-1.6,1.8c-0.3,1,0.3,1.9,0.7,2.4c0.5,0.7,0.7,1.4,0.6,2.4c0,0.2-0.1,0.3-0.1,0.5
			c-0.1,0.5-0.3,1.1-0.2,1.8c0.2,1.9-0.1,4-0.3,5.7c-0.2,1.1-0.2,2.2-0.2,3.3s-0.1,2.2-0.2,3.3c-0.2,0.9-0.2,1.9-0.3,2.7
			c0,0.8-0.1,1.5-0.2,2.1c-0.3,1.9-0.5,3.8-0.7,5.7c-0.1,0.8-0.2,1.6-0.2,2.4c0,0.4,0,0.8,0,1.2c0,0.2,0.1,0.5,0,0.6
			c-0.3,1.1-0.3,2.2-0.2,3.1c0,0.3,0.1,0.6,0.1,0.9c0,1,0.1,2.1,0.1,3.1c0,0.7,0.1,1.4,0.1,2c0,0.7,0,1.4-0.1,2.2l-0.1,0.8
			c0,0.7,0,1.4,0,2.1c0,1,0.1,1.9-0.1,2.7c-0.1,0.6-0.1,1.1,0,1.5c0,0.2,0,0.4,0,0.6c-0.1,0.7-0.1,1.4-0.1,2.2
			c-0.1,1.8-0.2,3.5-0.5,5.2c-0.1,0.7-0.2,1.4-0.3,2.2c-0.1,0.7-0.1,1.3-0.2,2c0,0.2-0.1,0.5-0.1,0.7c-0.1,0.7-0.3,1.6-0.2,2.4
			c0,0.5,0,1-0.1,1.6c-0.1,0.5-0.2,1-0.2,1.6c0,0.3-0.1,0.6-0.1,0.8c-0.1,0.4-0.1,0.9-0.1,1.4c0.1,1.8-0.2,3.6-0.5,5.5
			c-0.1,0.5-0.2,1-0.2,1.6c-0.2,1.3-0.1,2.8,0.2,4.1c0.3,1.2,0.3,2.4,0.4,3.7c0,0.5,0,1,0.1,1.4c0,0.3,0,0.5,0.1,0.8
			c0.1,0.5,0.1,1,0,1.4c-0.1,0.7,0,1.4,0.2,1.9c0,0.1,0.1,0.3,0.1,0.4c-0.3,0.3-0.5,0.6-0.5,1s0.1,0.7,0.2,0.9
			c-0.2,0.8-0.1,1.5-0.1,2.2c0,0.5,0,1,0,1.4c-0.1,0.6,0.1,1.1,0.3,1.4c-0.1,0.7-0.2,1.3-0.2,1.9s0,1.1-0.2,1.6
			c-0.2,0.7-0.1,1.3,0,1.8c0,0.3,0.1,0.6,0,0.8c-0.2,1.7,0.7,3.3,2.3,3.9c0.3,0.2,0.7,0.4,1.4,0.4c0.3,0,0.7-0.1,1-0.2
			c0.3-0.1,0.6-0.3,0.9-0.5c0.7-0.4,1.2-0.7,1.9-0.4c0.4,0.2,0.9,0.2,1.3-0.1c0.1,0,0.3,0,0.4-0.1c0.1,0,0.2,0,0.3-0.1
			c0.2-0.1,0.4-0.1,0.5-0.3l0,0c1,0.2,2.1,0.1,3.1-0.1c0.8-0.1,1.6-0.2,2.2-0.1c1,0.2,2.1,0.2,3.3,0.1c0.4,0,0.9-0.1,1.3-0.1h0.2
			c1.3,0,2.6-0.1,3.7-0.3c0.2,0,0.3-0.1,0.3-0.1c1.2,0.5,2.9,0.4,3.9,0.1c0.3-0.1,0.7-0.1,1.2-0.1h0.5c0.5,0,1.2,0,1.9-0.2
			c0.6-0.1,3-1.3,3.3-3c0.1-1-0.1-1.8-0.8-2.2c-0.2-1.4-1.2-2.3-2.5-2.3h-0.2l-0.2-0.1c-0.6-0.9-1.7-1.2-2.6-0.6
			c-0.8,0.6-1.9,0.6-3.1,0.6h-0.5c-0.5-0.1-0.9-0.1-1.3,0.1c-0.7,0.3-1.5,0.3-2.4,0.4c-0.3,0-0.6,0-0.9,0.1c-0.2,0-0.4,0-0.6,0h-1.1
			c-0.6,0-1.4,0-2.1,0.3c-0.5-0.3-1-0.3-1.5,0c-0.6-0.4-1.6-0.4-2.2,0c-0.1,0-0.1,0-0.2,0c-0.5-0.1-1-0.1-1.5,0s-1.2,0.2-1.8,0.2
			c-0.5,0-1,0-1.6,0.1c0-0.4,0-0.9,0-1.5c0-0.4,0.1-0.7,0.1-1.1c0-0.5,0-1.1,0-1.7v-1c0-1.2,0-2.5,0-3.8c0-1,0-1.9,0.1-2.9
			s0.1-2,0.1-3c0-0.5,0-1-0.1-1.5c0-0.8-0.1-1.6-0.1-2.4c0-0.7,0-1.5,0.1-2.2c0-1.1,0.1-2.3,0-3.5c0-0.7,0-1.5,0-2.2
			c0-0.4,0-0.8,0-1.1c0-1.2,0.1-2.4,0.3-3.6c0.1-0.5,0.1-1,0.2-1.6l0.1-1.5c0.1-1.2,0.2-2.5,0.4-3.7V85c0.1-0.6,0.2-1.4,0.1-2.2
			v-0.1c1.7-0.6,3.3-0.9,5-1c0.4,0,0.8,0,1.2-0.1c2-0.1,4.3-0.1,6.3-1.8l0.2-0.1c0.4-0.3,1.4-1,1.2-2.4c-0.1-1.2-0.8-2-1.9-2.4
			c-0.8-0.8-1.8-1.2-3.1-1.2c-0.4,0-0.8,0-1.1,0.1c-0.3,0-0.5,0-0.7,0h-0.1c-2,0-4.1,0.2-5.9,0.5c0.3-1.2,0.3-2.6,0-4
			c-0.1-0.6-0.1-1.2,0-1.9c0-0.4,0-0.7,0.1-1.1c0-0.6,0.1-1.3,0.1-1.9c0.1-0.7,0.1-1.5,0.1-2.2c0-0.9,0-1.8-0.1-2.7
			c-0.1-1.8-0.2-3.5,0.2-5.2c0.1-0.6,0.2-1.3,0.1-1.9c0-0.3,0-0.5-0.1-0.8c-0.1-0.8-0.1-1.2,0.1-1.6c0.5-0.8,0.5-1.9,0-2.9
			c0.1-1.2,0.2-2.5,0.3-3.7c0.1-1,0.1-1.9,0.2-2.9c0.1-1.1,0.2-2.3,0.2-3.5c0-0.9,0.1-1.8,0.2-2.7c0-0.5,0.1-1.1,0.1-1.6
			c0.1-1.6,0.3-3.2,0.2-4.8v-0.4c0-0.3,0-0.9,0-1.2c0.7-0.5,1.5-0.8,2.2-0.8V25l0,0l0.2,1.5h0.5c0.9,0,1.9-0.1,2.8-0.6
			c0.7-0.3,1.3-0.5,2-0.4c0.1,0,0.2,0,0.3,0c0.9,0.2,1.8,0,2.4-0.5c1.2,0.1,2.4-0.1,3.6-0.3l0.3-0.1c1.6-0.3,3.2-0.4,4.8-0.4
			c0.9,0,1.8,0,2.8,0.1c0.3,0,0.5,0.1,0.8,0.1c1.7,0,2.5-1,2.9-1.8c0.3-0.6,0.5-1.3,0.7-1.9l0.1-0.2c0.3-0.9,0.5-2-0.1-2.9
			C378.1,17,377,16.7,376.3,16.6z"/>
	</g>
	<g>
		<path class="st0" d="M474.1,16.6c-0.5-0.1-1.1-0.1-1.8-0.1c-0.1,0-0.3,0-0.5,0l0,0c-0.5,0-1.1-0.1-1.6-0.1c-1.1-0.1-2.1-0.2-3.2,0
			c-0.7,0.1-1.3,0-2,0s-1.4-0.1-2,0l-0.8,0.1c-0.7,0.1-1.4,0.1-2,0.1c-1.4-0.2-2.7,0-4,0.2c-0.4,0.1-0.9,0.1-1.3,0.2
			c-1.5,0.2-2.9,0.5-4.3,0.9c-0.4,0.1-0.8,0.2-1.1,0.3c-0.8-0.5-1.6-1-2.6-1c-0.5,0-1.1,0.1-1.5,0.4c-0.1,0.1-0.2,0.1-0.4,0.1
			c-0.5,0.2-1.6,0.5-2.1,1.6c-0.4,0.2-1.4,0.7-1.6,1.8c-0.3,1,0.3,1.9,0.7,2.4c0.5,0.7,0.7,1.4,0.6,2.4c0,0.2-0.1,0.3-0.1,0.5
			c-0.1,0.5-0.3,1.1-0.2,1.8c0.2,1.9-0.1,4-0.3,5.7c-0.2,1.1-0.2,2.2-0.2,3.3s-0.1,2.2-0.2,3.3c-0.2,0.9-0.2,1.9-0.3,2.7
			c0,0.8-0.1,1.5-0.2,2.1c-0.3,1.9-0.5,3.8-0.7,5.7c-0.1,0.8-0.2,1.6-0.2,2.4c0,0.4,0,0.8,0,1.2c0,0.2,0.1,0.5,0,0.6
			c-0.3,1.1-0.3,2.2-0.2,3.1c0,0.3,0.1,0.6,0.1,0.9c0,1,0.1,2.1,0.1,3.1c0,0.7,0.1,1.4,0.1,2c0,0.7,0,1.4-0.1,2.2l-0.1,0.8
			c0,0.7,0,1.4,0,2.1c0,1,0.1,1.9-0.1,2.7c-0.1,0.6-0.1,1.1,0,1.5c0,0.2,0,0.4,0,0.6c-0.1,0.7-0.1,1.4-0.1,2.2
			c-0.1,1.8-0.2,3.5-0.5,5.2c-0.1,0.7-0.2,1.4-0.3,2.2c-0.1,0.7-0.1,1.3-0.2,2c0,0.2-0.1,0.5-0.1,0.7c-0.1,0.7-0.3,1.6-0.2,2.4
			c0,0.5,0,1-0.1,1.6c-0.1,0.5-0.2,1-0.2,1.6c0,0.3-0.1,0.6-0.1,0.8c-0.1,0.4-0.1,0.9-0.1,1.4c0.1,1.8-0.2,3.6-0.5,5.5
			c-0.1,0.5-0.2,1-0.2,1.6c-0.2,1.3-0.1,2.8,0.2,4.1c0.3,1.2,0.3,2.4,0.4,3.7c0,0.5,0,1,0.1,1.4c0,0.3,0,0.5,0.1,0.8
			c0.1,0.5,0.1,1,0,1.4c-0.1,0.7,0,1.4,0.2,1.9c0,0.1,0.1,0.3,0.1,0.4c-0.3,0.3-0.5,0.6-0.5,1s0.1,0.7,0.2,0.9
			c-0.2,0.8-0.1,1.5-0.1,2.2c0,0.5,0,1,0,1.4c-0.1,0.6,0.1,1.1,0.3,1.4c-0.1,0.7-0.2,1.3-0.2,1.9s0,1.1-0.2,1.6
			c-0.2,0.7-0.1,1.3,0,1.8c0,0.3,0.1,0.6,0,0.8c-0.2,1.7,0.7,3.3,2.3,3.9c0.3,0.2,0.7,0.4,1.4,0.4c0.3,0,0.7-0.1,1-0.2
			c0.3-0.1,0.6-0.3,0.9-0.5c0.7-0.4,1.2-0.7,1.9-0.4c0.4,0.2,0.9,0.2,1.3-0.1c0.1,0,0.3,0,0.4-0.1c0.1,0,0.2,0,0.3-0.1
			c0.2-0.1,0.4-0.1,0.5-0.3l0,0c1,0.2,2.1,0.1,3.1-0.1c0.8-0.1,1.6-0.2,2.2-0.1c1,0.2,2.1,0.2,3.3,0.1c0.4,0,0.9-0.1,1.3-0.1h0.2
			c1.3,0,2.6-0.1,3.7-0.3c0.2,0,0.3-0.1,0.3-0.1c1.2,0.5,2.9,0.4,3.9,0.1c0.3-0.1,0.7-0.1,1.2-0.1h0.5c0.5,0,1.2,0,1.9-0.2
			c0.6-0.1,3-1.3,3.3-3c0.1-1-0.1-1.8-0.8-2.2c-0.2-1.4-1.2-2.3-2.5-2.3h-0.2l-0.2-0.1c-0.6-0.9-1.7-1.2-2.6-0.6
			c-0.8,0.6-1.9,0.6-3.1,0.6H463c-0.5-0.1-0.9-0.1-1.3,0.1c-0.7,0.3-1.5,0.3-2.4,0.4c-0.3,0-0.6,0-0.9,0.1c-0.2,0-0.4,0-0.6,0h-1.1
			c-0.6,0-1.4,0-2.1,0.3c-0.5-0.3-1-0.3-1.5,0c-0.6-0.4-1.6-0.4-2.2,0c-0.1,0-0.1,0-0.2,0c-0.5-0.1-1-0.1-1.5,0s-1.2,0.2-1.8,0.2
			c-0.5,0-1,0-1.6,0.1c0-0.4,0-0.9,0-1.5c0-0.4,0.1-0.7,0.1-1.1c0-0.5,0-1.1,0-1.7v-1c0-1.2,0-2.5,0-3.8c0-1,0-1.9,0.1-2.9
			s0.1-2,0.1-3c0-0.5,0-1-0.1-1.5c0-0.8-0.1-1.6-0.1-2.4c0-0.7,0-1.5,0.1-2.2c0-1.1,0.1-2.3,0-3.5c0-0.7,0-1.5,0-2.2
			c0-0.4,0-0.8,0-1.1c0-1.2,0.1-2.4,0.3-3.6c0.1-0.5,0.1-1,0.2-1.6l0.1-1.5c0.1-1.2,0.2-2.5,0.4-3.7V85c0.1-0.6,0.2-1.4,0.1-2.2
			v-0.1c1.7-0.6,3.3-0.9,5-1c0.4,0,0.8,0,1.2-0.1c2-0.1,4.3-0.1,6.3-1.8l0.2-0.1c0.4-0.3,1.4-1,1.2-2.4c-0.1-1.2-0.8-2-1.9-2.4
			c-0.8-0.8-1.8-1.2-3.1-1.2c-0.4,0-0.8,0-1.1,0.1c-0.3,0-0.5,0-0.7,0h-0.1c-2,0-4.1,0.2-5.9,0.5c0.3-1.2,0.3-2.6,0-4
			c-0.1-0.6-0.1-1.2,0-1.9c0-0.4,0-0.7,0.1-1.1c0-0.6,0.1-1.3,0.1-1.9c0.1-0.7,0.1-1.5,0.1-2.2c0-0.9,0-1.8-0.1-2.7
			c-0.1-1.8-0.2-3.5,0.2-5.2c0.1-0.6,0.2-1.3,0.1-1.9c0-0.3,0-0.5-0.1-0.8c-0.1-0.8-0.1-1.2,0.1-1.6c0.5-0.8,0.5-1.9,0-2.9
			c0.1-1.2,0.2-2.5,0.3-3.7c0.1-1,0.1-1.9,0.2-2.9c0.1-1.1,0.2-2.3,0.2-3.5c0-0.9,0.1-1.8,0.2-2.7c0-0.5,0.1-1.1,0.1-1.6
			c0.1-1.6,0.3-3.2,0.2-4.8v-0.4c0-0.3,0-0.9,0-1.2c0.7-0.5,1.5-0.8,2.2-0.8V25l0,0l0.2,1.5h0.5c0.9,0,1.9-0.1,2.8-0.6
			c0.7-0.3,1.3-0.5,2-0.4c0.1,0,0.2,0,0.3,0c0.9,0.2,1.8,0,2.4-0.5c1.2,0.1,2.4-0.1,3.6-0.3l0.3-0.1c1.6-0.3,3.2-0.4,4.8-0.4
			c0.9,0,1.8,0,2.8,0.1c0.3,0,0.5,0.1,0.8,0.1c1.7,0,2.5-1,2.9-1.8c0.3-0.6,0.5-1.3,0.7-1.9l0.1-0.2c0.3-0.9,0.5-2-0.1-2.9
			C476,17,474.9,16.7,474.1,16.6z"/>
	</g>
</g>
<g id="Layer_2">
</g>
<g id="Layer_3">
</g>
<g id="Layer_4">
</g>
<g>
	<g>
		<path class="st1" d="M541.1,97.1l-0.1,0.1c-0.2,0.7-0.2,1.9-0.3,3.4c0,1.5-0.2,3.1-0.6,4.8c-0.4,1.7-0.8,5.9-1.3,12.5
			c-0.5,6.6-0.8,11.1-0.8,13.5c0,0.2-0.1,0.4-0.4,0.7c-0.3,0.3-0.5,0.4-0.8,0.4c-0.3,0-0.6-0.1-0.8-0.4c-0.2-0.3-0.4-0.7-0.5-1.3
			c-0.1-0.6-0.2-1-0.2-1.5c0-0.7-0.1-1.6-0.1-2.6c0-1-0.1-2-0.2-3c-0.1-1-0.3-2.2-0.6-3.5c-0.2-1.3-0.4-2.3-0.5-3.2
			c-0.1-0.8-0.5-4.2-1.2-10.2c-1.9-15.8-3-24.1-3.5-24.8c0.3-0.6,0.8-0.9,1.3-0.9c0.5,0,1,0.4,1.3,1.2c0.3,0.8,0.6,1.9,0.7,3.2
			c0.2,1.3,0.3,2.6,0.4,3.8c0.1,1.2,0.2,2.5,0.2,3.7c0.1,1.2,0.2,2.7,0.3,4.5c0.2,1.7,0.7,5.5,1.5,11.5c0.9,5.9,1.4,10.1,1.7,12.4
			h0.1c0-2.1,0.2-4.5,0.5-7.3c0.3-2.7,0.5-4.5,0.6-5.2c0.1-0.7,0.2-1.6,0.4-2.6c0.2-1,0.3-1.8,0.4-2.4c0-0.6,0.1-2.2,0.3-5
			c0.1-2.7,0.3-4.5,0.3-5.3c0.1-0.8,0.2-1.7,0.3-2.7c0.1-1,0.2-1.8,0.2-2.3l-0.1-1.2c0-0.6,0.3-1,1-1.3c1.3,0,2,0.4,2,1.2l-0.3,0.9
			c0,5,0.9,10.9,2.8,17.8c1.9,6.9,2.8,12.7,2.8,17.5l0.2,0.1c0.1-0.5,0.3-1.9,0.4-4c0.1-2.2,0.5-5.5,1.1-10c0.6-4.5,0.9-7.7,1-9.6
			c0.1-1.9,0.4-4.7,0.9-8.6c0.5-3.9,0.7-6.9,0.7-9l-0.1-1.3c0-1.1,0.6-1.6,1.7-1.6c0.3,0,0.6,0.1,0.9,0.3c0.3,0.2,0.4,0.5,0.4,0.9
			c0,0.4-0.2,0.8-0.7,1.1c0,0.1,0.1,0.2,0.1,0.4c0,0.3-0.1,0.8-0.3,1.5c-0.3,2.6-0.7,7.5-1.3,14.8c-0.6,7.3-1.3,13.5-2.2,18.7
			c-0.9,5.2-1.3,9.4-1.3,12.7v1c0,0.5-0.1,0.9-0.2,1.2c-0.2,0.3-0.5,0.4-1,0.4c-1,0-1.9-3.4-2.4-10.3c-0.2-2.1-0.9-6-2.1-11.9
			c-1.2-5.9-2-10.2-2.3-13L541.1,97.1z M548.1,123.8c-0.1,0-0.1,0-0.1,0.1L548.1,123.8z"/>
		<path class="st1" d="M548.1,132.9c-1.1,0-2.1-1.3-2.9-10.8c-0.2-2-0.9-6-2.1-11.9c-0.8-3.9-1.4-7.2-1.9-9.8v0.1
			c0,1.5-0.2,3.2-0.6,4.9c-0.4,1.7-0.8,5.9-1.3,12.4c-0.5,6.5-0.8,11.1-0.8,13.5c0,0.3-0.2,0.6-0.5,1c-0.4,0.4-0.8,0.6-1.2,0.6
			c-0.3,0-0.8-0.1-1.2-0.6c-0.3-0.4-0.5-0.9-0.6-1.5c-0.1-0.6-0.2-1.1-0.2-1.5c0-0.7-0.1-1.6-0.1-2.6c0-0.9-0.1-1.9-0.2-3
			c-0.1-1-0.3-2.2-0.6-3.4c-0.2-1.3-0.4-2.4-0.5-3.2c-0.1-0.9-0.5-4.4-1.2-10.2c-2.4-20.4-3.2-24.2-3.5-24.6l-0.1-0.2l0.1-0.3
			c0.5-0.9,1.2-1.1,1.7-1.1c0.8,0,1.4,0.5,1.8,1.5c0.3,0.9,0.6,2,0.8,3.4c0.2,1.3,0.3,2.6,0.4,3.9c0.1,1.2,0.2,2.5,0.2,3.7
			c0.1,1.2,0.2,2.7,0.3,4.4c0.2,1.7,0.7,5.6,1.5,11.4c0.4,3,0.8,5.5,1.1,7.6c0.1-0.8,0.2-1.6,0.3-2.5c0.3-2.7,0.5-4.4,0.6-5.1
			c0.1-0.7,0.2-1.6,0.4-2.6c0.2-1,0.3-1.8,0.4-2.3c0-0.6,0.1-2.2,0.3-4.9c0.1-2.8,0.3-4.5,0.3-5.4c0.1-0.8,0.2-1.7,0.3-2.7
			c0.1-1,0.2-1.7,0.2-2.2l-0.1-1.2c0-0.6,0.2-1.3,1.2-1.8l0.2,0c2.2,0,2.5,1.1,2.5,1.7l0,0.2l-0.3,0.8c0,4.9,0.9,10.8,2.8,17.6
			c1.2,4.5,2,8.6,2.5,12.2c0.2-2.1,0.5-5,1-8.6c0.6-4.5,0.9-7.7,1-9.5c0.1-1.9,0.4-4.8,0.9-8.7c0.5-3.9,0.7-6.9,0.7-9l-0.1-1.2
			c0-1.4,0.8-2.1,2.2-2.1c0.4,0,0.8,0.1,1.2,0.4c0.4,0.3,0.6,0.7,0.6,1.3c0,0.5-0.2,0.9-0.7,1.3c0,0.1,0,0.2,0,0.2
			c0,0.3-0.1,0.8-0.3,1.6c-0.3,2.5-0.7,7.3-1.3,14.7c-0.6,7.3-1.3,13.6-2.2,18.7c-0.9,5.2-1.3,9.4-1.3,12.6v1c0,0.6-0.1,1.1-0.3,1.5
			C549.4,132.6,549,132.9,548.1,132.9 M529.7,82.1c0.3,0.9,1.1,4.8,3.5,24.8c0.7,5.8,1.1,9.3,1.2,10.2c0.1,0.8,0.3,1.9,0.5,3.2
			c0.2,1.3,0.4,2.5,0.6,3.5c0.1,1.1,0.2,2.1,0.2,3.1c0,1,0.1,1.8,0.1,2.5c0,0.4,0.1,0.9,0.2,1.4c0.1,0.5,0.2,0.8,0.4,1
			c0.2,0.3,0.4,0.3,0.4,0.3c0.1,0,0.2,0,0.5-0.3c0.2-0.2,0.3-0.3,0.3-0.4c0-2.4,0.3-6.9,0.8-13.5c0.5-6.5,1-10.8,1.3-12.5
			c0.4-1.7,0.6-3.3,0.6-4.7c0-1.5,0.1-2.7,0.3-3.5l0.1-0.3l0.3-0.5l0.9,0.6l0,0.2c0.3,2.8,1.1,7.1,2.3,13c1.2,6,1.9,9.9,2.1,12
			c0.8,9.2,1.8,9.8,1.9,9.9c0.1,0,0.5,0,0.5-0.2c0.1-0.1,0.2-0.4,0.2-1v-1c0-1.8,0.1-3.8,0.4-6.2l-0.7,0.5l-0.1,0.3l-0.2-0.1
			l-0.8,0.6v-1c0,0,0-0.1,0-0.1l-0.1,0v-0.3c0-4.7-0.9-10.5-2.8-17.3c-1.9-6.9-2.8-12.9-2.8-17.9l0-0.2l0.3-0.8
			c0-0.2-0.2-0.6-1.4-0.6c-0.5,0.3-0.6,0.6-0.6,0.8l0.1,1.2c0,0.6-0.1,1.4-0.2,2.4c-0.1,1-0.3,1.9-0.3,2.7c-0.1,0.8-0.2,2.5-0.3,5.3
			c-0.1,2.7-0.2,4.4-0.3,5c0,0.6-0.2,1.4-0.4,2.5c-0.2,1-0.3,1.8-0.4,2.5c-0.1,0.7-0.3,2.4-0.6,5.2c-0.3,2.7-0.5,5.1-0.5,7.2v0.5
			h-1.1l-0.1-0.4c-0.3-2.3-0.8-6.4-1.7-12.4c-0.9-5.9-1.4-9.7-1.5-11.5c-0.2-1.7-0.3-3.2-0.3-4.5c-0.1-1.2-0.1-2.5-0.2-3.7
			c-0.1-1.2-0.2-2.5-0.4-3.8c-0.2-1.3-0.4-2.3-0.7-3.1c-0.2-0.6-0.5-0.9-0.8-0.9C530.2,81.6,530,81.7,529.7,82.1 M548.7,123.3h0.6
			c0.2-1.9,0.5-4,0.9-6.2c0.9-5.2,1.6-11.4,2.2-18.7c0.6-7.4,1-12.2,1.3-14.8c0.2-0.9,0.3-1.2,0.3-1.4c0-0.2,0-0.2,0-0.2l-0.2-0.4
			l0.3-0.2c0.4-0.3,0.5-0.5,0.5-0.8c0-0.2-0.1-0.3-0.2-0.5c-0.2-0.1-0.4-0.2-0.6-0.2c-1,0-1.2,0.4-1.2,1.1l0.1,1.3
			c0,2.2-0.2,5.2-0.7,9.1c-0.5,3.8-0.8,6.7-0.9,8.6c-0.1,1.9-0.5,5.1-1,9.6c-0.6,4.5-0.9,7.8-1,10
			C548.9,121.4,548.8,122.6,548.7,123.3"/>
		<path class="st1" d="M564.3,129.6l4-0.2c2.1,0,3.1,0.4,3.1,1.1c-0.4,0.7-1,1.1-2,1.3c-1,0.2-1.9,0.3-2.8,0.3h-1.6
			c-2,0-3.2-0.2-3.5-0.5c-0.3-0.3-0.5-0.6-0.5-1l0.6-2.5v-0.1c-0.2-0.9-0.3-1.9-0.3-2.9l0.3-6.8l-0.4-14.3l0.3-13.3
			c0-0.8-0.1-2-0.4-3.6c-0.3-1.6-0.4-2.7-0.5-3.5l1.2-1.9l4.7-0.6l0.2,0.2c1,0,1.7,0.1,1.8,0.4c0.2,0.3,0.2,0.6,0.2,0.9
			c0,0.9-0.8,1.3-2.4,1.3l-1.8-0.1c-1,0-1.5,0.3-1.5,0.8l0.5,11.4l-0.3,8.4l-0.1,0.1l0.4,0.2l3.7-0.7c0.2,0,0.5,0.1,0.8,0.4
			c0.3,0.3,0.4,0.5,0.4,0.8c0,0.9-0.3,1.3-1,1.3l-1.5-0.1c-1.7,0-2.6,0.4-2.6,1.3l0.5,5.6l-0.2,0.4v13.6c0.2,0.3,0.4,0.9,0.4,1.9
			V129.6z"/>
		<path class="st1" d="M566.7,132.5h-1.6c-2.8,0-3.5-0.3-3.8-0.6c-0.4-0.4-0.6-0.9-0.6-1.3l0.6-2.6l0,0c-0.2-0.8-0.3-1.8-0.3-2.9
			l0.3-6.9l-0.4-14.3l0.3-13.4c0-0.8-0.1-1.9-0.4-3.5c-0.3-1.6-0.4-2.8-0.5-3.6l0-0.2l1.4-2.2l5.1-0.6l0.3,0.2
			c1.2,0,1.8,0.2,2.1,0.7c0.2,0.4,0.3,0.7,0.3,1.1c0,0.8-0.5,1.8-2.9,1.8l-1.8-0.1c-0.1,0-0.9,0-0.9,0.3l0.5,11.4l-0.3,8.2l3.4-0.6
			c0.4,0,0.8,0.2,1.2,0.5c0.4,0.4,0.6,0.7,0.6,1.1c0,1.7-1.1,1.8-1.5,1.8l-1.6-0.1c-0.9,0-2,0.1-2,0.8l0.5,5.8l-0.2,0.4v13.3
			c0.2,0.4,0.4,1.1,0.4,2v0.1l3.5-0.2c1,0,3.7,0,3.7,1.6v0.1l-0.1,0.1c-0.4,0.8-1.2,1.3-2.3,1.5
			C568.6,132.4,567.6,132.5,566.7,132.5 M561.4,83.5c0,0.7,0.2,1.8,0.4,3.3c0.3,1.6,0.4,2.8,0.4,3.7l-0.3,13.3l0.4,14.3l-0.3,6.9
			c0,1,0.1,2,0.2,2.8l0,0.2l-0.6,2.6c0,0.1,0.1,0.3,0.3,0.5c0,0,0.5,0.3,3.1,0.3h1.6c0.9,0,1.8-0.1,2.7-0.3c0.7-0.1,1.2-0.4,1.6-0.9
			c-0.1-0.2-0.8-0.5-2.6-0.5l-4.5,0.3v-1.2c0-1.2-0.2-1.5-0.2-1.5l-0.1-0.1v-13.9l0.2-0.4l-0.5-5.5c0-0.9,0.5-1.8,3.1-1.8l1.6,0.1
			c0.2,0,0.5,0,0.5-0.8c0-0.1-0.1-0.3-0.3-0.4c-0.2-0.2-0.4-0.2-0.4-0.2l-3.8,0.7l-1.1-0.7l0.5-0.5l0.3-8.2l-0.5-11.4
			c0-0.5,0.3-1.3,2-1.3l1.8,0.1c1.2,0,1.9-0.3,1.9-0.8c0-0.2-0.1-0.4-0.2-0.6c0,0-0.3-0.2-1.4-0.2h-0.2l-0.2-0.2l-4.2,0.5
			L561.4,83.5z"/>
		<path class="st1" d="M590.9,116.1l-0.2,2.9c0,0.1,0.1,0.4,0.2,0.8c-0.4,3.1-1,5.4-1.7,6.6c-0.7,1.3-1.6,2.3-2.5,2.9
			c-0.9,0.7-2.1,1.4-3.6,2c-0.3,0-0.7,0.1-1.3,0.3c-0.6,0.2-1,0.3-1.3,0.3c-1.7,0-2.6-0.3-2.6-0.9l0.3-17l-0.5-28
			c0-3.2,0.6-4.8,1.7-4.8c3.1,0,5.4,1,7,2.9c1.6,2,2.4,4.6,2.4,7.9c0,3.3-1.4,6.9-4.3,10.8c0.6,0.9,1.4,2,2.2,3l1.8,2.5
			c1.2,1.5,1.9,2.9,2.1,4.1C590.8,113.7,590.9,114.9,590.9,116.1 M579.7,86.4l0.3,16.1l0.2,0.1c1.6,0,2.9-0.9,3.9-2.7
			c0.8-1.4,1.5-2.9,2-4.4c0.5-1.5,0.8-2.5,1-2.8V90c0-1.5-0.6-3-1.7-4.4s-2.4-2.1-3.9-2.1C580.3,83.6,579.7,84.5,579.7,86.4
			 M580.3,129.3l0.4,0.1c1.4,0,3-0.7,4.8-2.1c1.8-1.4,2.9-2.6,3.1-3.7c0.2-1.1,0.4-2.4,0.4-4.1c0-8-1.9-12.8-5.8-14.4
			c-0.4,0-1,0.1-1.8,0.4c-0.7,0.2-1.3,0.3-1.5,0.4C580.2,112.3,580.3,120.1,580.3,129.3"/>
		<path class="st1" d="M580.4,132.5c-0.9,0-3.1,0-3.1-1.4l0.3-17l-0.5-27.9c0-1.3,0-5.3,2.2-5.3c3.2,0,5.7,1.1,7.4,3.1
			c1.7,2.1,2.5,4.8,2.5,8.2c0,3.3-1.4,7-4.2,10.8c0.6,0.8,1.2,1.8,2,2.7l1.8,2.5c1.2,1.6,1.9,3,2.2,4.3c0.2,1.2,0.3,2.4,0.3,3.6
			l-0.2,2.9v0c0,0,0,0.1,0.2,0.6l0,0.1l0,0.1c-0.4,3.2-1,5.5-1.8,6.8c-0.8,1.3-1.7,2.4-2.6,3.1c-1,0.7-2.2,1.4-3.7,2.1l-0.2,0
			c-0.2,0-0.5,0.1-1.2,0.3C581.3,132.3,580.8,132.5,580.4,132.5 M579.4,81.8c-0.8,0-1.2,1.6-1.2,4.3l0.5,28l-0.3,17
			c0,0.1,0.4,0.4,2.1,0.4c0.2,0,0.5,0,1.2-0.3c0.6-0.2,1-0.3,1.4-0.4c1.4-0.6,2.6-1.3,3.4-1.9c0.9-0.6,1.7-1.6,2.4-2.8
			c0.7-1.2,1.3-3.3,1.7-6.3c-0.2-0.5-0.2-0.7-0.2-0.8l0.2-2.9c0-1.1-0.1-2.3-0.3-3.4c-0.2-1.1-0.9-2.4-2-3.9l-1.8-2.5
			c-0.8-1.1-1.6-2.1-2.2-3.1l-0.2-0.3l0.2-0.3c2.8-3.8,4.2-7.3,4.2-10.5c0-3.2-0.8-5.7-2.3-7.6C584.5,82.7,582.3,81.8,579.4,81.8
			 M580.7,129.8l-0.9-0.1v-0.4c0-9-0.1-16.9-0.3-23.5l0-0.4l0.4-0.1c0.3,0,0.7-0.2,1.5-0.4c0.8-0.2,1.4-0.4,1.9-0.4l0.1,0l0.1,0
			c4,1.7,6.1,6.7,6.1,14.9c0,1.7-0.1,3.1-0.4,4.2c-0.3,1.2-1.4,2.5-3.3,4C583.9,129.1,582.2,129.8,580.7,129.8 M580.5,106.2
			c0.2,6.4,0.3,14,0.3,22.7c1.2,0,2.7-0.7,4.4-2c1.7-1.3,2.7-2.5,2.9-3.4c0.2-1,0.4-2.4,0.4-4c0-7.7-1.8-12.3-5.3-13.9
			c-0.4,0-0.9,0.1-1.5,0.3C581.2,106,580.8,106.1,580.5,106.2 M580.2,103.1l-0.2,0l-0.5-0.2l-0.3-16.4c0-2.8,1.2-3.4,2.2-3.4
			c1.6,0,3.1,0.8,4.3,2.3c1.2,1.5,1.8,3.1,1.8,4.7l0,2.8c-0.2,0.4-0.5,1.3-1,2.8c-0.5,1.5-1.2,3.1-2,4.5
			C583.4,102.1,581.9,103.1,580.2,103.1 M581.4,84.1c-0.3,0-1.2,0-1.2,2.4l0.3,15.6c1.2-0.1,2.3-0.9,3.1-2.4
			c0.8-1.4,1.4-2.9,1.9-4.3c0.5-1.4,0.8-2.3,1-2.8V90c0-1.4-0.5-2.8-1.6-4.1C583.9,84.7,582.8,84.1,581.4,84.1"/>
		<path class="st1" d="M608.8,121.8l0.1-2.7c0-2.6-0.2-5.7-0.5-9.1c-0.3-3.5-0.5-5.6-0.6-6.5c-0.2-0.4-0.3-3.2-0.3-8.4
			c0-5.2-0.1-8.1-0.1-8.6c-0.1-0.6-0.3-1.2-0.6-2c-0.3-0.8-0.4-1.4-0.4-1.9c0-1.1,1.7-1.6,5-1.6h0.3c1.7,0,3.5,0.9,5.5,2.8
			c2,1.9,3.2,3.6,3.8,5.1c0.6,1.5,1,3.3,1.2,5.4c0.2,2.1,0.3,4,0.4,5.8c0.1,1.7,0.2,2.8,0.4,3.3l-0.1,1.8l0.2,0.3L623,106l0.2,0.3
			c-0.3,0.4-0.4,1-0.4,1.9s0,1.6-0.1,2.3c-0.1,0.7-0.2,1.2-0.3,1.6c-0.1,0.4-0.2,1-0.4,1.8c-0.2,0.8-0.5,2-0.9,3.7
			c-1.2,4.8-3.3,8.3-6.1,10.6c-2.8,2.3-4.5,3.4-5,3.4c-0.5,0-1-0.1-1.6-0.3s-0.8-0.6-0.9-1c0.6-0.8,1-1.7,1-2.7L608.8,121.8z
			 M609,84.1l0.6,11.1c0,2.9,0.2,7.2,0.5,12.8c0.3,5.7,0.5,9.5,0.5,11.5c0,2,0,4.2-0.1,6.6l0.1,0.3v1.9h0.3c1.7-0.9,3.2-2.2,4.5-3.8
			c1.3-1.7,2.3-3.4,3-5.2c0.7-1.8,1.3-3.8,1.8-6c0.7-3.5,1.1-7,1.1-10.3c0-13.1-3.6-19.6-10.8-19.6C609.5,83.3,609.1,83.6,609,84.1"
			/>
		<path class="st1" d="M610,132.2c-0.6,0-1.2-0.1-1.8-0.4c-0.9-0.4-1.1-1-1.2-1.4l0-0.2l0.1-0.2c0.6-0.7,0.9-1.5,0.9-2.4l0.3-5.9
			l0.1-2.7c0-2.6-0.2-5.6-0.5-9.1c-0.3-3.4-0.5-5.5-0.5-6.4c-0.1-0.3-0.3-1.5-0.3-8.5c0-5.1-0.1-8-0.1-8.6c-0.1-0.5-0.2-1.2-0.5-1.9
			c-0.3-0.9-0.5-1.5-0.5-2c0-1.9,3.2-2.1,5.5-2.1h0.3c1.8,0,3.8,1,5.9,3c2,1.9,3.3,3.7,4,5.3c0.6,1.5,1,3.4,1.2,5.6
			c0.2,2.1,0.3,4,0.4,5.8c0.1,2.2,0.3,2.9,0.4,3.1l0.1,0.1l-0.1,1.8l0.2,0.4l-0.2,0.6l0.2,0.4l-0.2,0.3c-0.2,0.3-0.3,0.9-0.3,1.6
			c0,0.8,0,1.6-0.1,2.4c-0.1,0.7-0.2,1.3-0.3,1.7c-0.1,0.4-0.2,1-0.4,1.8c-0.2,0.8-0.5,2-0.9,3.7c-1.2,4.9-3.4,8.6-6.3,10.9
			C610.9,132.2,610.3,132.2,610,132.2 M608,130.5c0.1,0.1,0.2,0.3,0.5,0.4c0.5,0.2,0.9,0.3,1.4,0.3c0.2,0,1-0.3,4.7-3.3
			c2.7-2.2,4.7-5.7,5.9-10.4c0.4-1.7,0.7-2.9,0.9-3.7c0.2-0.8,0.4-1.3,0.4-1.7c0.1-0.4,0.2-0.9,0.3-1.6c0.1-0.7,0.1-1.4,0.1-2.2
			c0-0.8,0.1-1.4,0.3-1.9l-0.2-0.3l0.2-0.6l-0.2-0.3l0.1-1.8c-0.2-0.4-0.3-1.2-0.4-3.4c-0.1-1.8-0.2-3.7-0.4-5.8
			c-0.2-2-0.6-3.8-1.2-5.3c-0.6-1.4-1.8-3.1-3.7-4.9c-1.9-1.8-3.6-2.7-5.2-2.7h-0.3c-4.2,0-4.5,0.8-4.5,1.1c0,0.4,0.1,1,0.4,1.7
			c0.3,0.8,0.5,1.5,0.6,2.1c0.1,0.4,0.1,1.7,0.2,8.7c0,6.8,0.2,8,0.3,8.2l0,0.2c0.1,0.9,0.2,3,0.6,6.5c0.3,3.5,0.5,6.6,0.5,9.2
			l-0.1,2.7l-0.3,5.9C609,128.7,608.6,129.6,608,130.5 M611.1,128.8h-1v-2.3l-0.1-0.3l0-0.1c0.1-2.4,0.1-4.6,0.1-6.6
			c0-2-0.2-5.8-0.5-11.5c-0.3-5.7-0.5-10-0.5-12.9l-0.6-11.1c0-0.5,0.3-1.3,1.9-1.3c7.5,0,11.3,6.8,11.3,20.1
			c0,3.3-0.4,6.8-1.1,10.4c-0.5,2.2-1.1,4.2-1.8,6.1c-0.7,1.9-1.8,3.7-3.1,5.4c-1.3,1.7-2.9,3.1-4.6,4L611.1,128.8z M611,126
			l0.1,0.4v1.2c1.4-0.8,2.7-2,3.9-3.5c1.3-1.6,2.2-3.3,2.9-5.1c0.7-1.8,1.3-3.8,1.7-5.9c0.7-3.5,1.1-6.9,1.1-10.2
			c0-12.7-3.5-19.1-10.3-19.1c-0.3,0-0.9,0-0.9,0.3l0.6,11.1c0,2.9,0.2,7.2,0.5,12.8c0.3,5.7,0.5,9.5,0.5,11.5
			C611.1,121.4,611.1,123.6,611,126"/>
		<path class="st1" d="M633.2,129.6l4-0.2c2.1,0,3.1,0.4,3.1,1.1c-0.4,0.7-1,1.1-2,1.3c-1,0.2-1.9,0.3-2.8,0.3H634
			c-2,0-3.2-0.2-3.5-0.5c-0.3-0.3-0.5-0.6-0.5-1l0.6-2.5v-0.1c-0.2-0.9-0.3-1.9-0.3-2.9l0.3-6.8l-0.4-14.3l0.3-13.3
			c0-0.8-0.1-2-0.4-3.6c-0.3-1.6-0.4-2.7-0.5-3.5l1.2-1.9l4.7-0.6l0.2,0.2c1,0,1.7,0.1,1.8,0.4c0.2,0.3,0.2,0.6,0.2,0.9
			c0,0.9-0.8,1.3-2.4,1.3l-1.8-0.1c-1,0-1.5,0.3-1.5,0.8l0.5,11.4l-0.3,8.4l-0.1,0.1l0.4,0.2l3.7-0.7c0.2,0,0.5,0.1,0.8,0.4
			c0.3,0.3,0.4,0.5,0.4,0.8c0,0.9-0.3,1.3-1,1.3l-1.5-0.1c-1.7,0-2.6,0.4-2.6,1.3l0.5,5.6l-0.2,0.4v13.6c0.2,0.3,0.4,0.9,0.4,1.9
			V129.6z"/>
		<path class="st1" d="M635.6,132.5H634c-2.8,0-3.5-0.3-3.8-0.6c-0.4-0.4-0.6-0.9-0.6-1.3l0.6-2.6l0,0c-0.2-0.8-0.3-1.8-0.3-2.9
			l0.3-6.9l-0.4-14.3l0.3-13.4c0-0.8-0.1-1.9-0.4-3.5c-0.3-1.6-0.4-2.8-0.5-3.6l0-0.2l1.4-2.2l5.1-0.6l0.3,0.2
			c1.2,0,1.8,0.2,2.1,0.7c0.2,0.4,0.3,0.7,0.3,1.1c0,0.8-0.5,1.8-2.9,1.8l-1.8-0.1c-0.1,0-0.9,0-0.9,0.3l0.5,11.4l-0.3,8.2l3.4-0.6
			c0.4,0,0.8,0.2,1.2,0.5c0.4,0.4,0.6,0.7,0.6,1.1c0,1.7-1.1,1.8-1.5,1.8l-1.6-0.1c-0.9,0-2,0.1-2,0.8l0.5,5.8l-0.2,0.4v13.3
			c0.2,0.4,0.4,1.1,0.4,2v0.1l3.5-0.2c1,0,3.7,0,3.7,1.6v0.1l-0.1,0.1c-0.4,0.8-1.2,1.3-2.3,1.5
			C637.5,132.4,636.5,132.5,635.6,132.5 M630.4,83.5c0,0.7,0.2,1.8,0.4,3.3c0.3,1.6,0.4,2.8,0.4,3.7l-0.3,13.3l0.4,14.3l-0.3,6.9
			c0,1,0.1,2,0.3,2.8l0,0.2l-0.6,2.6c0,0.1,0.1,0.3,0.3,0.5c0,0,0.5,0.3,3.1,0.3h1.6c0.9,0,1.8-0.1,2.7-0.3c0.7-0.1,1.2-0.4,1.6-0.9
			c-0.1-0.2-0.8-0.5-2.6-0.5l-4.5,0.3v-1.2c0-1.2-0.2-1.5-0.2-1.5l-0.1-0.1v-13.9l0.2-0.4l-0.5-5.5c0-0.9,0.5-1.8,3.1-1.8l1.6,0.1
			c0.2,0,0.5,0,0.5-0.8c0-0.1-0.1-0.3-0.3-0.4c-0.2-0.2-0.4-0.2-0.4-0.2l-3.8,0.7l-1.1-0.7l0.5-0.5l0.3-8.2l-0.5-11.4
			c0-0.5,0.3-1.3,2-1.3l1.8,0.1c1.2,0,1.9-0.3,1.9-0.8c0-0.2-0.1-0.4-0.2-0.6c0,0-0.3-0.2-1.4-0.2h-0.2l-0.2-0.2l-4.2,0.5
			L630.4,83.5z"/>
		<path class="st1" d="M655.3,132.2c-0.2,0-0.5-0.1-1-0.3c-0.8-3.3-2-9.9-3.5-19.8c-1.5-10-2.6-17.3-3.4-22
			c-0.8-4.7-1.4-7.5-1.9-8.5c0.2-0.5,0.6-0.7,1.3-0.7c0.7,0,1.2,0.8,1.4,2.4c0,0.2,0.2,1.2,0.5,2.8c0.3,1.7,1.1,7.1,2.4,16.3
			c1.3,9.2,2.6,16.3,3.7,21.2c0.2-1.3,0.4-2.6,0.5-3.8c0.1-1.2,0.6-5.8,1.6-13.7c1.7-14.3,2.5-22.3,2.5-24.2v-0.3
			c0.7-0.7,1.2-1,1.7-1l0.4,0.3h-0.1l0.7,0.5c0,0.9-0.2,2.3-0.5,4.2c-0.3,1.8-0.5,3.2-0.5,4.2c-0.5,0.8-1.3,7.2-2.6,19.1
			c-1.3,11.9-1.9,19.2-2,21.8C656.2,131.7,655.7,132.2,655.3,132.2 M654.8,123.8l-0.1,0.2h0.2L654.8,123.8z"/>
		<path class="st1" d="M655.3,132.7c-0.2,0-0.4,0-1.2-0.3l-0.3-0.1l-0.1-0.3c-0.8-3.2-2-9.9-3.5-19.9c-1.5-9.9-2.6-17.2-3.4-22
			c-0.8-4.6-1.4-7.4-1.9-8.3l-0.1-0.2l0.1-0.2c0.2-0.5,0.6-1.1,1.8-1.1c1.5,0,1.8,2.2,1.9,2.9c0,0.2,0.2,1.1,0.5,2.8
			c0.3,1.7,1.1,7,2.4,16.3c1.1,7.6,2.1,13.8,3.1,18.6c0-0.4,0.1-0.8,0.1-1.1c0.1-1.2,0.6-5.6,1.6-13.7c1.6-14.2,2.5-22.3,2.5-24.1
			v-0.5l0.1-0.1c0.3-0.3,0.6-0.6,0.9-0.8l-0.1-0.1h0.3c0.3-0.2,0.6-0.3,0.9-0.3h0.2l1.9,1.3l-0.6,0c0,1-0.2,2.4-0.5,4.2
			c-0.3,1.8-0.5,3.2-0.5,4.1l-0.1,0.2c-0.2,0.4-0.9,3.5-2.5,18.9c-1.3,11.9-1.9,19.2-2,21.7l0,0.2
			C656.8,131.3,656.3,132.7,655.3,132.7 M654.7,131.5c0.4,0.1,0.6,0.1,0.6,0.1c0.2,0,0.5-0.3,0.8-1.1c0.1-2.7,0.7-9.8,2-21.7
			c1.6-15.1,2.2-18.4,2.6-19.2c0-1,0.2-2.4,0.5-4.1c0.3-1.6,0.4-2.9,0.5-3.8l-0.6-0.5c-0.2,0.1-0.5,0.2-1,0.7v0
			c0,1.9-0.8,10.1-2.5,24.3c-0.9,8.1-1.4,12.5-1.6,13.7c-0.1,1.2-0.3,2.5-0.5,3.8l0.5,0.8h-0.6l-0.3,1.6l-0.4-1.6h-0.9l0.7-0.8
			c-1.1-5-2.4-12.1-3.7-21.2c-1.3-9.3-2.1-14.6-2.4-16.3c-0.3-1.7-0.5-2.6-0.5-2.8c-0.2-1.3-0.5-2-0.9-2c-0.5,0-0.7,0.1-0.8,0.2
			c0.5,1.2,1.1,4,1.9,8.4c0.8,4.7,1.9,12.1,3.4,22C652.7,121.6,653.9,128.2,654.7,131.5"/>
		<path class="st1" d="M671.4,129.6l4-0.2c2.1,0,3.1,0.4,3.1,1.1c-0.4,0.7-1,1.1-2,1.3c-1,0.2-1.9,0.3-2.8,0.3h-1.6
			c-2,0-3.2-0.2-3.5-0.5c-0.3-0.3-0.5-0.6-0.5-1l0.6-2.5v-0.1c-0.2-0.9-0.3-1.9-0.3-2.9l0.3-6.8l-0.4-14.3l0.3-13.3
			c0-0.8-0.1-2-0.4-3.6c-0.3-1.6-0.4-2.7-0.5-3.5l1.2-1.9l4.7-0.6l0.2,0.2c1,0,1.7,0.1,1.8,0.4c0.2,0.3,0.2,0.6,0.2,0.9
			c0,0.9-0.8,1.3-2.4,1.3l-1.8-0.1c-1,0-1.5,0.3-1.5,0.8l0.5,11.4l-0.3,8.4l-0.1,0.1l0.4,0.2l3.7-0.7c0.2,0,0.5,0.1,0.8,0.4
			c0.3,0.3,0.4,0.5,0.4,0.8c0,0.9-0.3,1.3-1,1.3l-1.5-0.1c-1.7,0-2.6,0.4-2.6,1.3l0.5,5.6l-0.2,0.4v13.6c0.2,0.3,0.4,0.9,0.4,1.9
			V129.6z"/>
		<path class="st1" d="M673.8,132.5h-1.6c-2.8,0-3.5-0.3-3.8-0.6c-0.4-0.4-0.6-0.9-0.6-1.3l0.6-2.6l0,0c-0.2-0.8-0.3-1.8-0.3-2.9
			l0.3-6.9l-0.4-14.3l0.3-13.4c0-0.8-0.1-1.9-0.4-3.5c-0.3-1.6-0.4-2.8-0.5-3.6l0-0.2l1.4-2.2l5.1-0.6l0.3,0.2
			c1.2,0,1.8,0.2,2.1,0.7c0.2,0.4,0.3,0.7,0.3,1.1c0,0.8-0.5,1.8-2.9,1.8L672,84c-0.1,0-0.9,0-0.9,0.3l0.5,11.4l-0.3,8.2l3.4-0.6
			c0.5,0,0.8,0.2,1.2,0.5c0.4,0.4,0.6,0.7,0.6,1.1c0,1.7-1.1,1.8-1.5,1.8l-1.6-0.1c-0.9,0-2,0.1-2,0.8l0.5,5.8l-0.2,0.4v13.3
			c0.2,0.4,0.4,1.1,0.4,2v0.1l3.5-0.2c1,0,3.7,0,3.7,1.6v0.1l-0.1,0.1c-0.4,0.8-1.2,1.3-2.3,1.5
			C675.7,132.4,674.7,132.5,673.8,132.5 M668.5,83.5c0,0.7,0.2,1.8,0.4,3.3c0.3,1.6,0.4,2.8,0.4,3.7l-0.3,13.3l0.4,14.3l-0.3,6.9
			c0,1,0.1,2,0.3,2.8l0,0.2l-0.6,2.6c0,0.1,0.1,0.3,0.3,0.5c0,0,0.5,0.3,3.1,0.3h1.6c0.9,0,1.8-0.1,2.7-0.3c0.7-0.1,1.2-0.4,1.6-0.9
			c-0.1-0.2-0.8-0.5-2.6-0.5l-4.5,0.3v-1.2c0-1.2-0.2-1.5-0.2-1.5l-0.1-0.1v-13.9l0.2-0.4l-0.5-5.5c0-0.9,0.5-1.8,3.1-1.8l1.6,0.1
			c0.2,0,0.5,0,0.5-0.8c0-0.1-0.1-0.3-0.3-0.4c-0.2-0.2-0.4-0.2-0.4-0.2l-3.8,0.7l-1.1-0.7l0.5-0.5l0.3-8.2L670,84.3
			c0-0.5,0.3-1.3,2-1.3l1.8,0.1c1.2,0,1.9-0.3,1.9-0.8c0-0.2-0.1-0.4-0.2-0.6c0,0-0.3-0.2-1.4-0.2H674l-0.2-0.2l-4.2,0.5L668.5,83.5
			z"/>
		<path class="st1" d="M690.8,131.6l-2.1-0.1c-0.2,0-0.5,0.1-0.9,0.4c-0.4,0.3-0.7,0.4-1,0.4s-0.6-0.1-0.9-0.4
			c-0.3-0.3-0.5-0.6-0.5-1l0.4-3l-0.7-19l-0.7-28c0-0.5,0.3-0.7,0.9-0.7c0.8,0,1.3,0.4,1.3,1.2c0,10.3,0.1,16.9,0.3,19.6
			c0.2,2.8,0.3,4.5,0.3,5.1s0,1.5-0.1,2.6l0.2,0.3c-0.1,1.2-0.1,2.4-0.1,3.6c0,1.2,0.1,3.5,0.3,7c0.2,3.4,0.4,5.9,0.4,7.3
			c-0.2,0.3-0.3,0.7-0.3,1.3c0,0.6,0.1,1.1,0.3,1.3c0.2,0.2,0.6,0.3,1.3,0.3c0.7,0,1.1-0.1,1.4-0.4h2.5c0.6,0.3,0.9,0.7,0.9,1
			c0,0.9-0.3,1.3-0.9,1.3c-0.2,0-0.5-0.1-1-0.3C691.9,131.5,691.4,131.6,690.8,131.6"/>
		<path class="st1" d="M686.7,132.8c-0.4,0-0.9-0.2-1.3-0.6c-0.4-0.4-0.6-0.8-0.6-1.4l0.4-3.1l-0.7-18.9l-0.7-28
			c0-0.3,0.1-1.2,1.4-1.2c1.1,0,1.8,0.6,1.8,1.7c0,10.4,0.1,16.8,0.3,19.6c0.2,2.8,0.3,4.5,0.3,5.2c0,0.6,0,1.4-0.1,2.5l0.2,0.3
			l0,0.2c-0.1,1.2-0.1,2.4-0.1,3.5c0,1.2,0.1,3.5,0.3,6.9c0.2,3.4,0.4,5.8,0.4,7.3l0,0.2l-0.1,0.1c-0.1,0.1-0.2,0.3-0.2,1.1
			c0,0.7,0.1,0.9,0.2,0.9c0,0,0.2,0.2,1,0.2c0.5,0,0.9-0.1,1-0.2l0.2-0.2l2.9,0.1c0.8,0.4,1.2,0.9,1.2,1.5c0,1.6-1,1.8-1.4,1.8
			c-0.1,0-0.4,0-1-0.2c-0.2,0.1-0.6,0.1-1.3,0.1l-2.1-0.1c0,0-0.2,0-0.6,0.3C687.6,132.7,687.1,132.8,686.7,132.8 M685.3,80.6
			c-0.4,0-0.4,0.1-0.4,0.2l0.7,28l0.7,19l-0.4,3.1c0,0.1,0,0.3,0.3,0.5c0.5,0.4,0.8,0.4,1.3,0c0.5-0.3,0.9-0.5,1.2-0.5l2.1,0.1
			c0.8,0,1.1-0.1,1.1-0.1l0.2-0.1l0.2,0.1c0.7,0.2,0.8,0.2,0.9,0.2c0.1,0,0.4,0,0.4-0.8c0-0.2-0.2-0.4-0.5-0.5h-2.2
			c-0.4,0.3-0.9,0.4-1.6,0.4c-0.8,0-1.4-0.2-1.7-0.5c-0.3-0.3-0.5-0.9-0.5-1.6c0-0.6,0.1-1.1,0.3-1.5c-0.1-1.5-0.2-3.9-0.4-7.1
			c-0.2-3.5-0.3-5.8-0.3-7c0-1.1,0-2.3,0.1-3.4l-0.2-0.3l0-0.2c0.1-1.1,0.1-1.9,0.1-2.6c0-0.6-0.1-2.4-0.3-5.1
			c-0.2-2.8-0.3-9.2-0.3-19.7C686,80.9,685.9,80.6,685.3,80.6"/>
		<path class="st1" d="M715.9,111.3l-0.6,8.6l0.1,0.3c-0.3,1.5-0.5,2.9-0.5,4.1c0,1.2-0.2,2.4-0.7,3.7c-0.5,1.3-1.2,2.4-2.1,3.4
			c-1,1-2,1.5-3.1,1.5c-1.1,0-2.1-0.4-3-1.2c-0.9-0.8-1.7-1.9-2.3-3.2c-0.6-1.3-1.2-2.8-1.6-4.6c-0.5-1.8-0.8-3.5-1.1-5.2
			c-0.3-1.7-0.5-3.5-0.7-5.3c-0.3-3.1-0.4-5.7-0.4-7.9c0-2.2,0.1-4.8,0.3-7.6s0.3-4.7,0.3-5.5c0-0.8,0-1.6,0.1-2.2
			c0-0.6,0.1-1.4,0.2-2.3c0.1-0.9,0.2-1.7,0.3-2.3c0.1-0.7,0.4-1.3,0.6-2s0.6-1.3,1-1.7c0.9-1,2.2-1.5,3.8-1.5c1.6,0,3,0.4,4.1,1.3
			c0.2,0.2,0.6,0.8,1.2,1.6c0.6,0.8,1.1,1.6,1.4,2.4c0.3,0.8,0.7,2.6,1.1,5.5C715.4,98.6,715.9,105.4,715.9,111.3 M706.6,81.9
			c-3.3,0-4.9,6.6-4.9,19.9v2.6c0,3.1,0.2,6.4,0.7,10c0.5,3.6,1,6.5,1.5,8.7c0.5,2.2,1.2,4.1,2.2,5.7c0.9,1.6,2,2.4,3.1,2.4
			c1.5,0,2.6-1.6,3.3-4.7c0.7-3.1,1.1-5.9,1.2-8.3c0.2-3.3,0.2-5.5,0.2-6.5v-1.6c0-0.8,0-1.5,0-2.1c0-0.6,0-1.5,0-2.8
			c0-1.3-0.1-2.5-0.1-3.5c-0.1-1-0.2-2.3-0.3-3.7c-0.1-1.5-0.3-2.8-0.5-3.9c-0.2-1.1-0.4-2.4-0.7-3.7c-0.3-1.3-0.6-2.4-0.9-3.4
			c-0.4-0.9-0.8-1.8-1.2-2.6C709.3,82.7,708.1,81.9,706.6,81.9"/>
		<path class="st1" d="M709,133.5c-1.2,0-2.4-0.5-3.4-1.4c-1-0.9-1.8-2-2.5-3.4c-0.6-1.3-1.2-2.9-1.7-4.7c-0.5-1.8-0.8-3.6-1.1-5.3
			c-0.3-1.8-0.5-3.6-0.7-5.3c-0.3-3.1-0.4-5.8-0.4-8c0-2.2,0.1-4.8,0.3-7.7c0.2-2.9,0.3-4.7,0.3-5.5c0-0.8,0-1.6,0.1-2.2
			c0-0.6,0.1-1.4,0.2-2.3c0.1-0.9,0.2-1.7,0.4-2.4s0.4-1.4,0.7-2.1c0.3-0.7,0.7-1.4,1.1-1.9c1-1.1,2.4-1.7,4.2-1.7
			c1.8,0,3.2,0.5,4.4,1.5l0.1,0.1c0.1,0.2,0.5,0.7,1.2,1.6c0.7,0.9,1.2,1.7,1.5,2.5c0.3,0.8,0.7,2.7,1.1,5.7
			c1.1,7.6,1.6,14.5,1.6,20.4l-0.6,8.5l0.2,0.3l0,0.2c-0.3,1.5-0.5,2.8-0.5,3.9c0,1.3-0.3,2.6-0.8,3.9c-0.5,1.3-1.3,2.5-2.2,3.6
			C711.3,132.9,710.2,133.5,709,133.5 M706.5,80.6c-1.5,0-2.6,0.4-3.5,1.4c-0.4,0.4-0.7,1-1,1.6c-0.3,0.7-0.5,1.3-0.6,2
			c-0.1,0.7-0.3,1.4-0.3,2.3c-0.1,0.9-0.1,1.6-0.2,2.2c0,0.6,0,1.4-0.1,2.2c0,0.8-0.1,2.6-0.3,5.6c-0.2,2.8-0.3,5.4-0.3,7.6
			c0,2.2,0.1,4.8,0.4,7.9c0.2,1.8,0.4,3.6,0.7,5.3c0.3,1.7,0.6,3.4,1.1,5.2c0.5,1.7,1,3.3,1.6,4.5c0.6,1.2,1.3,2.3,2.2,3
			c1.7,1.5,3.7,1.6,5.4-0.2c0.9-1,1.6-2.1,2-3.3c0.5-1.2,0.7-2.4,0.7-3.5c0-1.2,0.2-2.5,0.5-4l-0.1-0.2l0.6-8.8
			c0-5.8-0.5-12.6-1.6-20.2c-0.5-3.6-0.8-4.9-1-5.4c-0.3-0.7-0.8-1.5-1.4-2.3c-0.6-0.8-1-1.3-1.2-1.6C709.3,81,708,80.6,706.5,80.6
			 M709.1,131.6c-1.3,0-2.5-0.9-3.5-2.6c-1-1.6-1.7-3.6-2.2-5.8c-0.5-2.2-1-5.2-1.5-8.7c-0.5-3.6-0.7-7-0.7-10.1v-2.6
			c0-13.9,1.7-20.4,5.4-20.4c1.6,0,3,0.9,4,2.7c0.5,0.8,0.9,1.7,1.3,2.7c0.4,1,0.7,2.1,0.9,3.4c0.3,1.3,0.5,2.5,0.7,3.7
			c0.2,1.1,0.4,2.5,0.5,4c0.1,1.5,0.2,2.7,0.3,3.7c0.1,1,0.1,2.2,0.1,3.5c0,1.3,0,2.3,0.1,2.8c0,0.6,0,1.3,0,2.1v1.6
			c0,1-0.1,3.1-0.2,6.5c-0.1,2.4-0.6,5.3-1.3,8.4C712.2,129.9,710.9,131.6,709.1,131.6 M706.6,82.4c-2,0-4.4,3.4-4.4,19.4v2.6
			c0,3.1,0.2,6.4,0.7,9.9c0.5,3.5,1,6.4,1.5,8.6c0.5,2.2,1.2,4,2.1,5.6c0.8,1.4,1.7,2.1,2.7,2.1c1.2,0,2.2-1.4,2.8-4.3
			c0.7-3.1,1.1-5.8,1.2-8.2c0.2-3.4,0.2-5.5,0.2-6.5v-1.6c0-0.8,0-1.5,0-2.1c0-0.6,0-1.5-0.1-2.8c0-1.4-0.1-2.5-0.1-3.5
			c-0.1-1-0.1-2.3-0.3-3.7c-0.1-1.4-0.3-2.7-0.5-3.9c-0.2-1.1-0.4-2.4-0.7-3.7c-0.2-1.3-0.5-2.4-0.9-3.3c-0.4-0.9-0.8-1.8-1.2-2.5
			C708.9,83.1,707.9,82.4,706.6,82.4"/>
		<path class="st1" d="M725.5,107.8l0.6,22.1c0,0.7-0.1,1.2-0.3,1.5c-0.2,0.4-0.6,0.5-1.1,0.5c-0.6,0-0.9-0.8-0.9-2.3l0.3-12
			l-0.5-10.9c0-5-0.1-9.1-0.2-12.3c-0.1-3.2-0.2-5.4-0.2-6.4c0-1.1-0.1-1.9-0.1-2.4c-0.1-1.7-0.3-3.2-0.6-4.3c0.4-0.6,1-1,1.7-1
			c1.6,0,3,0.4,4.3,1.1c1.3,0.7,2.3,1.7,3.1,2.9c1.6,2.5,2.4,5.1,2.4,7.7c0,2.6-0.5,5.3-1.4,8c-1.2,3.4-2.7,5.5-4.5,6.3
			c-0.6,0.2-1,0.5-1.2,0.8C726.4,107.5,726,107.7,725.5,107.8 M724.6,82.3l0.8,22.9l0.1,0.1c0.5,0,0.8-0.2,1-0.4
			c0.2-0.2,0.5-0.4,0.7-0.7c0.2-0.2,0.4-0.4,0.5-0.5c2.9-2.9,4.4-6.5,4.4-10.9c0-1.5-0.1-2.8-0.2-3.7c-0.1-0.9-0.5-1.8-1.1-2.6
			c-0.6-0.8-1.2-1.4-1.6-1.8c-0.4-0.4-1.1-0.9-1.9-1.5c-0.8-0.6-1.3-0.9-1.4-1H724.6z"/>
		<path class="st1" d="M724.7,132.5c-1.4,0-1.4-2.1-1.4-2.8l0.3-12l-0.5-10.8c0-4.9-0.1-9.1-0.2-12.3c-0.1-3.2-0.2-5.4-0.2-6.4
			c0-1.1-0.1-1.9-0.1-2.4c-0.1-1.7-0.3-3.1-0.6-4.2l-0.1-0.2L722,81c0.5-0.8,1.3-1.2,2.2-1.2c1.7,0,3.2,0.4,4.6,1.2
			c1.3,0.8,2.4,1.8,3.2,3.1c1.6,2.6,2.4,5.3,2.4,8c0,2.7-0.5,5.4-1.4,8.2c-1.2,3.6-2.8,5.8-4.8,6.6c-0.6,0.3-0.9,0.5-1,0.6
			c-0.3,0.4-0.7,0.6-1.1,0.8l0.5,21.7c0,0.8-0.1,1.3-0.3,1.8C726.1,132,725.6,132.5,724.7,132.5 M723,81.4c0.3,1.1,0.4,2.5,0.5,4.2
			c0,0.6,0,1.4,0.1,2.4c0,1.1,0.1,3.2,0.2,6.4c0.1,3.2,0.2,7.4,0.2,12.3l0.5,10.8l-0.3,12c0,1.5,0.3,1.8,0.4,1.8
			c0.6,0,0.7-0.2,0.7-0.3c0.1-0.3,0.2-0.7,0.2-1.3l-0.6-22.5l0.4-0.1c0.4-0.1,0.7-0.3,1-0.6c0.3-0.3,0.7-0.6,1.4-0.9
			c1.7-0.7,3.1-2.7,4.2-6c0.9-2.6,1.4-5.3,1.4-7.8c0-2.5-0.8-5-2.3-7.4c-0.7-1.1-1.7-2.1-2.9-2.7c-1.2-0.7-2.6-1-4.1-1
			C723.7,80.8,723.3,81,723,81.4 M725.3,105.9l-0.4-0.4l0-0.2l-0.8-23.4h1.9l0.1,0.1c0.1,0.1,0.3,0.2,1.4,1c0.8,0.6,1.5,1.1,1.9,1.5
			c0.5,0.4,1,1,1.7,1.9c0.7,0.9,1.1,1.9,1.2,2.9c0.1,0.9,0.2,2.2,0.2,3.7c0,4.5-1.5,8.3-4.5,11.3c-0.1,0.1-0.2,0.2-0.4,0.5
			c-0.2,0.3-0.5,0.5-0.7,0.7c-0.3,0.3-0.7,0.4-1.3,0.5L725.3,105.9z M725.1,82.8l0.8,22c0.1,0,0.3-0.1,0.3-0.2
			c0.2-0.2,0.4-0.4,0.6-0.6c0.2-0.3,0.4-0.4,0.5-0.5c2.8-2.8,4.2-6.3,4.2-10.6c0-1.5-0.1-2.7-0.2-3.6c-0.1-0.8-0.5-1.6-1-2.4
			c-0.6-0.8-1.1-1.4-1.5-1.7c-0.4-0.4-1.1-0.8-1.9-1.4c-0.6-0.5-1-0.8-1.2-0.9H725.1z"/>
		<g>
			<path class="st1" d="M746.3,128.9l4-0.2c2.1,0,3.1,0.4,3.1,1.1c-0.4,0.7-1,1.1-2,1.3c-1,0.2-1.9,0.3-2.8,0.3h-1.6
				c-2,0-3.2-0.2-3.5-0.5c-0.3-0.3-0.5-0.6-0.5-1l0.6-2.5v-0.1c-0.2-0.9-0.3-1.9-0.3-2.9l0.3-6.8l-0.4-14.3l0.3-13.3
				c0-0.8-0.1-2-0.4-3.6c-0.3-1.6-0.4-2.7-0.5-3.5l1.2-1.9l4.7-0.6l0.2,0.2c1,0,1.7,0.1,1.8,0.4c0.2,0.3,0.2,0.6,0.2,0.9
				c0,0.9-0.8,1.3-2.4,1.3l-1.8-0.1c-1,0-1.5,0.3-1.5,0.8l0.5,11.4l-0.3,8.4l-0.1,0.1l0.4,0.2l3.7-0.7c0.2,0,0.5,0.1,0.8,0.4
				c0.3,0.3,0.4,0.5,0.4,0.8c0,0.9-0.3,1.3-1,1.3l-1.5-0.1c-1.7,0-2.6,0.4-2.6,1.3l0.5,5.6l-0.2,0.4v13.6c0.2,0.3,0.4,0.9,0.4,1.9
				V128.9z"/>
			<path class="st1" d="M748.7,131.8h-1.6c-2.8,0-3.5-0.3-3.8-0.6c-0.4-0.4-0.6-0.9-0.6-1.3l0.6-2.6l0,0c-0.2-0.8-0.3-1.8-0.3-2.9
				l0.3-6.9l-0.4-14.3l0.3-13.4c0-0.8-0.1-1.9-0.4-3.5c-0.3-1.6-0.4-2.8-0.5-3.6l0-0.2l1.4-2.2l5.1-0.6l0.3,0.2
				c1.2,0,1.8,0.2,2.1,0.7c0.2,0.4,0.3,0.7,0.3,1.1c0,0.8-0.5,1.8-2.9,1.8l-1.8-0.1c-0.1,0-0.9,0-0.9,0.3l0.5,11.4l-0.3,8.2l3.4-0.6
				c0.5,0,0.8,0.2,1.2,0.5c0.4,0.4,0.6,0.7,0.6,1.1c0,1.7-1.1,1.8-1.5,1.8l-1.6-0.1c-0.9,0-2,0.1-2,0.8l0.5,5.8l-0.2,0.4v13.3
				c0.2,0.4,0.4,1.1,0.4,2v0.1l3.5-0.2c1,0,3.7,0,3.7,1.6v0.1l-0.1,0.1c-0.4,0.8-1.2,1.3-2.3,1.5
				C750.6,131.7,749.6,131.8,748.7,131.8 M743.4,82.8c0,0.7,0.2,1.8,0.4,3.3c0.3,1.6,0.4,2.8,0.4,3.7l-0.3,13.3l0.4,14.3l-0.3,6.9
				c0,1,0.1,2,0.3,2.8l0,0.2l-0.6,2.6c0,0.1,0.1,0.3,0.3,0.5c0,0,0.5,0.3,3.1,0.3h1.6c0.9,0,1.8-0.1,2.7-0.3
				c0.7-0.1,1.2-0.4,1.6-0.9c-0.1-0.2-0.8-0.5-2.6-0.5l-4.5,0.3v-1.2c0-1.2-0.2-1.5-0.2-1.5l-0.1-0.1v-13.9l0.2-0.4l-0.5-5.5
				c0-0.9,0.5-1.8,3.1-1.8l1.6,0.1c0.2,0,0.5,0,0.5-0.8c0-0.1-0.1-0.3-0.3-0.4c-0.2-0.2-0.4-0.2-0.4-0.2l-3.8,0.7l-1.1-0.7l0.5-0.5
				l0.3-8.2l-0.5-11.4c0-0.5,0.3-1.3,2-1.3l1.8,0.1c1.2,0,1.9-0.3,1.9-0.8c0-0.2-0.1-0.4-0.2-0.6c0,0-0.3-0.2-1.4-0.2h-0.2l-0.2-0.2
				l-4.2,0.5L743.4,82.8z"/>
		</g>
		<g>
			<path class="st1" d="M761.3,82.9l-0.1-1.2c0-0.4,0.4-0.6,1.3-0.6c1.8,0,3.2,0.5,4.2,1.5c1,1,1.6,2.1,1.9,3.3
				c0.3,1.2,0.6,2.1,0.7,2.7c0.4,1.3,0.6,2.4,0.6,3.1c0,2.2-0.6,5-1.9,8.1c-0.8,2-1.2,3.1-1.2,3.3c0,2.2,0.9,6.6,2.6,13.2
				c1.7,6.6,3.2,11.3,4.3,14.1c0,1.5-0.3,2.2-0.9,2.2c-0.5,0-0.8-0.2-1.1-0.6c-0.3-0.4-0.5-0.6-0.5-0.7c-0.1-1.7-0.7-4.2-1.7-7.3
				c-1-3.1-1.6-5.2-1.9-6.2c-0.2-1-0.6-3.1-1.2-6.3c-0.6-3.2-1.1-5.6-1.6-7.3l-0.5-0.4l-1.3,0.5v25.1l0.1,1.7c0,0.9-0.4,1.3-1.2,1.3
				c-0.3,0-0.6-0.1-0.8-0.3c-0.2-0.2-0.3-0.5-0.3-0.8l0.2-0.4l0.3-40.7V82.9z M763.2,83.2l-0.3,14.6c0,1.9,0.1,3.4,0.2,4.3h0.1
				c0.3,0,0.9-0.5,1.8-1.4c0.8-0.9,1.4-1.6,1.7-2.2c0.3-0.5,0.6-1.5,0.8-2.7c0.2-1.3,0.3-2.3,0.3-3.2s-0.1-1.7-0.2-2.6
				c-0.1-0.9-0.3-1.9-0.6-3c-0.3-1.1-0.7-2-1.2-2.7c-0.6-0.7-1.2-1.1-2-1.1v-0.2L763.2,83.2z"/>
			<path class="st1" d="M772.9,133.2c-0.6,0-1.2-0.3-1.5-0.8c-0.3-0.4-0.4-0.6-0.5-0.6l-0.1-0.1l0-0.2c-0.1-1.7-0.7-4.1-1.7-7.2
				c-1-3.2-1.6-5.2-1.9-6.3c-0.2-1-0.6-3.1-1.2-6.4c-0.6-3.1-1.1-5.5-1.5-7.1l-0.2-0.1l-0.7,0.3v24.8l0.1,1.6c0,1.2-0.6,1.9-1.7,1.9
				c-0.5,0-0.9-0.2-1.2-0.5c-0.3-0.3-0.5-0.7-0.5-1.2v-0.1l0.2-0.4l0.3-48l-0.1-1.2c0-0.6,0.3-1.2,1.8-1.2c2,0,3.5,0.6,4.6,1.7
				c1,1.1,1.7,2.3,2.1,3.5c0.3,1.2,0.6,2.1,0.7,2.7c0.4,1.4,0.6,2.5,0.6,3.2c0,2.3-0.6,5.1-1.9,8.3c-1,2.5-1.2,3.1-1.2,3.2
				c0,2.1,0.9,6.5,2.6,13.1c1.7,6.6,3.2,11.3,4.3,14l0,0.2C774.3,131.1,774.3,133.2,772.9,133.2 M771.7,131.2
				c0.1,0.1,0.3,0.3,0.5,0.6c0.2,0.3,0.4,0.4,0.7,0.4c0.1,0,0.4-0.3,0.4-1.6c-1.1-2.8-2.5-7.5-4.3-14.1c-1.8-6.7-2.6-11.1-2.6-13.3
				c0-0.2,0-0.4,1.2-3.5c1.2-3.1,1.8-5.8,1.8-7.9c0-0.7-0.2-1.7-0.5-3c-0.2-0.6-0.4-1.5-0.7-2.7c-0.3-1.1-0.9-2.1-1.8-3.1
				c-0.9-0.9-2.1-1.4-3.8-1.4c-0.7,0-0.9,0.1-0.9,0.1l0.2,1.1l0,7.5l-0.3,40.8l-0.2,0.3c0,0.1,0.1,0.2,0.2,0.3
				c0.1,0.1,0.3,0.2,0.5,0.2c0.4,0,0.7-0.1,0.7-0.8l-0.1-1.6l0-25.5l1.9-0.8l0.9,0.7l0,0.2c0.5,1.7,1,4.2,1.6,7.4
				c0.6,3.2,1,5.3,1.2,6.3c0.2,1,0.8,3.1,1.9,6.2C771,126.9,771.6,129.4,771.7,131.2 M763.2,102.6h-0.6l-0.1-0.4
				c-0.1-1-0.2-2.4-0.2-4.4l0.3-15.1l1.6-0.2v0.3c0.7,0.1,1.3,0.5,1.9,1.2c0.6,0.8,1.1,1.7,1.3,2.9c0.3,1.1,0.5,2.1,0.6,3
				c0.1,0.9,0.2,1.8,0.2,2.7c0,0.9-0.1,1.9-0.3,3.2c-0.2,1.3-0.5,2.3-0.8,2.9c-0.3,0.6-0.9,1.3-1.8,2.3
				C764.1,102.4,763.6,102.6,763.2,102.6 M763.7,83.8l-0.3,14c0,1.5,0,2.7,0.1,3.6c0.2-0.2,0.6-0.5,1.1-1c0.8-0.9,1.4-1.6,1.7-2.1
				c0.3-0.5,0.5-1.3,0.7-2.5c0.2-1.2,0.3-2.3,0.3-3.1c0-0.8-0.1-1.7-0.2-2.6c-0.1-0.9-0.3-1.9-0.6-2.9c-0.2-1-0.6-1.8-1.1-2.5
				C764.9,84.1,764.4,83.8,763.7,83.8L763.7,83.8z"/>
		</g>
	</g>
	<path class="st1" d="M534.8,64.2l-0.2,0.4c0.1,0.3,0.1,0.6,0.1,1s-0.2,0.8-0.6,1.2c-0.4,0.3-1,0.5-1.6,0.5c-1.3,0-1.9-1.4-1.9-4.3
		c0-4.2-0.2-12.2-0.7-23.9c-0.4-11.7-0.9-18-1.3-18.7c0-2.3,1.6-3.5,4.7-3.7c0.5,0,1.1,0,1.9,0s1.5,0.2,1.9,0.5
		c0.5,0.3,0.7,0.9,0.7,1.9c0,0.9-0.6,1.4-1.9,1.4l-1.6-0.1c-1.2,0-1.9,0.2-1.9,0.7c0,2.1,0.2,5.1,0.5,9c0.3,4,0.5,6.9,0.5,8.8
		c0.3,0,0.7-0.1,1.1-0.3c1.1-0.3,2-0.5,2.5-0.5c0.5,0,1,0.2,1.3,0.6s0.5,0.9,0.5,1.4c0,1.5-1.8,2.2-5.5,2.2c0,2.4,0.2,6,0.6,10.8
		S534.8,61.8,534.8,64.2z"/>
	<path class="st1" d="M542.6,65.3l0.3-39v-8.2c0-0.5,0.1-0.9,0.3-1.1c0.2-0.2,0.8-0.3,1.7-0.3c0.9,0,1.9,0.2,2.8,0.7
		c0.9,0.4,1.7,1,2.4,1.8c0.6,0.8,1.2,1.6,1.6,2.6c0.9,1.8,1.3,3.8,1.3,6c0,2.2-0.5,4.6-1.6,7.4c-0.1,0.3-0.4,0.9-0.8,1.9
		c-0.4,1-0.6,1.5-0.7,1.7c0,3.3,0.9,7.6,2.5,12.8c0.6,1.8,1.4,4.2,2.4,7.3c1,3.1,1.7,5,1.9,5.9V65c0,1.5-0.2,2.4-0.5,2.6
		c-0.3,0.2-0.7,0.4-1.1,0.4c-0.8,0-1.6-0.6-2.4-1.8V66c-0.2-4-1.6-10.1-4.2-18.3c-1.2-3.7-2-6.5-2.4-8.3v26.2c0,0.7-0.1,1.2-0.4,1.6
		c-0.2,0.4-0.7,0.6-1.3,0.6c-0.6,0-1.1-0.2-1.4-0.5c-0.3-0.4-0.5-0.8-0.5-1.3V65.3z M546.3,19.7l-0.4,13.6c0,1.4,0,2.4,0.1,3.1
		c0.8-0.7,1.5-1.6,2.2-2.6l1-5.8c0.1-0.3,0.1-0.6,0.1-1c0-1.1-0.2-2.3-0.6-3.9C548.1,21.1,547.3,19.9,546.3,19.7z"/>
	<path class="st1" d="M576.8,47.2l-0.6,8.4v0.3c-0.3,1.2-0.4,2.6-0.4,4s-0.2,2.8-0.7,4.1c-0.5,1.3-1.3,2.5-2.3,3.5
		c-1,1-2.1,1.5-3.3,1.5c-1.2,0-2.3-0.4-3.3-1.2c-1-0.8-1.8-1.9-2.5-3.2c-0.6-1.3-1.2-2.8-1.7-4.6c-0.5-1.8-0.9-3.5-1.2-5.2
		c-0.3-1.7-0.5-3.5-0.7-5.4c-0.3-2.9-0.4-5.1-0.4-6.7c0-1.6,0-3,0-4.1c0-1.1,0-2.2-0.1-3.1c0-0.5,0-1,0-1.5s0-1.1,0-1.8
		c0-1.3,0.1-2.4,0.1-3.4c0.1-1,0.2-2.1,0.3-3.3c0.1-1.2,0.3-2.2,0.5-3.1c0.2-0.9,0.5-1.8,0.9-2.6c0.4-0.9,0.8-1.6,1.3-2.2
		c1.1-1.3,2.3-1.9,3.7-1.9c1.4,0,2.6,0.3,3.6,0.8c1,0.5,1.8,1.3,2.5,2.5c0.7,1.1,1.3,2.2,1.8,3.3c0.5,1.1,0.9,2.5,1.2,4.4
		c0.3,1.9,0.5,3.4,0.7,4.6c0.2,1.2,0.3,2.9,0.4,5.1c0.1,3,0.1,5.3,0.1,7V47.2z M570.9,22.9c-0.4-1.1-1-2-1.7-2.6
		c-0.7-0.6-1.3-0.9-2-0.9s-1.2,0.2-1.6,0.7s-0.8,1.1-1.1,1.9c-0.3,0.8-0.6,1.7-0.8,2.7c-0.2,1-0.4,2.1-0.5,3.3
		c-0.1,1.2-0.2,2.4-0.3,3.4c-0.1,1-0.1,2.1-0.2,3.3c0,2-0.1,3.6-0.1,4.7v0.3c0,3,0.2,6.2,0.7,9.6c0.5,3.4,0.9,6.2,1.4,8.4
		c0.5,2.2,1.1,4,2,5.6c0.8,1.5,1.7,2.3,2.8,2.3c0.9,0,1.6-0.8,2.2-2.5c0.6-1.7,1-3.8,1.3-6.2c0.4-4.4,0.7-7.5,0.7-9.3
		c0-1.8,0-3.1,0-3.9c0-0.8,0-2-0.1-3.6c-0.1-1.6-0.1-3-0.3-4.4c-0.1-1.4-0.3-2.9-0.5-4.6c-0.2-1.7-0.5-3.2-0.8-4.5
		C571.8,25.2,571.4,24,570.9,22.9z"/>
	<path class="st1" d="M581.3,32.4l0.5-12.2v-0.4c0-2.2,0.5-3.3,1.5-3.3c0.9,0,2.1,2.1,3.6,6.2c2.7,7.5,6,19.8,9.8,37l0.1,0.3
		l0.3-23.2V17.1c0.3-1.1,1-1.7,2.2-1.7c1.2,0,1.8,0.9,1.8,2.6v0.4c-0.3,0.5-0.4,1.2-0.4,1.9L600.1,45v20.3c0,0.7-0.2,1.3-0.6,2
		c-0.4,0.6-0.8,1-1.4,1c-0.9,0-2.8-4.6-5.5-13.7c-2.7-9.1-5.4-18.9-8-29.5v21.8c0,2.1,0.2,5.3,0.5,9.5c0.3,4.2,0.5,7.4,0.5,9.5
		c0,0.4-0.2,0.8-0.7,1c-0.5,0.3-1.1,0.4-1.9,0.4c-0.8,0-1.2-0.3-1.2-1l0.3-4.8c0-2.3-0.1-6-0.4-11.2c-0.3-5.2-0.4-8.3-0.4-9.5V32.4z
		"/>
	<path class="st1" d="M613.6,28.7l-0.1,8.6l0.6,15.3l0.6,12c0,2.2-0.6,3.2-1.9,3.2c-0.7,0-1.3-0.3-1.6-1c-0.3-0.7-0.5-1.5-0.5-2.3
		l0.5-10.6c0-2.3-0.2-5.8-0.5-10.4c-0.3-4.6-0.5-8.1-0.5-10.4l0.1-5.8c0-3.2-0.2-5.3-0.6-6.2l-3.6,0.4c-0.6,0-1.1-0.2-1.5-0.5
		c-0.4-0.3-0.7-0.8-0.7-1.3c0-0.5,0.5-1,1.6-1.3c1.1-0.4,2.4-0.7,3.9-0.8c2.7-0.3,4.9-0.5,6.7-0.5c0.5,0,1,0.2,1.5,0.5
		c0.4,0.4,0.7,0.8,0.7,1.3c0,0.5-0.2,1-0.6,1.3c-0.4,0.3-0.9,0.5-1.4,0.5l-2.4-0.1c-0.3,0-0.5,0-0.7,0
		C613.4,23,613.6,25.7,613.6,28.7z"/>
	<path class="st1" d="M640.5,42.9l-1.7-0.1c-0.6,0-1.1,0.2-1.4,0.5v20.5c2.3-0.1,3.5-0.2,3.7-0.2c2.5,0,3.8,0.6,3.8,1.8v0.2
		c-0.3,0.6-0.8,1.1-1.6,1.4c-0.7,0.3-1.4,0.5-1.9,0.6c-0.6,0-1.3,0.1-2.2,0.1h-2.1c-1.6,0-2.7-0.3-3.1-1c-0.2-0.3-0.3-0.7-0.3-1.2
		V26.8c0-0.8-0.2-1.9-0.5-3.4c-0.3-1.5-0.5-2.6-0.5-3.4v-0.2c0.7-1.2,1.3-2,1.7-2.3l4.9-0.6c0.7,0,1.3,0.2,2,0.6
		c0.7,0.4,1,0.9,1,1.6c0,1.3-1,2-3,2l-1.9-0.1c-0.3,0-0.6,0-0.7,0l0.5,11c0,0.9-0.1,2.2-0.2,3.9c-0.1,1.7-0.2,2.9-0.2,3.7
		c0.2,0,0.6-0.1,1-0.2c0.9-0.2,1.6-0.4,2.1-0.4c0.5,0,1,0.2,1.4,0.6c0.4,0.4,0.6,0.8,0.6,1.3c0,0.5-0.2,1-0.5,1.4
		C641.4,42.7,641,42.9,640.5,42.9z"/>
	<path class="st1" d="M648.1,32.4l0.5-12.2v-0.4c0-2.2,0.5-3.3,1.5-3.3c0.9,0,2.1,2.1,3.6,6.2c2.7,7.5,6,19.8,9.8,37l0.1,0.3
		l0.3-23.2V17.1c0.3-1.1,1-1.7,2.2-1.7c1.2,0,1.8,0.9,1.8,2.6v0.4c-0.3,0.5-0.4,1.2-0.4,1.9L666.9,45v20.3c0,0.7-0.2,1.3-0.6,2
		c-0.4,0.6-0.8,1-1.4,1c-0.9,0-2.8-4.6-5.5-13.7c-2.7-9.1-5.4-18.9-8-29.5v21.8c0,2.1,0.2,5.3,0.5,9.5c0.3,4.2,0.5,7.4,0.5,9.5
		c0,0.4-0.2,0.8-0.7,1c-0.5,0.3-1.1,0.4-1.9,0.4c-0.8,0-1.2-0.3-1.2-1l0.3-4.8c0-2.3-0.1-6-0.4-11.2c-0.3-5.2-0.4-8.3-0.4-9.5V32.4z
		"/>
	<path class="st1" d="M689,42.8l0.2,1.4c0,3.1-0.8,6.8-2.5,11.1c-1.9,4.9-4.2,8.3-6.8,10.4c-1.5,1.2-3,1.8-4.5,1.8
		c-0.8,0-1.6-0.2-2.2-0.6c-0.7-0.4-1-0.9-1-1.7c1-1,1.5-3.6,1.5-7.8c0-2.5-0.2-6.1-0.6-11c-0.4-4.9-0.6-8.5-0.6-11l0.2-7.3
		c0-1.2-0.2-2.7-0.7-4.7s-0.7-3.4-0.7-4.2c0-1.5,1.7-2.3,5.1-2.3h1c4.5,0,7.8,2.5,9.8,7.6c1.4,3.5,2.1,8.4,2.1,14.6v3.1
		C689.1,42.4,689,42.6,689,42.8z M676.8,57.2v6.4c1.7-1.1,3.1-2.6,4.4-4.5c1.2-1.9,2.2-4.1,2.8-6.4c1.2-4.4,1.8-8.8,1.8-13.2
		c0-5-0.6-9-1.9-11.9c-1.3-3-2.9-5-4.7-5.9c-1.2-0.6-2.5-0.9-4-0.9v0.1c0,4,0.3,10,0.8,18.1C676.5,47.1,676.8,53.1,676.8,57.2z"/>
</g>
</svg>
