<?xml version="1.0" encoding="utf-8"?>
<!-- Generator: Adobe Illustrator 16.2.1, SVG Export Plug-In . SVG Version: 6.00 Build 0)  -->
<!DOCTYPE svg PUBLIC "-//W3C//DTD SVG 1.1//EN" "http://www.w3.org/Graphics/SVG/1.1/DTD/svg11.dtd">
<svg version="1.1" id="Layer_1" xmlns="http://www.w3.org/2000/svg" xmlns:xlink="http://www.w3.org/1999/xlink" x="0px" y="0px"
	  viewBox="0 0 39 45" enable-background="new 0 0 39 45" xml:space="preserve">
<g>
	<path fill-rule="evenodd" clip-rule="evenodd" fill="#15757D" d="M14.554,16.468c-0.052-0.689-0.059-1.377-0.039-2.069
		c0.021-0.803-0.029-1.608-0.062-2.413c-0.015-0.399-0.06-0.801-0.095-1.201c-0.029-0.358,0.122-0.639,0.437-0.774
		c0.631-0.274,1.217-0.65,1.891-0.831c0.415-0.113,0.819-0.265,1.225-0.409c1.441-0.518,2.922-0.854,4.441-1.021
		c0.145-0.016,0.293-0.021,0.425-0.069c0.466-0.177,0.952-0.206,1.44-0.244c0.859-0.065,1.715-0.194,2.579-0.19
		c1.195-0.172,2.405-0.261,3.574-0.573c1.006-0.271,2.027-0.388,3.06-0.462c0.573-0.04,1.149-0.045,1.717-0.166
		c0.234-0.049,0.463,0.102,0.539,0.333c0.045,0.135,0.079,0.278,0.079,0.419c-0.004,0.374-0.036,0.747-0.155,1.106
		c-0.18,0.554-0.229,1.121-0.212,1.701c0.018,0.631,0.013,1.265,0.037,1.896c0.03,0.805,0.077,1.608,0.122,2.411
		c0.028,0.49,0.021,0.972-0.075,1.458c-0.083,0.42-0.049,0.863-0.119,1.286c-0.053,0.319-0.043,0.623-0.012,0.938
		c0.074,0.744,0.177,1.484,0.11,2.236c-0.02,0.228-0.014,0.464,0.022,0.688c0.089,0.577,0.022,1.146-0.042,1.717
		c-0.051,0.456-0.108,0.916-0.112,1.373c-0.006,0.919-0.137,1.833-0.073,2.753c0.009,0.114,0.001,0.232-0.022,0.344
		c-0.142,0.65-0.155,1.312-0.191,1.973c-0.041,0.752-0.189,1.481-0.456,2.186c-0.072,0.188-0.147,0.376-0.23,0.56
		c-0.087,0.188-0.222,0.338-0.417,0.417c-0.774,0.31-1.54,0.643-2.328,0.909c-0.46,0.153-0.953,0.215-1.436,0.287
		c-1.08,0.16-2.157,0.344-3.243,0.453c-0.521,0.053-1.036,0.013-1.551-0.018c-0.474-0.029-0.889-0.237-1.254-0.527
		c-0.611-0.482-1.01-1.102-1.095-1.888c-0.042-0.401-0.09-0.794-0.197-1.187c-0.074-0.273-0.087-0.571-0.074-0.855
		c0.023-0.431,0.078-0.86,0.145-1.286c0.064-0.408,0.242-0.762,0.565-1.039c0.304-0.264,0.584-0.549,0.883-0.819
		c0.083-0.075,0.186-0.136,0.288-0.182c0.294-0.13,0.551-0.309,0.79-0.521c0.621-0.547,1.349-0.864,2.156-1.019
		c0.367-0.069,0.731-0.158,1.099-0.216c0.427-0.066,0.856-0.103,1.283-0.162c0.226-0.032,0.461-0.059,0.673-0.138
		c0.344-0.126,0.567-0.383,0.628-0.759c0.017-0.113,0.026-0.228,0.03-0.343c0.041-1.148,0.081-2.297,0.118-3.444
		c0.009-0.201,0.016-0.403,0.005-0.604c-0.069-1.152,0.037-2.297,0.131-3.444c0.079-0.945,0.132-1.893,0.038-2.842
		c-0.007-0.085-0.009-0.171-0.02-0.257c-0.05-0.432-0.363-0.75-0.795-0.766c-0.69-0.023-1.386-0.037-2.065,0.099
		c-0.872,0.176-1.759,0.271-2.621,0.518c-0.496,0.142-1.013,0.208-1.521,0.31c-0.111,0.021-0.225,0.044-0.335,0.073
		c-0.806,0.216-1.608,0.437-2.415,0.651c-0.222,0.059-0.447,0.101-0.674,0.146c-0.508,0.104-1.006,0.242-1.485,0.445
		c-0.141,0.058-0.229,0.172-0.274,0.313c-0.026,0.081-0.037,0.167-0.053,0.252c-0.084,0.452-0.19,0.897-0.302,1.344
		c-0.182,0.724-0.298,1.464-0.438,2.196c-0.016,0.085-0.027,0.174-0.017,0.258c0.053,0.411-0.053,0.798-0.165,1.187
		c-0.063,0.219-0.106,0.446-0.143,0.674c-0.021,0.14-0.042,0.293-0.011,0.429c0.099,0.463-0.005,0.91-0.059,1.366
		c-0.125,1.056-0.199,2.117-0.3,3.175c-0.057,0.601-0.125,1.2-0.18,1.801c-0.047,0.516-0.111,1.032-0.115,1.548
		c-0.005,0.863-0.06,1.723-0.069,2.585c-0.007,0.801-0.071,1.604-0.052,2.406c0.014,0.548-0.041,1.089-0.157,1.626
		c-0.074,0.337-0.127,0.68-0.174,1.021c-0.043,0.306-0.187,0.537-0.442,0.705c-0.145,0.094-0.295,0.182-0.432,0.285
		c-0.352,0.268-0.793,0.339-1.167,0.551c-0.351,0.201-0.704,0.385-1.103,0.478c-0.167,0.037-0.332,0.1-0.484,0.176
		c-0.7,0.352-1.452,0.551-2.198,0.761c-0.247,0.069-0.509,0.094-0.763,0.129c-0.599,0.083-1.198,0.153-1.795,0.242
		c-0.641,0.096-1.246,0.032-1.856-0.218c-0.663-0.271-1.316-0.568-1.999-0.802c-0.406-0.139-0.764-0.397-1.083-0.69
		c-0.124-0.112-0.217-0.27-0.29-0.421c-0.281-0.586-0.344-1.215-0.288-1.853c0.027-0.315,0.079-0.626,0.06-0.944
		c-0.016-0.267,0.105-0.506,0.205-0.742c0.37-0.897,0.96-1.63,1.713-2.235c0.358-0.288,0.699-0.601,1.164-0.723
		c0.136-0.036,0.264-0.115,0.383-0.195c0.608-0.415,1.307-0.593,2.014-0.726c0.735-0.137,1.477-0.237,2.214-0.362
		c0.5-0.084,0.974-0.008,1.432,0.196c0.21,0.091,0.417,0.193,0.63,0.275c0.21,0.084,0.396,0.016,0.555-0.133
		c0.15-0.141,0.266-0.31,0.294-0.515c0.033-0.227,0.084-0.465,0.046-0.683c-0.113-0.67-0.014-1.323,0.107-1.971
		c0.196-1.049,0.33-2.102,0.298-3.171c-0.002-0.059-0.017-0.118-0.006-0.173c0.147-0.796,0.098-1.604,0.155-2.405
		c0.019-0.259,0.055-0.519,0.035-0.775c-0.053-0.718-0.019-1.437,0-2.155C14.562,17.157,14.554,16.812,14.554,16.468z
		 M31.933,21.803c0.011,0,0.024,0.002,0.036,0.002c-0.013,0.633-0.017,1.264-0.042,1.896c-0.013,0.314-0.046,0.631-0.166,0.929
		c-0.085,0.207-0.311,0.366-0.541,0.359c-0.086-0.003-0.175,0.002-0.257-0.023c-0.425-0.132-0.852-0.104-1.279-0.022
		c-0.395,0.076-0.792,0.147-1.18,0.25c-0.389,0.104-0.771,0.233-1.149,0.373c-0.595,0.224-1.159,0.505-1.632,0.944
		c-0.23,0.217-0.451,0.45-0.706,0.633c-0.605,0.436-0.983,1.022-1.292,1.689c-0.383,0.831-0.294,1.62,0.081,2.407
		c0.061,0.126,0.165,0.238,0.271,0.33c0.635,0.555,1.385,0.812,2.221,0.79c0.517-0.014,1.031-0.069,1.547-0.11
		c0.144-0.013,0.292-0.024,0.427-0.071c0.757-0.262,1.573-0.359,2.274-0.788c0.096-0.058,0.208-0.098,0.318-0.127
		c0.76-0.198,1.42-0.626,2.135-0.926c0.369-0.156,0.693-0.412,0.906-0.772c0.236-0.399,0.4-0.828,0.45-1.294
		c0.037-0.372,0.073-0.745,0.084-1.118c0.014-0.372-0.013-0.745-0.007-1.118c0.004-0.372,0.028-0.743,0.041-1.115
		c0.002-0.057-0.018-0.113-0.019-0.172c-0.002-0.228,0.024-0.462-0.009-0.686c-0.058-0.38,0.101-0.74,0.058-1.115
		c-0.086-0.747-0.033-1.492,0.043-2.237c0.071-0.69,0.038-1.382-0.064-2.062c-0.056-0.377-0.054-0.742-0.012-1.115
		c0.034-0.313,0.077-0.63,0.066-0.943c-0.014-0.35,0.008-0.687,0.116-1.02c0.072-0.221,0.083-0.448,0.05-0.683
		c-0.079-0.568-0.146-1.139-0.216-1.709c-0.042-0.343-0.042-0.684,0.008-1.027c0.05-0.342,0.084-0.687,0.082-1.031
		c-0.002-0.402,0.018-0.802,0.036-1.204c0.024-0.541-0.026-1.086,0.036-1.628c0.01-0.083-0.017-0.171-0.03-0.257
		c-0.061-0.384-0.29-0.562-0.659-0.504c-0.114,0.019-0.225,0.051-0.338,0.069c-0.566,0.099-1.13,0.223-1.7,0.283
		c-1.203,0.131-2.386,0.358-3.549,0.693c-0.138,0.041-0.279,0.078-0.422,0.087c-0.723,0.045-1.412,0.255-2.115,0.401
		c-0.168,0.036-0.336,0.078-0.507,0.103c-0.854,0.123-1.707,0.253-2.563,0.357c-0.828,0.101-1.653,0.198-2.461,0.424
		c-0.414,0.117-0.845,0.171-1.268,0.264c-0.363,0.08-0.729,0.162-1.086,0.27c-0.384,0.115-0.756,0.271-1.16,0.33
		c-0.167,0.023-0.33,0.1-0.49,0.163c-0.239,0.095-0.356,0.282-0.359,0.534c-0.006,0.548,0.021,1.095-0.012,1.64
		c-0.068,1.177-0.019,2.356-0.172,3.529c-0.022,0.17-0.018,0.345-0.021,0.517c-0.011,0.949-0.02,1.898-0.03,2.847
		c-0.002,0.145,0.003,0.289-0.01,0.431c-0.086,0.974-0.191,1.945-0.258,2.921c-0.046,0.661-0.111,1.319-0.234,1.97
		c-0.081,0.426-0.115,0.854-0.12,1.284c-0.008,0.605-0.038,1.207-0.101,1.808c-0.092,0.885-0.19,1.771-0.18,2.662
		c0.006,0.312-0.251,0.479-0.476,0.513c-0.056,0.009-0.113,0.009-0.172,0.006c-0.233-0.014-0.451-0.067-0.647-0.206
		c-0.729-0.516-1.553-0.729-2.435-0.752c-0.346-0.009-0.69-0.035-1.035-0.052c-0.113-0.006-0.232-0.021-0.344-0.001
		c-0.537,0.1-1.082,0.172-1.605,0.323C6.847,31.304,5.799,32,4.897,32.92c-0.141,0.143-0.271,0.3-0.383,0.466
		c-0.492,0.732-0.667,1.519-0.366,2.376c0.139,0.393,0.374,0.71,0.73,0.933c0.353,0.219,1.752,0.763,2.163,0.839
		c0.057,0.011,0.113,0.025,0.17,0.029c0.774,0.061,1.547,0.085,2.317-0.088c0.843-0.188,1.683-0.387,2.527-0.558
		c0.972-0.196,1.857-0.602,2.738-1.024c0.36-0.174,0.703-0.395,0.99-0.685c0.208-0.208,0.381-0.442,0.411-0.74
		c0.044-0.429,0.085-0.86,0.077-1.29c-0.012-0.544-0.083-1.088-0.107-1.633c-0.021-0.458-0.051-0.921-0.004-1.376
		c0.072-0.69,0.047-1.376,0.037-2.065c-0.009-0.775-0.007-1.552,0.199-2.312c0.052-0.194,0.093-0.391,0.128-0.59
		c0.087-0.479,0.212-0.957,0.164-1.45c0.111-1.117,0.221-2.23,0.332-3.346c0.002-0.029,0.011-0.056,0.015-0.085
		c0.119-0.709,0.23-1.418,0.227-2.141c-0.006-1.037,0.198-2.059,0.235-3.093c0.005-0.112,0.012-0.234,0.053-0.339
		c0.146-0.362,0.115-0.733,0.085-1.106c-0.021-0.229-0.05-0.458-0.073-0.686c-0.036-0.366,0.077-0.652,0.345-0.927
		c0.3-0.31,0.566-0.577,1.024-0.33c0.172-0.01,0.345-0.009,0.515-0.032c0.313-0.038,0.625-0.101,0.939-0.136
		c0.259-0.027,0.511-0.067,0.749-0.182c0.212-0.1,0.439-0.128,0.671-0.139c0.812-0.04,1.593-0.219,2.353-0.501
		c0.162-0.058,0.33-0.105,0.499-0.14c0.564-0.109,1.122-0.246,1.696-0.311c0.57-0.065,1.135-0.182,1.702-0.277
		c0.199-0.034,0.396-0.084,0.597-0.101c0.778-0.063,1.537-0.245,2.267-0.505c0.797-0.284,1.633-0.317,2.445-0.492
		c0.121-0.026,0.269,0.169,0.232,0.3C33.584,9.238,33.566,9.3,33.53,9.339c-0.056,0.062-0.12,0.129-0.195,0.16
		c-0.388,0.168-0.542,0.487-0.606,0.878c-0.066,0.398-0.158,0.791-0.214,1.189c-0.047,0.34-0.06,0.687-0.08,1.029
		c-0.017,0.259-0.018,0.517-0.03,0.776c-0.034,0.689-0.115,1.375-0.105,2.065c0.003,0.287-0.026,0.577-0.079,0.858
		c-0.108,0.572-0.115,1.144-0.104,1.721c0.013,0.574-0.005,1.148-0.058,1.721C31.993,20.425,31.972,21.115,31.933,21.803z"/>
</g>
</svg>
