<?xml version="1.0" encoding="utf-8"?>
<!-- Generator: Adobe Illustrator 16.2.1, SVG Export Plug-In . SVG Version: 6.00 Build 0)  -->
<!DOCTYPE svg PUBLIC "-//W3C//DTD SVG 1.1//EN" "http://www.w3.org/Graphics/SVG/1.1/DTD/svg11.dtd">
<svg version="1.1" id="Layer_1" xmlns="http://www.w3.org/2000/svg" xmlns:xlink="http://www.w3.org/1999/xlink" x="0px" y="0px"
	  viewBox="0 0 71 45" enable-background="new 0 0 71 45" xml:space="preserve">
<g>
	<g>
		<path fill-rule="evenodd" clip-rule="evenodd" fill="#15757D" d="M25.923,35.992c-1.034,1.281-2.897,1.818-4.04,0.83
			c-1.165-1.01-2.565-0.939-3.831-1.203c-1.158-0.24-2.235-0.484-3.234-1.104c-0.177-0.109-0.403-0.143-0.685-0.234
			c-0.392,0.789-0.764,1.541-1.137,2.295c-0.115-0.021-0.23-0.041-0.345-0.061c-0.048-0.332-0.092-0.664-0.145-0.994
			c-0.048-0.301-0.104-0.602-0.2-1.143c-0.594,0.518-1.018,0.887-1.488,1.297c0.219-1.236,0.996-2.217,3.082-3.91
			c0.263,0.422,0.512,0.836,0.773,1.24c1.067,1.648,1.93,1.934,3.857,1.391c0.319-0.09,0.852-0.033,1.054,0.178
			c0.792,0.824,1.45,0.539,2.162-0.072c0.589-0.506,1.189-0.48,1.872,0.109c-0.411,0.375-0.785,0.719-1.157,1.057
			c0.834,1.145,1.339,1.184,3.484,0.336L25.923,35.992z"/>
		<path fill-rule="evenodd" clip-rule="evenodd" fill="#15757D" d="M61.008,38.959c-5.469-0.51-10.937-1.021-16.471-1.537
			c0.572-0.6,1.339-0.523,2.04-0.465c2.692,0.229,5.382,0.488,8.069,0.775c1.482,0.156,2.959,0.379,4.434,0.598
			c0.645,0.096,1.279,0.252,1.918,0.379C61.003,38.793,61.006,38.877,61.008,38.959z"/>
		<path fill-rule="evenodd" clip-rule="evenodd" fill="#15757D" d="M34.777,37.676c0.402-1.85,1.47-2.436,3.011-1.607
			c1.864,1,3.901,1.008,5.926,1.115c0.272,0.016,0.544,0.037,0.813,0.064c0.043,0.006,0.079,0.072,0.118,0.111
			c-0.08,0.062-0.16,0.172-0.24,0.172c-2.24-0.002-4.525,0.189-6.663-0.605c-1.262-0.469-2.194-0.363-3.005,0.701L34.777,37.676z"/>
		<path fill-rule="evenodd" clip-rule="evenodd" fill="#15757D" d="M25.947,36.004c0.559-0.172,1.118-0.346,1.921-0.594
			c-0.12,0.58-0.165,0.982-0.288,1.357c-0.42,1.283-0.049,1.814,1.285,1.545c0.891-0.178,1.723-0.648,2.591-0.982
			c0.009,0.008-0.012-0.012-0.012-0.012c-0.823,1.508-2.738,2.135-4.593,1.418c-0.012-0.551-0.062-1.152-0.024-1.748
			c0.043-0.67-0.38-0.85-0.896-0.992C25.923,35.992,25.947,36.004,25.947,36.004z"/>
		<path fill-rule="evenodd" clip-rule="evenodd" fill="#15757D" d="M34.737,37.627c-0.298,0.43-0.597,0.859-1.083,1.559
			c-0.377-1.373-1.179-1.773-2.202-1.859c-0.008-0.008,0.013,0.012,0.004,0.004c1.165-0.516,2.22,0.123,3.319,0.344
			C34.777,37.676,34.737,37.627,34.737,37.627z"/>
		<path fill-rule="evenodd" clip-rule="evenodd" fill="#15757D" d="M66.728,39.686c-1.35-0.168-2.88-0.357-4.408-0.547
			c0.021-0.113,0.043-0.229,0.063-0.342C63.892,39.105,65.402,39.416,66.728,39.686z"/>
	</g>
	<g>
		<path fill-rule="evenodd" clip-rule="evenodd" fill="#15757D" d="M15.042,35.377c-0.952,0.113-1.9,0.271-2.863,0.24
			c-0.159-0.006-0.32,0.02-0.48,0.023c-0.401,0.008-0.808,0.029-1.198-0.076c-0.635-0.172-1.271-0.146-1.908-0.055
			c-0.399,0.061-0.795,0.09-1.198,0.053c-0.184-0.016-0.373,0.002-0.558,0.02C6.18,35.645,5.56,35.479,4.952,35.27
			c-0.325-0.111-0.526-0.359-0.591-0.703c-0.084-0.449-0.129-0.906-0.042-1.355c0.124-0.656,0.209-1.32,0.421-1.959
			c0.092-0.277,0.127-0.574,0.187-0.861c0.041-0.209,0.063-0.424,0.126-0.627c0.102-0.336,0.146-0.68,0.181-1.025
			c0.036-0.371,0.084-0.74,0.198-1.102c0.144-0.463,0.201-0.943,0.139-1.428c-0.052-0.395,0.07-0.736,0.27-1.064
			c0.46-0.756,0.995-1.458,1.581-2.12c0.214-0.243,0.404-0.498,0.565-0.774c0.447-0.766,0.982-1.462,1.603-2.098
			c0.242-0.247,0.436-0.542,0.675-0.792c0.448-0.466,0.833-0.974,1.135-1.545c0.013-0.023,0.026-0.047,0.042-0.068
			c0.954-1.254,1.742-2.63,2.821-3.792c0.291-0.313,0.512-0.676,0.633-1.102c0.072-0.254,0.215-0.487,0.336-0.726
			c0.134-0.262,0.311-0.506,0.41-0.779c0.143-0.386,0.367-0.71,0.624-1.019c0.276-0.328,0.533-0.668,0.739-1.046
			c0.079-0.145,0.19-0.255,0.353-0.309c0.627-0.204,1.151-0.553,1.535-1.098c0.029-0.043,0.071-0.08,0.112-0.114
			c0.496-0.42,0.886-0.921,1.189-1.496c0.123-0.233,0.314-0.432,0.487-0.634c0.183-0.215,0.423-0.322,0.707-0.32
			c0.698,0.002,1.39,0.044,2.05,0.305c0.273,0.108,0.553,0.212,0.838,0.277c0.48,0.111,0.9,0.342,1.293,0.617
			c0.591,0.415,1.186,0.824,1.743,1.285c0.148,0.122,0.269,0.258,0.349,0.431c0.046,0.096,0.097,0.191,0.136,0.29
			c0.118,0.299,0.234,0.596,0.412,0.865c0.109,0.168,0.124,0.379-0.017,0.527c-0.487,0.518-0.742,1.172-1.076,1.778
			c-0.118,0.215-0.248,0.408-0.415,0.584c-0.222,0.231-0.436,0.472-0.641,0.719c-0.141,0.168-0.218,0.366-0.197,0.594
			c0.009,0.08,0.02,0.161,0.013,0.24c-0.02,0.218-0.092,0.417-0.253,0.574c-0.134,0.13-0.271,0.258-0.411,0.383
			c-0.358,0.321-0.711,0.645-0.963,1.066c-0.107,0.181-0.273,0.327-0.426,0.478c-0.197,0.189-0.363,0.406-0.428,0.667
			c-0.1,0.412-0.354,0.716-0.63,1.007c-0.313,0.333-0.597,0.686-0.854,1.062c-0.076,0.109-0.164,0.215-0.222,0.333
			c-0.155,0.317-0.399,0.565-0.612,0.839c-0.475,0.61-1.029,1.157-1.414,1.837c-0.091,0.16-0.218,0.304-0.346,0.439
			c-0.767,0.821-1.459,1.706-2.171,2.573c-0.354,0.434-0.671,0.898-1.019,1.34c-0.181,0.229-0.39,0.438-0.588,0.654
			c-0.125,0.139-0.274,0.26-0.378,0.412c-0.427,0.623-1.013,1.098-1.51,1.656c-0.11,0.125-0.254,0.193-0.409,0.244
			c-0.235,0.072-0.427,0.217-0.611,0.373c-0.062,0.051-0.117,0.111-0.18,0.16c-0.499,0.398-0.942,0.869-1.543,1.133
			c-0.167,0.074-0.306,0.215-0.453,0.332c-0.146,0.117-0.296,0.219-0.478,0.285c-0.147,0.055-0.279,0.154-0.418,0.234
			c-0.369,0.217-0.738,0.432-1.107,0.648c-0.483,0.285-0.968,0.57-1.386,0.951C6.987,33.58,6.907,33.65,6.836,33.73
			c-0.215,0.242-0.145,0.609,0.14,0.746c0.049,0.023,0.096,0.049,0.147,0.064c0.203,0.062,0.406,0.131,0.614,0.182
			c0.526,0.131,2.013,0.32,2.543,0.299c0.38-0.014,0.747,0.027,1.107,0.139c0.601,0.186,1.2,0.193,1.824,0.104
			C13.816,35.178,14.435,35.164,15.042,35.377z M10.026,26.791c0.24-0.037,0.424-0.07,0.608-0.002
			c0.117,0.043,0.242,0.186,0.232,0.297c-0.017,0.186-0.058,0.371-0.06,0.555c-0.005,0.385,0.188,0.674,0.512,0.848
			c0.297,0.156,0.619,0.166,0.913-0.041c0.219-0.152,0.436-0.309,0.649-0.469c0.129-0.096,0.244-0.207,0.375-0.297
			c0.466-0.32,0.88-0.693,1.229-1.139c0.413-0.527,0.861-1.021,1.363-1.467c0.079-0.07,0.153-0.148,0.227-0.227
			c0.604-0.643,1.19-1.301,1.84-1.899c0.077-0.07,0.139-0.16,0.205-0.244c0.169-0.206,0.34-0.412,0.505-0.623
			c0.28-0.356,0.577-0.703,0.828-1.079c0.211-0.315,0.442-0.604,0.724-0.853c0.658-0.584,1.075-1.319,1.378-2.131
			c0.079-0.215,0.071-0.422-0.066-0.61c-0.095-0.128-0.193-0.254-0.305-0.367c-0.48-0.488-1.08-0.792-1.718-0.996
			c-0.522-0.167-0.97-0.435-1.402-0.753c-0.561-0.415-1.177-0.737-1.801-1.042c-0.072-0.036-0.148-0.062-0.225-0.086
			c-0.362-0.124-0.691-0.053-0.971,0.196c-0.159,0.142-0.303,0.305-0.429,0.477c-0.46,0.622-0.939,1.232-1.309,1.918
			c-0.05,0.095-0.099,0.191-0.165,0.274c-0.516,0.648-1.025,1.302-1.557,1.938c-0.787,0.943-1.591,1.869-2.281,2.891
			c-0.299,0.441-0.648,0.849-0.976,1.271c-0.379,0.487-0.686,1.019-0.958,1.572c-0.064,0.131-0.005,0.336,0.116,0.436
			c0.126,0.104,0.266,0.178,0.432,0.189c0.187,0.014,0.374,0.023,0.561,0.041c0.205,0.02,0.345,0.141,0.431,0.316
			c0.058,0.119,0.093,0.25,0.122,0.379c0.022,0.104,0.012,0.215,0.029,0.318c0.037,0.217,0.217,0.389,0.438,0.406
			C9.708,26.803,9.895,26.791,10.026,26.791z M22.46,15.886c0.26-0.01,0.465-0.056,0.65-0.178c0.204-0.133,0.391-0.288,0.517-0.496
			c0.206-0.343,0.398-0.696,0.59-1.048c0.037-0.069,0.048-0.152,0.069-0.229c0.037-0.136,0.021-0.272-0.056-0.386
			c-0.089-0.132-0.182-0.27-0.301-0.369c-0.286-0.24-0.587-0.463-0.887-0.687c-0.172-0.128-0.368-0.224-0.527-0.362
			c-0.635-0.551-1.358-0.943-2.137-1.242c-0.174-0.066-0.337-0.16-0.504-0.244c-0.504-0.253-1.024-0.462-1.57-0.601
			c-0.345-0.086-0.642,0.011-0.857,0.291c-0.214,0.274-0.421,0.555-0.604,0.849c-0.111,0.179-0.194,0.383-0.254,0.586
			c-0.072,0.238-0.036,0.473,0.11,0.688c0.646,0.952,1.504,1.67,2.522,2.177c0.812,0.405,1.664,0.727,2.502,1.077
			C21.971,15.817,22.233,15.875,22.46,15.886z M24.939,12.208c0.298,0.011,0.545-0.146,0.734-0.383
			c0.299-0.374,0.581-0.765,0.86-1.154c0.076-0.106,0.117-0.237,0.165-0.36c0.061-0.158,0.045-0.312-0.041-0.462
			c-0.162-0.281-0.361-0.532-0.619-0.729c-0.319-0.24-0.645-0.476-0.981-0.69c-0.427-0.273-0.884-0.502-1.3-0.788
			c-0.446-0.308-0.925-0.527-1.431-0.71c-0.286-0.103-0.563-0.119-0.862-0.109c-0.354,0.01-0.617,0.153-0.829,0.414
			c-0.37,0.455-0.738,0.914-1.103,1.376c-0.139,0.177-0.088,0.432,0.105,0.562c0.087,0.061,0.179,0.117,0.275,0.16
			c0.146,0.062,0.297,0.122,0.451,0.164c0.447,0.123,0.83,0.369,1.191,0.643c0.469,0.354,0.927,0.726,1.373,1.108
			c0.391,0.334,0.831,0.581,1.285,0.81C24.432,12.17,24.669,12.208,24.939,12.208z M5.866,30.65
			c-0.016,0.238,0.049,0.391,0.236,0.564c0.059,0.057,0.118,0.109,0.181,0.16c0.518,0.41,1.063,0.443,1.647,0.145
			c0.792-0.402,1.462-0.982,2.185-1.486c0.132-0.092,0.22-0.23,0.267-0.389c0.04-0.135,0.059-0.268-0.007-0.393
			c-0.149-0.281-0.303-0.564-0.468-0.838c-0.117-0.195-0.306-0.297-0.535-0.301c-0.159-0.006-0.32,0.006-0.479,0.012
			c-0.363,0.014-0.609-0.156-0.761-0.479c-0.079-0.168-0.155-0.34-0.247-0.502c-0.212-0.375-0.957-0.479-1.207,0.016
			c-0.073,0.145-0.149,0.285-0.202,0.436C6.125,28.584,5.897,29.598,5.866,30.65z"/>
		<path fill-rule="evenodd" clip-rule="evenodd" fill="#15757D" d="M19.899,35.623c-0.033-0.02-0.066-0.043-0.1-0.064
			c0.046-0.01,0.092-0.023,0.139-0.025c0.019,0,0.055,0.02,0.056,0.033C20,35.615,19.962,35.637,19.899,35.623z"/>
		<polygon fill-rule="evenodd" clip-rule="evenodd" fill="#15757D" points="18.728,35.445 18.682,35.416 18.736,35.4 		"/>
		<path fill-rule="evenodd" clip-rule="evenodd" fill="#15757D" d="M19.265,35.422c-0.003,0.018-0.013,0.047-0.009,0.049
			c0.049,0.027,0.062,0.014,0.036-0.033L19.265,35.422z"/>
		<path fill-rule="evenodd" clip-rule="evenodd" fill="#15757D" d="M19.292,35.438c-0.017,0.004-0.032,0.006-0.049,0.008
			c0.017,0.041,0.024,0.035,0.022-0.021C19.265,35.422,19.292,35.438,19.292,35.438z"/>
	</g>
</g>
</svg>
