<?xml version="1.0" encoding="utf-8"?>
<!-- Generator: Adobe Illustrator 16.2.1, SVG Export Plug-In . SVG Version: 6.00 Build 0)  -->
<!DOCTYPE svg PUBLIC "-//W3C//DTD SVG 1.1//EN" "http://www.w3.org/Graphics/SVG/1.1/DTD/svg11.dtd">
<svg version="1.1" id="Layer_1" xmlns="http://www.w3.org/2000/svg" xmlns:xlink="http://www.w3.org/1999/xlink" x="0px" y="0px"
	  viewBox="0 0 200 200" enable-background="new 0 0 200 200" xml:space="preserve">
<g>
	<g>
		<path fill-rule="evenodd" clip-rule="evenodd" fill="#22BCBA" d="M153.175,108.457c-2.852-4.799-7.777-4.969-12.606-4.205
			c-4.625,0.734-8.75,2.919-12.203,6.87c3.067,2.563,6.237,3.386,9.941,3.437c5.601,0.081,11.019,0.874,15.844,4.387
			c6.64,4.833,10.713,21.411,3.941,29.735c-5.478,6.747-11.999,10.362-20.629,11.032c-7.931,0.615-15.827,0.87-23.74,0.318
			c-5.215-0.365-10.425-0.738-15.606-1.357c-3.343-0.399-3.742-1.137-3.814-4.617c-0.089-4.345-0.335-8.698-0.284-13.043
			c0.051-4.617,1.379-5.482,5.703-4.6c6.844,1.392,13.684,3.136,20.6,3.7c4.349,0.356,8.894-1.006,13.264-1.948
			c1.298-0.28,2.338-1.757,4.022-3.098c-1.553-0.806-2.385-1.383-3.314-1.701c-6.462-2.202-12.997-4.188-19.386-6.573
			c-3.624-1.349-6.87-3.22-9.102-6.861c-3.526-5.75-1.82-11.24,0.331-16.518c3.835-9.407,10.824-15.504,21.042-17.185
			c6.275-1.027,12.627-1.799,18.971-2.139c3.28-0.178,6.619,0.853,10.59,1.434c0.127,2.385,0.386,4.782,0.361,7.18
			c-0.047,3.882-0.377,7.756-0.39,11.634C156.701,106.585,155.793,107.841,153.175,108.457z M152.369,91.293
			c-1.375,0-2.597,0.166-3.755-0.025c-7.65-1.273-15.054-0.696-22.488,1.723c-7.998,2.597-13.378,7.387-15.894,15.517
			c-1.778,5.72-0.959,8.94,4.459,11.571c4.443,2.16,9.216,3.632,13.862,5.376c3.904,1.468,7.799,2.979,11.749,4.298
			c2.368,0.789,3.229,2.631,3.076,4.663c-0.204,2.767-0.874,5.694-3.483,7.277c-2.635,1.6-5.436,3.038-8.329,4.09
			c-5.949,2.164-11.94,1.171-17.915-0.254c-3.157-0.751-6.373-1.443-9.589-1.646c-2.966-0.183-3.819,0.917-4.133,3.866
			c-0.395,3.78,0.551,5.036,4.519,5.469c3.857,0.42,7.769,0.428,11.609,0.967c8.868,1.248,17.63,0.518,26.311-1.252
			c8.236-1.676,14.405-9.419,13.824-17.329c-0.412-5.571-2.762-10.001-8.155-12.64c-4.069-1.994-8.448-1.548-12.61-2.533
			c-2.954-0.7-6.093-1.566-8.537-3.246c-4.714-3.237-4.142-9.288,0.726-12.288c2.096-1.298,4.082-2.788,6.211-4.043
			c3.997-2.363,8.524-3.166,12.963-2.661c5.673,0.645,6.059,0.667,5.966-5.151C152.746,92.456,152.5,91.871,152.369,91.293z"/>
	</g>
	<g>
		<g>
			<path fill="#22BCBA" d="M52.485,149.228c-0.885,0-2.02-0.136-3.467-0.369c-0.927-0.148-1.879-0.157-2.832-0.157h-1.755
				c-1.886-0.017-3.394-0.603-4.48-1.744c-1.082-1.133-1.593-2.656-1.519-4.527l0.17-4.354c0.129-3.187,0.259-6.373,0.324-9.563
				c0.068-3.28,0.083-6.56,0.096-9.84l0.079-8.779c0.03-1.816,0.062-3.63,0.051-5.446c-0.025-4.381-0.085-8.767-0.142-13.147
				l-0.127-11.677c-0.055-6.734-0.11-13.47-0.356-20.197c-0.163-4.43-0.346-9.453,1.492-14.405l0.477-1.286l1.252-0.558
				c5.024-2.24,10.052-2.652,14.917-3.049l1.298-0.108c11.923-1.003,21.309,0.095,29.895,3.441
				c8.872,3.458,14.811,9.749,18.687,19.798c5.688,14.761-3.497,26.022-13.99,31.643c-9.171,4.909-19.567,7.898-32.714,9.407
				c-1.01,0.115-1.769,0.443-2.139,0.925c-0.424,0.552-0.403,1.416-0.31,2.041c1.303,8.745,1.175,17.537,1.052,26.036
				c-0.036,2.491-0.074,4.981-0.074,7.468C58.366,143.733,58.361,149.228,52.485,149.228z M46.186,142.185
				c1.15,0,2.491,0.017,3.87,0.242c0.677,0.11,1.254,0.199,1.746,0.246c0.027-0.424,0.049-1.031,0.049-1.897
				c0-2.516,0.038-5.037,0.074-7.561c0.119-8.236,0.242-16.756-0.98-24.979c-0.505-3.396,0.583-5.665,1.585-6.969
				c1.477-1.922,3.747-3.108,6.568-3.431c12.303-1.413,21.956-4.168,30.378-8.677c5-2.677,16.079-10.334,10.985-23.553
				c-3.214-8.332-7.833-13.287-14.972-16.071c-7.637-2.974-16.094-3.942-26.979-3.017l-1.317,0.108
				c-4.031,0.329-7.862,0.643-11.488,1.975c-0.931,3.384-0.795,7.04-0.666,10.589c0.249,6.789,0.306,13.584,0.361,20.381
				l0.127,11.643c0.058,4.398,0.117,8.8,0.143,13.196c0.01,1.865-0.021,3.732-0.051,5.595l-0.078,8.698
				c-0.013,3.314-0.028,6.632-0.096,9.946c-0.068,3.233-0.199,6.462-0.329,9.691l-0.151,3.844l0.062,0.004L46.186,142.185z
				 M57.975,90.731c-2.215,0-4.099-0.806-5.302-2.27c-0.857-1.043-1.763-2.887-1.198-5.745c1.281-6.509,0.963-13.026,0.628-19.925
				l-0.162-3.437c-0.097-2.353-0.053-4.792,1.604-6.519c1.481-1.542,3.471-1.75,5.221-1.75c0.505,0,1.071,0.019,1.704,0.053
				c0.564,0.032,1.131,0.04,1.697,0.04l0.246-0.002l0.036-0.443l3.403,0.284c1.042,0.136,2.085,0.248,3.131,0.363
				c2.38,0.259,4.843,0.526,7.294,1.048c7.956,1.704,13.418,7.05,15.385,15.052c2.026,8.232-1.32,15.252-8.953,18.778
				c-5.146,2.38-10.879,3.585-17.034,3.585c-0.002,0-0.004,0-0.006,0c-1.695,0-3.305,0.202-5.465,0.649
				C59.429,90.65,58.682,90.731,57.975,90.731z M57.833,84.209c0.257,0.013,0.649-0.017,1.055-0.102
				c2.607-0.541,4.627-0.783,6.542-0.783c0.002,0,0.002,0,0.004,0c5.448,0,10.258-1.003,14.543-2.983
				c4.78-2.21,6.634-6.121,5.357-11.306c-1.379-5.607-4.884-9.05-10.419-10.236c-2.122-0.452-4.315-0.689-6.636-0.942
				c-0.707-0.079-1.411-0.155-2.113-0.237l-3.999,0.074c-0.686,0-1.371-0.013-2.056-0.049c-0.654-0.036-1.254-0.058-1.672-0.041
				c-0.013,0.325-0.015,0.796,0.015,1.477l0.157,3.39c0.341,6.988,0.694,14.212-0.743,21.504
				C57.852,84.065,57.839,84.144,57.833,84.209z"/>
		</g>
	</g>
</g>
</svg>
