<?xml version="1.0" encoding="utf-8"?>
<!-- Generator: Adobe Illustrator 16.2.1, SVG Export Plug-In . SVG Version: 6.00 Build 0)  -->
<!DOCTYPE svg PUBLIC "-//W3C//DTD SVG 1.1//EN" "http://www.w3.org/Graphics/SVG/1.1/DTD/svg11.dtd">
<svg version="1.1" id="Layer_1" xmlns="http://www.w3.org/2000/svg" xmlns:xlink="http://www.w3.org/1999/xlink" x="0px" y="0px"
	  viewBox="0 0 200 200" enable-background="new 0 0 200 200" xml:space="preserve">
<g>
	<path fill-rule="evenodd" clip-rule="evenodd" fill="#22BCBA" d="M151.245,115.734c0.145,1.553,0.492,3.133,0.391,4.664
		c-0.355,5.389-0.771,10.777-1.35,16.127c-0.297,2.695-1.281,5.305-1.373,7.982c-0.076,2.074-0.807,3.186-1.969,4.303
		c-1.656,1.564-3.174,3.338-4.871,4.807c-2.004,1.719-4.041,3.352-6.518,4.031c-2.725,0.738-5.363,1.994-8.113,2.494
		c-2.689,0.502-5.473,0.441-8.223,0.441c-2.146,0-4.32-0.145-6.449-0.5c-2.012-0.34-3.98-1.023-5.967-1.578
		c-4.691-1.342-8.41-4.762-12.033-8.342c-1.477-1.469-1.535-2.555-1.018-4.838c1.17-5.109,2.164-10.277,3.232-15.416
		c0.297-1.383,0.645-2.74,0.934-4.111c1.02-4.785,2.004-9.584,3.014-14.371c0.482-2.205,0.652-2.176,2.527-1.586
		c3.199,1.014,5.898,3.301,8.895,4.828c2.088,1.064,4.344,1.756,6.576,2.229c2.326,0.475,4.762,0.203,7.078,0.768
		c2.537,0.605,4.98-0.076,7.467-0.102c2.666-0.031,4.838-1.639,7.137-2.811c2.471-1.25,4.752-2.922,6.721-5.188
		c1.23-1.414,2.598-0.908,3.098,1.01c0.221,0.869,0.502,1.713,0.672,2.6c0.16,0.828,0.203,1.693,0.287,2.537
		C151.356,115.719,151.306,115.723,151.245,115.734z M103.036,114.699c-0.094,0.896-0.17,1.541-0.221,2.189
		c-0.094,1.324-0.068,2.686-0.297,3.977c-0.459,2.609-1.145,5.176-1.604,7.799c-0.449,2.6-0.764,5.248-1.061,7.871
		c-0.271,2.256-0.434,4.523-0.67,6.779c-0.111,1.041,0.211,1.812,0.957,2.279c1.479,0.904,2.955,1.854,4.465,2.664
		c1.375,0.738,2.791,1.354,4.201,1.982c2.215,0.975,4.445,2.057,6.848,1.908c1.324-0.08,2.834,0.477,3.963-0.945
		c0.051-0.068,0.195-0.098,0.279-0.055c1.527,0.572,3.057,1.166,4.584,1.738c0.178,0.064,0.406,0,0.594-0.041
		c2.121-0.463,4.252-0.943,6.363-1.414c1.605-0.377,3.234-0.623,4.795-1.188c1.57-0.561,3.09-1.396,4.6-2.197
		c1.545-0.832,2.92-2.127,3.268-4.121c0.594-3.402,0.857-6.887,1.316-10.314c0.211-1.646,0.475-3.289,0.822-4.896
		c0.746-3.471,0.373-6.967,0.373-10.561c-0.398,0.059-0.67,0.037-0.883,0.143c-3.131,1.621-6.576,2.004-9.691,3.82
		c-2.732,1.59-5.787,1.816-8.824,1.719c-0.875-0.018-1.758,0.189-2.623,0.066c-1.68-0.254-3.352-0.641-5.031-1.025
		c-2.148-0.506-4.371-0.77-6.434-1.617C109.571,119.795,106.101,118.051,103.036,114.699z"/>
	<path fill-rule="evenodd" clip-rule="evenodd" fill="#22BCBA" d="M47.401,73.283c0.152-1.697,0.322-3.398,0.459-5.113
		c0.236-3.081,0.305-6.199,0.746-9.237c0.188-1.328,0.959-2.75,1.807-3.675c2.395-2.647,4.787-5.384,7.502-7.472
		c3.336-2.559,6.908-4.68,10.516-6.615c2.697-1.451,5.65-1.909,8.639-1.689c1.213,0.085,2.426-0.144,3.631-0.042
		c2.775,0.246,5.363,1.213,7.893,2.673c3.141,1.808,5.924,4.205,8.639,6.751c0.814,0.764,1.486,1.773,2.258,2.622
		c1.502,1.659,3.088,3.237,4.514,4.994c0.451,0.552,0.748,1.578,0.748,2.368c-0.043,2.015-0.17,4.056-0.484,6.034
		c-0.391,2.41-1.078,4.752-1.494,7.162c-0.738,4.307-1.348,8.639-2.053,12.95c-0.305,1.888-0.67,3.759-1.078,5.618
		c-0.246,1.094-0.771,1.901-1.883,1.824c-1.01-0.068-1.053-1.018-1.334-1.875c-0.221-0.624-0.814-1.043-1.152-1.633
		c-1.273-2.262-2.971-3.764-4.914-5.207c-1.766-1.298-3.598-2.236-5.5-3.072c-4.25-1.901-8.654-2.593-13.162-1.833
		c-1.307,0.221-2.604,0.772-3.861,1.315c-2.18,0.929-4.412,1.735-6.449,3.008c-2.121,1.332-4.123,3.017-6.041,4.778
		c-1.809,1.663-3.387,3.666-5.152,5.397c-0.406,0.386-1.297,0.585-1.723,0.318c-0.533-0.344-1.111-1.248-1.137-1.935
		c-0.076-2.987,0.068-6,0.102-8.991c0-1.26-0.102-2.524-0.117-3.789c-0.027-1.871,0-3.747,0-5.618
		C47.343,73.296,47.376,73.296,47.401,73.283z M101.255,61.038c-0.578-0.293-1.41-0.45-1.918-1.036
		c-1.562-1.808-3.107-3.674-4.473-5.711c-3.377-5.066-7.52-8.393-13-8.953c-0.621-0.068-1.248-0.348-1.859-0.25
		c-2.971,0.445-6,0.395-8.877,1.714c-2.801,1.277-5.609,2.584-8.494,3.577c-3.072,1.057-5.643,2.919-7.781,5.728
		c-0.68,0.891-1.646,1.672-1.961,2.732c-0.883,3-1.416,6.102-0.984,9.36c0.307,2.278,0.586,4.595,0.543,6.882
		c-0.051,3.081-0.424,6.157-0.645,9.233c-0.043,0.518-0.008,1.04-0.008,1.553c0.117,0.047,0.236,0.106,0.355,0.162
		c0.408-0.471,0.799-0.955,1.213-1.409c0.365-0.403,0.713-0.887,1.139-1.159c2.994-1.884,6.041-3.645,9.012-5.597
		c3.691-2.436,7.629-3.627,11.82-3.704c0.883-0.013,1.783-0.187,2.631,0c3.531,0.755,7.061,1.549,10.549,2.508
		c1.094,0.297,2.096,1.09,3.123,1.723c1.484,0.921,2.986,1.812,4.387,2.877c1.121,0.853,1.383,0.814,1.664-0.692
		c0.119-0.581,0.314-1.146,0.467-1.727c0.781-3.017,1.738-5.991,2.283-9.067C100.933,66.961,100.999,64.021,101.255,61.038z"/>
	<path fill-rule="evenodd" clip-rule="evenodd" fill="#22BCBA" d="M112.177,63.923c1.926,0.729,3.717,1.426,5.506,2.075
		c3.988,1.451,8.07,2.049,12.162,1.04c2.758-0.67,5.447-1.82,8.104-2.928c1.85-0.759,3.641-1.718,5.381-2.771
		c1.18-0.709,2.189-1.846,3.369-2.555c0.678-0.407,1.543-0.496,2.324-0.488c3.717,0.021,3.811,3.526,3.904,6.547
		c0.178,5.453,0.145,10.922,0,16.37c-0.119,4.744-0.543,9.466-0.73,14.197c-0.043,1.421,0.145,2.905-0.738,3.983
		c-0.68,0.846-1.621,1.363-2.367,2.131c-3.131,3.232-6.883,4.951-10.592,6.949c-3.996,2.16-8.264,2.543-12.389,3.789
		c-1.451,0.451-3.156-0.109-4.719-0.475c-2.07-0.48-4.15-1.074-6.152-1.879c-1.9-0.777-3.768-1.766-5.576-2.844
		c-2.9-1.744-5.082-4.557-7.086-7.531c-0.406-0.604-0.594-1.731-0.439-2.482c0.457-2.122,1.281-4.133,1.713-6.267
		c0.916-4.502,1.646-9.055,2.496-13.578c0.754-4.077,1.561-8.142,2.367-12.194c0.16-0.781,0.365-1.608,0.764-2.228
		c0.305-0.479,0.924-0.891,1.426-0.912c0.33-0.026,0.746,0.632,1.035,1.073C112.108,63.198,112.108,63.609,112.177,63.923z
		 M128.731,105.213c0.01,0.145,0.01,0.279,0.025,0.428c1.707-0.488,3.404-0.977,5.109-1.455c0.84-0.234,1.73-0.318,2.521-0.688
		c1.527-0.717,3.012-1.561,4.496-2.396c1.486-0.828,3.014-1.555,4.379-2.619c2.631-2.066,3.879-5.308,4.133-8.944
		c0.365-5.147,0.477-10.328,0.645-15.491c0.018-0.696-0.168-1.396-0.322-2.066c-0.551-2.262-1.332-4.464-1.611-6.764
		c-0.188-1.655-0.695-1.031-1.266-0.666c-1.908,1.213-3.732,2.677-5.719,3.662c-2.74,1.358-5.566,2.559-8.436,3.492
		c-1.969,0.628-4.057,0.755-6.092,1.027c-0.9,0.114-1.834,0.166-2.725,0.042c-1.154-0.162-2.301-0.454-3.43-0.815
		c-2.096-0.683-4.191-1.43-6.27-2.198c-0.713-0.259-1.4-0.951-2.072-0.899c-1.195,0.093-0.568,1.502-0.822,2.304
		c-0.018,0.042-0.043,0.098-0.051,0.145c-0.713,3.127-1.51,6.237-2.139,9.39c-0.857,4.366-1.545,8.783-2.359,13.167
		c-0.406,2.228-0.229,2.682,1.443,3.563c1.213,0.636,2.342,1.609,3.59,2.037c2.273,0.773,4.404,1.846,6.543,3.055
		c2.045,1.164,4.25,1.982,6.457,2.627C126.017,105.51,127.392,105.213,128.731,105.213z"/>
	<path fill-rule="evenodd" clip-rule="evenodd" fill="#22BCBA" d="M69.415,132.424c-1.291,0-2.623-0.191-3.887,0.055
		c-1.197,0.225-2.428,0.713-3.48,1.438c-2.324,1.588-4.582,3.314-6.771,5.143c-1.162,0.969-2.131,2.271-3.182,3.43
		c-0.883,0.975-1.859,1.021-2.783,0.156c-0.188-0.174-0.4-0.361-0.621-0.428c-1.061-0.311-1.654-1.121-1.713-2.42
		c-0.061-0.959,0-1.922,0.033-2.881c0.076-3.225,0.152-6.461,0.238-9.678c0.068-2.742,0.16-5.465,0.236-8.215
		c0.051-2.316-0.008-4.65,0.145-6.959c0.195-2.834,0.102-5.621-0.051-8.457c-0.16-2.777,1.408-5.02,3.234-6.529
		c3.232-2.694,6.678-5.066,10.539-6.131c3.742-1.031,7.596-1.456,11.312-2.554c2.783-0.823,5.414-0.098,7.977,0.581
		c2.545,0.675,4.998,2.104,7.357,3.497c1.451,0.87,2.895,2.066,3.955,3.521c1.723,2.371,3.199,5.023,4.582,7.705
		c0.355,0.691,0.135,1.99-0.051,2.924c-0.424,2.059-1.002,4.068-1.502,6.098c-0.832,3.436-1.707,6.865-2.479,10.326
		c-0.68,3.025-1.137,6.115-1.867,9.111c-0.883,3.529-1.875,7.021-2.953,10.471c-0.457,1.465-1.705,1.494-2.588,0.307
		c-1.248-1.689-2.504-3.357-3.803-4.994c-0.424-0.539-0.932-1.039-1.477-1.393C76.534,134.469,73.335,132.08,69.415,132.424z
		 M86.063,135.186c0.246-0.701,0.441-1.125,0.561-1.6c0.424-1.799,0.807-3.604,1.223-5.41c0.627-2.678,1.246-5.352,1.883-8.037
		c0.502-2.121,1.078-4.23,1.545-6.377c0.383-1.756,0.551-3.59,1.035-5.303c0.365-1.316,0.203-2.178-0.518-3.256
		c-1.256-1.922-2.309-4.051-3.471-6.076c-1.596-2.749-4.293-3.211-6.602-4.225c-1.783-0.785-3.912-0.382-5.891-0.53
		c-0.559-0.039-1.129-0.259-1.68-0.204c-1.154,0.119-2.316,0.352-3.463,0.539c-4.174,0.653-8.375,0.7-12.432,2.687
		c-2.02,1.001-3.539,2.566-5.244,3.945c-0.34,0.271-0.604,0.887-0.695,1.393c-0.4,2.176-0.857,4.354-1.02,6.564
		c-0.221,2.918-0.195,5.859-0.246,8.783c-0.094,5.096-0.17,10.191-0.236,15.279c-0.01,0.559,0,1.127,0,1.691
		c0.518-0.164,0.729-0.525,1-0.771c0.68-0.637,1.332-1.393,2.113-1.781c2.41-1.223,4.965-2.105,7.307-3.48
		c2.598-1.523,5.279-1.145,7.951-1.133c1.91,0.008,3.811,0.607,5.729,0.564c2.979-0.072,5.49,1.184,7.781,3.297
		C83.815,132.771,84.851,133.934,86.063,135.186z"/>
</g>
</svg>
